<svg width="941" height="82" viewBox="0 0 941 82" fill="none" xmlns="http://www.w3.org/2000/svg">
<g clip-path="url(#clip0_10_161)">
<rect y="-55" width="66" height="99" fill="#272727"/>
<rect x="129" y="-55" width="66" height="99" fill="#272727"/>
<rect x="251" y="-55" width="67" height="99" fill="#272727"/>
<rect x="375" y="-55" width="67" height="99" fill="#272727"/>
<rect x="499" y="-55" width="67" height="99" fill="#272727"/>
<rect x="628" y="-55" width="67" height="99" fill="#272727"/>
<rect x="751" y="-55" width="66" height="99" fill="#272727"/>
<rect x="875" y="-55" width="66" height="99" fill="#272727"/>
<rect x="66" y="44" width="66" height="99" fill="#272727"/>
<rect x="195" y="44" width="66" height="99" fill="#272727"/>
<rect x="317" y="44" width="67" height="99" fill="#272727"/>
<rect x="441" y="44" width="67" height="99" fill="#272727"/>
<rect x="565" y="44" width="67" height="99" fill="#272727"/>
<rect x="694" y="44" width="67" height="99" fill="#272727"/>
<rect x="817" y="44" width="66" height="99" fill="#272727"/>
</g>
<defs>
<clipPath id="clip0_10_161">
<rect width="941" height="82" fill="white"/>
</clipPath>
</defs>
</svg>
