<svg width="399" height="377" viewBox="0 0 399 377" fill="none" xmlns="http://www.w3.org/2000/svg">
<g clip-path="url(#clip0_29_191)">
<path fill-rule="evenodd" clip-rule="evenodd" d="M166.435 95.4631C166.12 101.124 165.804 106.784 165.488 112.445C167.518 111.803 180.432 107.633 179.634 111.861C179.062 114.894 175.431 118.174 173.582 120.286C171.879 122.23 170.126 124.123 168.328 125.961C171.632 124.573 174.964 123.258 178.32 122.028C180.859 121.098 183.416 120.189 186.018 119.492C186.984 119.233 189.592 118.176 190.504 118.897C192.901 120.79 179.893 134.738 178.112 136.704C180.631 135.418 183.211 134.249 185.835 133.247C187.729 132.523 193.582 129.757 195.259 132.119C197.053 134.646 192.608 140.449 191.375 142.289C189.608 144.925 187.694 147.455 185.685 149.873C194.034 158.103 203.844 165.427 214.284 169.98C221.94 173.318 229.459 174.168 237.537 172.336C245.836 170.454 253.794 166.844 261.36 162.718C265.803 160.294 270.187 157.671 274.364 154.725C272.642 152.426 270.971 150.079 269.346 147.696C267.028 144.294 264.178 140.577 262.856 136.528C261.563 132.564 266.417 133.338 268.745 133.553C272.116 133.865 275.478 134.526 278.782 135.318C276.446 133.534 274.153 131.679 271.905 129.764C268.975 127.269 265.068 124.447 263.15 120.857C261.464 117.7 265.165 118.497 266.876 118.911C270.956 119.897 274.926 121.578 278.817 123.218C281.667 124.419 284.499 125.676 287.303 127C285.562 125.339 283.88 123.599 282.263 121.794C280.089 119.368 277.158 116.406 276.183 113.066C274.199 106.264 287.549 111.395 289.828 112.445C289.407 105.398 288.986 98.3514 288.566 91.3047C270.889 96.467 253.212 101.63 235.535 106.793C233.624 107.351 231.234 108.566 229.241 108.631C227.437 108.69 225.257 107.798 223.498 107.429L191.509 100.721C183.151 98.9686 174.793 97.2158 166.435 95.4631Z" fill="#FF788F"/>
<path fill-rule="evenodd" clip-rule="evenodd" d="M356.424 337.835C354.516 339.033 352.28 339.959 350.16 340.579C348.915 340.945 346.857 342.071 345.764 341.039C345.238 340.543 345.118 339.417 344.808 338.764C344.318 337.731 343.621 336.839 342.968 335.926C341.385 333.714 339.738 331.579 338.015 329.497C337.198 328.511 335.706 326.208 334.268 326.359C332.474 326.548 332.517 329.273 332.967 330.665C334.398 335.096 338.729 338.96 341.559 342.299C340.84 343.514 336.888 343.369 335.791 343.085C334.116 342.651 333.947 341.342 333.182 339.844C331.394 336.344 327.766 334.386 324.784 332.329C323.697 331.578 321.386 329.499 319.969 330.022C318.627 330.518 318.685 332.4 319.112 333.63C319.758 335.488 321.596 336.776 322.955 337.951C324.767 339.516 326.425 341.219 327.935 343.135C325.758 343.33 323.589 343.667 321.418 343.863C318.792 344.101 316.604 342.519 314.186 341.623C311.94 340.79 309.702 340.086 307.493 339.126C305.013 338.048 302.416 337.673 299.914 336.727C290.098 333.017 280.479 328.349 271.018 323.645C266.511 321.403 262.096 319.16 257.399 317.406C253.976 316.127 248.597 313.578 247.778 309.103C247.347 306.739 248.92 304.196 249.152 301.834C249.424 299.054 249.21 295.997 248.439 293.33C247.759 290.981 246.632 288.806 245.744 286.55C244.71 283.922 245.636 283.965 247.646 283.666C250.051 283.307 252.858 281.821 255.119 280.854C257.723 279.738 260.305 278.18 262.691 276.577C264.848 275.128 266.726 273.26 268.443 271.231C270.19 269.167 271.322 266.721 273.011 264.607C279.246 273.022 285.171 281.565 291.796 289.617C294.923 293.417 298.323 296.56 302.176 299.449C303.785 300.657 305.381 302.035 307.134 302.989C309.326 304.183 311.776 304.923 314.029 306.013C322.668 310.191 330.912 314.757 338.971 320.147C342.87 322.755 346.142 325.744 349.575 329.015C350.644 330.033 359.397 335.968 356.424 337.835ZM255.089 268.895C253.693 269.589 252.362 270.49 250.873 270.936C251.295 268.116 253.692 263.863 256.766 264.331C257.94 264.51 258.826 265.51 258.31 266.89C257.841 268.144 256.083 268.401 255.089 268.895ZM157.919 192.418C156.336 193.377 154.862 193.936 153.934 191.877C154.621 191.726 157.743 191.269 157.919 192.418ZM155.284 186.599C154.061 186.192 155.039 185.764 155.46 185.273C155.788 184.891 156.873 183.549 157.253 183.328C158.93 182.353 160.227 185.982 161.029 187.16C159.13 186.974 157.133 187.214 155.284 186.599ZM168.36 199.165C166.042 199.596 166.3 196.413 166.369 194.8C166.858 195.455 170.168 198.829 168.36 199.165ZM176.043 193.666C173.217 194.19 171.349 188.831 171.856 186.487C172.302 184.422 174.492 183.269 176.235 182.964C177.926 182.669 180.278 183.072 180.78 185.211C181.224 187.102 177.926 193.318 176.043 193.666ZM242.942 274.566C240.911 275.251 238.921 275.337 236.879 276.009C234.563 276.773 232.42 276.705 230.099 277.224C229.155 277.435 226.608 278.945 225.687 278.608C224.775 278.273 223.454 275.166 222.93 274.358C227.036 272.485 230.539 270.066 233.245 266.12C235.397 262.981 237.705 258.278 236.351 254.227C234.824 249.66 229.561 248.668 226.052 250.576C224.391 251.478 222.746 252.6 221.377 253.975C219.812 255.546 219.196 257.263 218.183 259.201C217.157 261.162 216.438 260.071 215.413 258.406C214.538 256.983 214.652 255.546 213.558 254.142C212.999 253.425 212.135 252.734 211.844 251.809C211.659 251.222 212.048 250.182 211.698 249.72C211.205 249.071 210.606 249.833 210.193 249.254C209.894 248.833 209.992 247.873 209.682 247.347C209.414 247.048 209.115 246.792 208.785 246.58C208.384 246.362 208.311 246.091 208.565 245.764C208.246 245.117 208.553 244.898 207.871 244.111C206.808 242.883 205.838 241.707 205.081 240.258C204.735 239.595 204.769 238.611 204.339 238.038C203.749 237.249 202.766 237.368 202.259 236.392C201.807 235.523 202.11 234.003 201.365 233.214C200.972 233.091 200.579 232.97 200.186 232.85C199.89 232.535 199.717 232.153 199.668 231.702C199.254 231.003 199.172 230.181 198.65 229.443C197.65 228.03 196.305 226.725 195.421 225.235C194.493 223.67 194.985 223.406 196.598 222.846C198.053 222.34 199.381 221.87 200.729 221.009C206.963 217.028 212.873 206.466 202.979 203.24C199.307 202.042 196.29 198.822 192.219 200.088C190.454 200.637 188.78 201.805 187.463 203.191C186.553 204.15 185.711 206.713 184.594 207.204C182.586 208.086 183.435 205.881 182.865 204.868C182.593 204.384 181.497 203.827 181.091 203.387C180.615 202.871 180.154 202.22 179.823 201.582C179.209 200.397 178.834 199.737 177.948 198.772C177.614 198.408 175.947 196.527 177.45 196.773C176.842 194.736 177.73 194.43 178.958 192.942C180.4 191.195 181.889 188.767 181.897 186.319C181.914 181.619 176.839 179.513 173.652 182.303C173.004 182.87 169.168 188.351 169.953 184.856C170.376 182.971 174.294 178.05 176.111 179.323C174.075 176.067 169.399 183.973 168.308 185.591C167.378 183.713 167.312 182.244 165.774 180.79C164.523 182.994 165.184 180.586 164.908 180.096C164.311 179.039 164.639 180.248 164.316 179.872C163.913 179.405 163.279 179.036 162.851 178.416C162.117 179.509 162.41 178.333 162.185 177.925C161.66 176.971 161.863 176.418 160.962 175.588C160.306 174.984 159.015 174.047 158.132 173.961C157.115 173.862 156.833 174.29 155.796 173.974C154.477 173.571 152.817 172.953 153.456 175.374C153.919 177.133 155.804 178.133 156.217 179.931C156.632 181.74 155.002 183.564 154.211 185.048C153.196 186.951 152.365 186.795 150.525 187.224C149.349 187.499 147.78 188.086 148.788 189.651C149.508 190.77 151.196 190.534 152.147 191.197C153.48 192.126 153.461 194.416 155.163 194.815C157.037 195.253 158.111 192.963 159.691 192.41C160.814 192.017 164.295 192.061 165.179 192.987C166.384 194.249 165.343 196.659 165.646 198.226C166.097 200.55 167.53 200.692 169.342 200.767C171.573 200.858 172.356 203.209 173.556 205.073C176.366 209.44 178.808 214.096 181.686 218.405C182.96 220.313 184.824 222.01 185.867 224.081C187.155 226.638 185.367 228.113 183.823 229.948C181.807 232.347 180.301 235.076 178.552 237.698C176.998 240.028 175.066 239.448 172.582 239.448C173.136 238.195 173.802 237.414 175.164 237.566C173.74 235.658 172.601 237.841 171.677 239.05C170.341 240.798 168.599 241.22 166.882 242.37C166.275 242.777 162.967 245.414 163.972 246.314C164.086 246.416 169.561 242.463 170.185 242.1C170.185 243.56 169.894 245.076 170.081 246.527C170.217 247.591 170.899 248.701 170.754 249.808C170.478 251.896 168.019 253.542 166.963 255.169C166.169 256.394 166.361 257.36 165.956 258.675C165.587 259.874 165.781 259.511 164.862 259.882C162.99 260.636 159.84 260.229 158.146 259.156C157.094 258.49 156.287 257.438 155.432 256.511C154.789 255.811 153.17 254.617 152.991 253.639C152.684 251.954 155.731 248.824 156.334 247.086C158.037 242.182 155.117 238.371 150.572 238.092C151.972 236.906 153.709 237.8 155.185 238.252C152.661 234.414 148.35 237.572 146.209 240.181C144.746 236.122 144.041 231.841 143.147 227.608C142.538 224.726 140.221 219.582 141.254 216.614C141.754 215.18 143.165 214.38 144.14 213.385C145.249 212.255 146.198 210.903 147.009 209.504C148.919 206.208 150.021 202.047 147.392 198.799C148.191 198.655 148.99 198.511 149.789 198.367C148.489 197.027 146.439 197.68 144.753 197.282C143.683 197.03 140.604 197.194 139.89 196.529C139.031 195.73 139.582 192.053 139.612 190.965C139.683 188.422 139.876 185.977 140.132 183.449C140.375 181.061 140.326 178.481 140.776 176.135C141.141 174.231 142.307 173.651 143.653 172.529C146.87 169.847 149.491 166.584 148.392 161.961C148.782 161.893 149.171 161.825 149.56 161.757C148.301 160.759 146.673 161.122 145.273 160.594C146.558 156.622 149.402 149.641 154.018 149.265C154.177 151.041 154.068 153.152 155.16 154.622C156.402 156.294 158.583 156.463 160.266 155.578C161.793 154.774 163.227 153.071 163.931 151.388C164.407 150.249 164.321 148.323 165.157 147.42C166.278 146.209 174.008 146.939 173.771 148.983C173.631 150.185 171.565 152.205 170.987 153.27C169.93 155.22 169.084 157.328 168.695 159.567C168.106 162.966 168.447 167.455 171.593 169.242C175.171 171.276 179.531 168.69 182.465 166.457C184.076 165.23 185.636 163.877 187.108 162.456C187.892 161.7 188.68 160.92 189.371 160.06C189.881 159.425 190.288 158.401 190.916 157.926C192.4 156.803 193.854 158.708 195.109 159.671C197.154 161.239 199.189 162.728 201.384 164.033C205.838 166.681 209.91 170.189 213.848 173.672C217.81 177.175 221.894 180.779 225.103 185.144C223.159 186.456 223.506 186.797 222.641 189.137C222.028 190.798 221.182 192.212 221.085 194.058C220.916 197.242 222.779 199.957 225.607 200.662C227.188 201.056 228.695 200.74 230.16 200.031C231.298 199.479 232.433 198.122 233.622 197.785C235.834 197.159 237.603 201.743 238.843 203.359C244.348 210.531 250.167 217.42 255.35 224.885C255.924 225.712 257.63 227.327 257.768 228.422C257.967 229.994 255.714 231.492 254.779 232.393C254.288 232.866 249.084 238.24 250.832 239.094C251.33 239.337 252.788 236.04 253.152 235.758C254.517 234.703 253.485 236.772 253.404 237.818C253.2 240.417 254.827 241.834 257.114 241.504C259.555 241.153 261.727 239.038 263.238 237.041C265.13 239.447 268.089 243.084 268.636 246.298C268.986 248.351 267.367 253.376 270.389 253.795C270.85 253.858 272.519 252.499 272.83 253.271C273.09 253.915 271.286 255.016 271.025 255.229C269.913 256.14 269.242 257.116 268.344 258.22C267.29 259.515 265.85 260.606 264.664 261.847C263.415 263.155 260.944 266.706 259.296 264.99C258.467 264.128 258.685 263.001 257.358 262.494C256.149 262.034 254.619 262.618 253.496 263.129C252.231 263.704 248.068 265.803 247.606 267.532C246.968 269.915 250.41 267.049 251.022 266.631C250.324 268.575 249.938 271.389 248.161 272.523C246.685 273.465 244.561 274.019 242.942 274.566ZM219.34 259.862C220.521 255.694 227.49 248.262 231.894 250.586C226.761 251.767 222.688 255.622 219.34 259.862ZM221.946 271.799C220.228 270.748 220.321 267.697 219.721 265.912C219.377 264.888 218.689 264.139 218.891 263.003C219.128 261.67 220.677 260.189 221.501 259.228C224.095 256.202 228.661 252.069 232.837 252.762C238.152 253.645 234.548 261.477 232.739 264.173C231.196 266.473 225.252 273.822 221.946 271.799ZM209.547 266.701C203.799 266.28 198.071 265.716 192.401 264.558C190.391 264.147 188.707 264.208 189.857 261.672C190.237 260.835 192.527 255.588 193.043 255.738C193.35 255.828 193.28 259.434 193.37 259.847C193.776 261.703 194.916 263.433 196.837 263.315C199.981 263.123 202.007 258.662 203.662 256.267C204.988 258.224 205.948 260.398 207.281 262.322C207.919 263.242 210.137 265.381 209.547 266.701ZM175.849 241.938C174.884 244.367 172.945 246.677 171.596 248.877C170.834 247.105 170.297 243.038 172.106 241.728C172.791 241.233 176.458 240.403 175.849 241.938ZM195.784 249.17C196.049 248.235 196.343 247.308 196.671 246.397C197.233 248.34 197.521 248.397 195.784 249.17ZM200.704 251.16C201.402 252.458 202.564 253.734 202.382 255.364C202.244 256.599 201.226 257.864 200.5 258.725C199.298 260.149 196.635 262.882 194.893 260.991C193.438 259.412 193.945 255.069 194.622 253.293C195.588 250.754 199.041 248.068 200.704 251.16ZM197.29 248.5C197.69 248.325 196.85 245.493 197.63 245.211C198.31 246.912 198.951 247.373 197.29 248.5ZM186.307 210.376C186.048 209.331 185.454 209.375 185.668 208.083C185.808 207.236 186.421 206.331 186.886 205.66C187.812 204.322 189.034 203.219 190.355 202.384C193.145 200.622 196.975 199.89 199.473 202.648C197.138 203.053 189.981 205.582 189.935 209.087C192.531 208.538 194.573 205.676 197.177 204.774C199.314 204.033 201.632 204.085 203.759 204.867C209.579 207.007 207.159 212.528 203.874 216.114C201.924 218.244 199.585 219.833 197.029 220.93C195.846 221.438 195.12 221.494 193.957 221.239C193.739 221.191 193.485 220.748 193.224 220.653C192.575 220.416 192.763 221.216 192.228 220.857C191.762 220.544 190.767 218.524 190.45 217.945C189.945 217.025 189.71 216.13 189.09 215.29C188.47 214.449 188.168 213.322 187.594 212.561C187.318 212.195 186.563 212.21 186.36 211.853C186.056 211.316 186.443 210.925 186.307 210.376ZM177.369 251.553C178.691 249.03 180.955 246.888 182.706 244.684C182.813 248.308 180.446 250.789 177.369 251.553ZM179.156 252.718C181.888 251.663 183.393 249.139 183.672 246.078C184.025 242.202 186.243 240.167 187.578 236.685C188.09 235.35 188.687 230.958 190.672 232.215C191.352 232.646 191.756 234.268 192.111 235.001C192.969 236.773 193.945 238.491 194.855 240.231C195.596 241.648 196.707 243.073 196.38 244.778C196.095 246.266 195.178 247.85 194.64 249.252C193.371 252.565 191.705 255.615 190.312 258.855C189.75 260.162 189.085 263.256 187.369 263.24C186.011 263.227 186.163 261.598 185.269 261.039C184.14 260.334 182.857 261.676 181.93 262.232C182.997 260.253 184.864 259.133 186.962 259.506C184.45 256.76 182.752 260.465 180.597 261.29C178.554 262.072 174.93 258.384 173.21 257.34C173.868 256.117 174.463 254.621 175.594 253.817C176.667 253.053 177.985 253.17 179.156 252.718ZM156.946 277.808C157.245 276.227 158.09 275.293 158.626 273.857C159.248 275.598 157.793 276.625 156.946 277.808ZM200.35 287.509C200.203 292.833 199.807 298.142 199.664 303.468C199.598 305.923 199.201 308.266 198.939 310.693C198.716 312.746 198.829 314.762 197.652 316.516C195.796 319.281 192.187 320.076 189.385 321.1C187.328 321.852 185.246 322.534 183.215 323.37C181.387 324.122 179.913 325.261 178.174 326.155C176.62 326.955 174.941 327.429 173.393 328.281C171.792 329.162 170.526 330.236 168.882 331.021C166.913 331.96 165.291 333.631 163.54 334.957C161.998 336.125 160.367 337.027 159.041 338.495C157.798 339.873 156.224 340.477 154.815 341.701C153.325 342.995 151.766 343.836 150.12 344.851C146.748 346.931 142.199 350.482 138.141 348.462C139.301 346.835 141.677 345.272 141.857 343.03C142.092 340.11 139.777 341.185 138.436 342.117C136.405 343.53 135.281 345.234 133.735 347.117C131.928 349.317 129.644 347.837 127.433 347.218C128.945 345.724 130.445 344.216 131.955 342.719C133.229 341.456 135.179 340.09 135.955 338.343C136.509 337.094 136.482 335.382 135.144 334.733C133.646 334.008 131.953 335.537 130.844 336.448C127.9 338.865 125.961 341.931 124.028 345.296C123 347.085 122.526 346.947 120.634 346.59C118.63 346.211 116.625 345.807 114.604 345.541C117.281 342.523 120.273 339.254 122.388 335.722C123.073 334.578 123.967 331.563 121.879 331.285C121.019 331.171 119.307 333.101 118.643 333.622C115.744 335.896 112.956 338.765 111.034 342.086C110.4 343.183 110.201 344.402 108.972 344.493C107.366 344.612 104.382 342.93 102.832 342.41C105.794 338.313 108.734 334.186 112.194 330.574C115.372 327.254 118.543 324.842 122.26 322.296C126.245 319.566 129.956 316.424 133.614 313.199C137.115 310.113 140.773 307.201 143.996 303.755C150.435 296.87 156.169 288.953 160.918 280.581C162.029 278.622 163.075 276.612 163.979 274.528C164.828 272.571 165.219 270.23 166.366 268.449C166.762 267.834 167.32 267.377 167.673 266.735C168.006 266.131 167.893 265.4 168.4 264.865C169.574 263.628 171.712 264.374 172.81 265.241C174.575 266.635 176.002 268.328 177.942 269.495C179.893 270.669 182.003 271.522 184.163 272.099C189.212 273.447 194.218 274.552 199.361 275.371C198.832 277.525 200.132 277.864 200.562 279.803C201.085 282.155 200.415 285.113 200.35 287.509ZM151.734 251.585C150.59 249.718 149.568 247.766 148.443 245.888C147.758 244.743 146.909 243.514 147.494 242.115C148.481 239.756 151.961 239.336 153.849 240.364C158.142 242.703 154.154 249.389 151.734 251.585ZM140.371 208.893C139.975 205.245 141.247 202.657 144.254 200.744C146.397 199.38 148.123 201.243 147.83 203.729C147.385 207.516 143.698 211.727 140.885 213.703C140.701 212.102 140.545 210.496 140.371 208.893ZM139.912 198.455C140.799 197.682 143.175 198.668 144.203 198.735C142.789 200.091 141.376 201.446 139.962 202.801C139.869 201.871 139.094 199.168 139.912 198.455ZM144.682 163.22C151.835 162.199 143.601 170.624 141.528 171.944C141.865 170.152 142.694 163.504 144.682 163.22ZM163.724 148.47C162.764 152.788 155.297 157.499 155.219 150.426C155.19 147.79 156.539 148.004 158.507 147.751C159.63 147.607 164.273 146.002 163.724 148.47ZM137.933 155.157C137.095 157.572 136.423 160.049 135.601 162.467C135.237 163.537 134.809 164.272 134.131 165.121C133.563 165.83 132.888 166.009 132.91 167.13C133.621 166.979 134.178 166.514 134.752 166.066C134.613 168.288 133.897 170.679 133.551 172.894C133.136 175.551 132.79 178.208 132.662 180.901C132.384 186.758 132.381 192.594 132.498 198.455C132.558 201.441 132.585 204.429 132.732 207.412C132.805 208.896 132.888 210.386 133.055 211.86C133.123 212.456 133.517 213.723 133.274 214.282C132.318 216.472 128.086 210.455 126.248 211.338C126.513 209.671 125.903 210.036 124.884 209.216C124.391 208.818 124.07 208.143 123.556 207.789C123.4 207.604 123.229 207.441 123.042 207.297C122.829 206.978 122.605 207.013 122.369 207.398C120.299 206.04 119.763 203.145 118.652 201.197C118.08 200.196 117.528 200.04 117.431 198.655C117.346 197.449 117.511 196.219 117.467 195.008C117.416 193.641 117.343 192.134 116.994 190.811C116.589 189.274 116.031 189.4 114.944 188.581C115.279 188.42 115.5 188.15 115.607 187.771C115.26 187.839 114.206 188.311 113.944 187.972C113.429 187.306 114.644 187.217 114.964 186.951C113.6 186.287 113.894 185.741 114.386 184.524C114.525 184.179 114.658 183.665 114.776 183.374C115.035 182.74 115.184 183.142 115.269 182.354C115.35 181.602 114.743 180.124 114.565 179.324C114.265 177.981 114.099 176.82 114.368 175.421C114.586 174.288 115.173 173.262 115.214 172.097C115.226 171.77 114.772 171.661 114.766 171.345C114.757 170.884 115.149 170.681 115.251 170.254C115.512 169.163 115.395 168.008 115.84 166.972C116.242 166.042 117.052 164.838 117.626 164.026C118.023 163.463 118.999 162.829 119.105 162.086C119.176 161.594 118.478 161.65 118.509 161.279C118.551 160.777 118.935 160.615 119.04 160.242C119.331 159.218 119.404 158.234 120.154 157.449C121.098 156.462 121.509 156.875 121.548 155.247C121.567 154.452 120.988 154.329 121.298 153.413C121.467 152.916 121.964 152.622 122.282 152.269C123.227 151.224 123.864 150.295 124.536 149.003C125.131 147.861 126.08 147.197 126.689 146.211C127.483 144.926 126.296 144.288 127.907 143.926C127.678 143.128 127.435 142.483 128.037 141.808C128.417 141.382 129.381 141.642 129.717 141.149C130.103 140.584 129.533 139.243 130.114 138.876C130.586 138.578 131.294 139.497 132.036 139.042C132.602 138.695 133.456 136.78 133.274 136.076C134.736 136.979 134.371 136.357 135.071 135.198C135.228 134.939 135.704 134.881 135.839 134.619C136.109 134.095 136.048 133.561 136.437 133.135C137.086 132.426 138.147 132.608 138.861 132.101C139.451 131.683 139.419 131.232 139.89 130.837C140.292 130.5 140.953 130.435 141.344 130.086C142.109 129.401 142.117 128.678 143.075 128.088C144.21 127.391 145.215 126.797 146.247 125.871C146.92 125.268 147.558 124.199 148.345 123.801C149.434 123.251 150.282 123.212 151.347 122.427C152.117 121.859 152.844 120.923 153.6 120.444C154.17 120.084 154.57 120.161 155.288 119.938C156.581 119.536 156.896 118.198 157.951 117.654C158.675 117.28 159.729 117.623 160.524 117.426C162.999 116.817 165.443 115.501 167.926 114.773C170.957 113.884 174.009 113.106 177.064 112.32C174.257 116.495 170.682 120.262 167.057 123.578C165.867 124.666 159.346 129.629 162.861 131.748C164.272 132.598 167.337 129.851 168.476 129.18C170.77 127.827 173.146 126.745 175.549 125.651C179.434 123.882 184.493 120.737 188.811 120.99C186.182 124.529 182.902 127.37 179.896 130.496C177.133 133.369 172.971 136.063 174.274 140.766C170.393 139.682 166.908 138.402 162.874 138.686C161.067 138.813 159.259 138.574 157.46 138.852C155.504 139.155 153.662 139.874 151.782 140.504C150.295 141.003 148.652 141.042 147.284 141.871C146.622 142.272 145.805 142.844 145.211 143.342C144.419 144.005 144.239 144.444 143.617 145.318C141.398 148.436 139.252 151.359 137.933 155.157ZM125.797 214.171C125.676 213.631 125.566 213.139 125.427 212.523C126.662 213.357 126.662 213.357 125.797 214.171ZM116.465 196.983C116.312 197.214 115.673 197.288 115.487 197.089C115.256 196.841 115.864 195.876 115.961 195.671C116.202 195.874 116.757 196.538 116.465 196.983ZM113.821 190.728C113.984 190.069 114.148 189.41 114.311 188.751C114.512 189.362 115.417 190.037 115.437 190.619C115.45 191.005 113.999 190.813 113.821 190.728ZM114.345 191.632C115.762 192.656 115.911 193.864 115.953 195.631C114.257 195.015 114.5 193.213 114.345 191.632ZM138.988 121.897C138.844 122.322 138.237 123.646 137.793 122.72C137.65 122.423 138.692 122.019 138.988 121.897ZM138.581 120.454C138.931 120.107 139.637 120.538 140.033 120.258C140.311 120.062 140.219 119.863 140.349 119.747C140.375 119.723 140.753 118.885 140.908 118.694C141.181 118.36 141.776 118.151 142.109 117.849C143.036 117.005 143.56 115.895 144.144 114.766C144.841 113.417 145.063 113.261 146.186 112.644C146.961 112.219 147.562 111.698 148.192 110.974C148.918 110.141 148.865 109.545 149.461 108.634C149.756 108.185 150.18 108.129 150.523 107.767C150.934 107.334 151.143 106.727 151.524 106.289C151.688 106.1 152.216 106.101 152.315 105.938C152.442 105.733 152.541 104.913 152.66 104.762C152.887 105.099 153.114 105.435 153.341 105.772C154.236 104.044 154.89 102.616 156.387 101.466C157.96 100.258 159.317 98.4904 160.943 97.4089C161.308 97.1661 162.052 97.0636 162.332 96.7054C162.803 96.0994 162.395 95.5602 162.739 95.0455C163.129 94.4619 163.886 94.9342 164.383 94.6827C165.011 94.3644 165.191 93.4344 166 93.537C163.339 96.9911 163.373 102.365 163.232 106.68C163.17 108.539 164.237 109.476 162.662 110.84C161.323 112 159.434 111.656 157.85 112.42C155.861 113.379 153.734 113.889 151.705 114.725C149.606 115.589 147.919 117.103 145.899 118.104C144.118 118.987 142.901 120.242 141.272 121.331C140.666 121.736 139.728 122.324 139.006 121.84C138.554 121.537 137.99 121.038 138.581 120.454ZM168.626 91.4919C168.741 91.0011 171.012 89.7115 171.571 89.2906C172.409 88.658 173.65 87.1134 174.586 87.727C174.91 86.3017 176.175 84.7157 177.293 84.4137C178.533 84.078 180.661 82.9109 181.881 81.8921C182.237 81.5947 182.354 81.1596 182.774 80.8805C183.504 80.3944 184.228 80.6596 184.932 79.997C185.039 79.896 186.012 78.1324 186.051 78.1493C186.101 78.3385 186.146 78.5298 186.186 78.7221C186.924 78.2727 187.582 77.9151 188.042 77.3417C188.146 77.2116 187.47 76.8734 187.683 76.6158C187.945 76.3005 188.529 76.653 188.793 76.3536C187.971 80.8326 188.583 86.5976 192.723 88.8682C187.8 89.4523 182.991 87.8276 178.006 88.8254C175.621 89.3034 173.195 90.0874 171.025 91.2919C169.695 92.03 167.995 94.6736 166.671 93.3901C167.197 92.6213 167.998 92.1438 168.626 91.4919ZM192.515 78.6063C194.356 76.1347 197.149 75.1568 199.962 76.0419C203.255 77.0785 201.866 79.6036 201.369 82.4074C200.418 80.8785 198.36 79.3618 196.607 79.3159C194.122 79.2511 195.061 81.5233 196.554 82.3375C197.91 83.0772 200.237 83.2833 201.208 84.6285C202.153 85.9375 201.791 88.078 201.943 89.6217C201.208 89.5018 200.474 89.3819 199.738 89.262C200.355 85.6595 197.641 85.485 195.11 84.4693C192.553 83.4434 190.42 81.4192 192.515 78.6063ZM200.762 69.7351V73.0785C199.739 72.4378 198.715 71.7976 197.691 71.1568C198.715 70.6829 199.739 70.209 200.762 69.7351ZM208.992 96.4504C212.411 97.4671 215.806 98.5429 219.092 99.9458C220.286 100.455 221.593 100.636 222.763 101.211C223.877 101.758 224.044 101.701 223.648 102.772C222.538 105.774 219.909 105.255 217.606 104.796C214.001 104.077 210.471 103.081 206.911 102.143C203.432 101.228 199.879 100.627 196.452 99.4796C192.935 98.3022 189.508 97.187 185.89 96.4096C184.835 96.1825 176.483 95.3418 176.547 94.3838C181.806 93.6339 187.221 94.3726 192.504 94.4506C197.995 94.5318 203.667 94.8659 208.992 96.4504ZM204.352 84.8412C204.417 82.7777 204.443 80.7076 204.677 78.6563C206.241 80.7759 207.654 81.4105 209.626 79.4236C211.515 77.5218 211.936 76.5301 214.33 78.3181C216.406 79.8689 218.369 79.7975 220.574 78.44C221.918 77.6121 224.079 74.2289 225.492 74.9252C226.165 75.2573 226.659 76.5954 227.339 77.0877C228.192 77.7044 229.504 78.1324 230.499 78.3717C232.847 78.9364 234.247 77.2785 235.721 75.5052C237.859 72.9336 237.796 74.4273 239.778 76.2102C241.989 78.1992 243.837 77.2274 245.839 75.5302C247.059 79.4516 247.515 83.7342 247.859 87.8454C247.975 89.2335 248.41 91.2046 247.274 92.1861C246.473 92.8784 244.774 92.9054 243.809 93.288C240.363 94.6557 237.051 96.5958 234.169 99.0796C233.046 100.047 232.067 101.232 230.532 101.012C229.07 100.802 227.649 99.4581 226.472 98.571C225.196 97.6089 223.904 96.5162 222.413 95.98C221.539 95.6658 220.14 95.7795 219.375 95.2036C217.954 94.1328 219.627 91.324 219.273 89.4386C219.005 88.0071 218.254 85.0223 216.458 85.8615C213.784 87.1098 215.34 91.9831 216.81 93.5043C213.803 92.9182 210.473 92.0622 207.573 90.9746C205.333 90.1344 204.271 87.3582 204.352 84.8412ZM254.788 94.8919C260.962 92.9896 266.738 91.7066 273.163 91.3602C276.007 91.2067 278.76 91.3036 281.572 91.3317C283.191 91.348 284.424 89.915 283.131 88.2668C281.341 85.9844 275.881 86.8532 273.462 86.7506C266.977 86.4757 261.032 87.2848 254.89 89.6309C255.54 88.3178 257.1 88.1474 258.169 87.4684C259.481 86.6348 260.373 85.2621 260.933 83.7383C262.391 79.7756 260.923 76.0414 259.398 72.4214C262.394 73.306 265.493 75.243 268.505 75.7348C269.137 75.8378 269.542 75.7715 270.101 76.024C270.443 76.1786 270.552 76.7137 270.977 76.8306C271.182 76.8872 271.675 76.3781 271.907 76.45C272.825 76.7346 272.099 76.8101 272.679 77.2223C273.14 77.5493 273.102 77.9702 273.947 77.8156C274.321 77.7478 274.727 77.1121 274.924 77.0948C275.176 77.0724 275.118 76.7367 275.502 76.8346C276.202 77.0132 276.14 78.0023 276.373 78.489C276.622 79.0073 276.268 79.6965 277.023 79.9801C277.587 80.1923 277.729 79.5383 278.209 79.5853C278.5 79.6138 279.105 80.0745 279.362 80.3551C280.191 81.259 281.326 82.2574 282.441 82.8456C282.331 82.7247 282.966 82.4334 282.814 82.365C282.712 82.3196 283.379 82.4961 283.369 82.4936C284.013 82.6543 284.352 83.7388 284.678 84.1342C285.276 84.8591 286.205 85.6243 287.043 85.9441C288.493 86.4976 288.449 85.836 288.978 87.7265C290.008 85.9482 290.404 88.9264 291.682 89.2544C292.344 89.4243 292.266 89.1131 292.868 89.4931C293.281 89.7538 293.556 90.5522 293.867 90.9373C294.001 90.3818 294.134 89.8257 294.268 89.2707C295.188 91.1847 297.175 94.2201 299.354 93.6712C299.354 94.1935 299.158 94.8179 299.527 95.2638C299.784 95.5755 300.201 95.2215 300.402 95.4026C300.578 95.5607 300.998 96.1902 301.133 96.2938C301.398 96.4978 301.879 96.6468 302.11 96.8503C302.313 97.0294 302.413 97.8849 302.638 98.194C303.061 98.7751 303.793 98.8904 304.139 99.5872C304.218 98.9 304.297 98.2124 304.375 97.5252C305.062 98.1073 305.121 98.5593 305.289 99.4107C305.529 100.623 305.211 100.339 305.973 100.851C306.722 101.354 307.112 101.298 307.799 102.171C308.472 103.027 308.478 103.555 309.449 102.663C309.63 103.322 309.688 104.176 310.17 104.681C310.534 105.064 312.042 105.08 312.186 105.982C309.353 103.359 311.217 107.343 312.187 105.989C312.392 107.439 313.359 107.907 314.463 108.94C315.493 109.902 315.661 109.832 316.013 111.448C316.005 111.413 316.53 111.77 316.568 111.842C315.565 111.999 317.12 113.229 317.383 113.454C317.575 113.618 317.825 113.226 318.144 113.492C318.508 113.796 318.805 114.487 319.102 114.904C319.906 116.034 320.501 117.005 321.347 117.924C322.26 118.915 322.704 120.169 323.581 121.328C324.553 122.615 325.08 124.095 325.893 125.492C326.666 126.821 327.693 127.887 328.588 129.104C330.016 131.041 330.501 135.305 333.162 135.418C333.006 135.595 333.223 136.916 333.248 137.16C333.374 138.361 333.29 139.516 333.937 140.603C334.085 139.362 334.677 139.84 335.19 140.492C336.044 141.576 335.294 141.303 335.339 142.401C335.394 143.733 335.532 142.703 335.994 143.865C336.356 144.776 336.554 145.367 336.749 146.377C335.246 146.508 334.557 145.16 334.002 143.854C333.77 143.308 333.689 142.41 333.278 141.983C332.841 141.529 332.24 141.493 331.79 140.986C330.927 140.011 330.553 138.492 329.536 137.544C328.387 136.473 328.133 135.967 327.183 134.686C326.132 133.269 324.682 132.274 323.579 130.904C322.475 129.531 322.565 130.281 321.178 129.784C319.704 129.255 317.319 124.166 315.461 126.126C315.535 124.844 313.785 123.638 312.901 123.173C312.519 122.973 312.074 123.154 311.691 122.853C311.276 122.527 311.247 121.897 310.828 121.506C310.828 121.506 310.187 121.677 310.057 121.605C309.792 121.457 309.79 120.936 309.556 120.764C308.908 120.29 308.136 119.792 307.449 119.387C305.779 118.404 304.303 117.194 302.692 116.01C301.311 114.996 299.64 113.164 298.045 112.63C296.651 112.163 295.774 112.401 294.633 111.466C294.011 110.957 294.194 110.786 293.195 110.469C292.244 110.167 291.71 110.322 291.206 109.215C290.325 107.279 290.881 103.498 290.711 101.326C290.529 99.0204 290.314 96.658 289.767 94.4165C289.119 91.7673 288.264 90.3823 285.674 91.0062C280.544 92.2438 275.476 93.4212 270.323 94.5078C260.054 96.6728 249.961 100.206 239.917 103.343C239.152 103.582 234.885 104.654 235.756 102.232C236.158 101.115 238.859 100.699 239.764 100.348C244.728 98.4195 249.714 96.455 254.788 94.8919ZM253.063 89.962C252.313 90.2757 251.563 90.5894 250.813 90.9037V88.6147C251.563 89.0636 252.313 89.5125 253.063 89.962ZM249.946 77.859C250.598 78.4436 251.923 77.0366 252.477 76.7515C253.423 76.2648 254.628 75.847 255.686 75.947C257.636 76.1322 259.062 78.2395 258.705 80.376C258.101 83.9908 253.408 85.7003 250.821 87.1134C250.737 85.8324 250.36 84.2923 251.178 83.1843C251.889 82.2222 253.267 82.2921 253.922 81.2687C255.573 78.6966 251.101 78.4635 250.101 80.5086C249.707 79.2017 249.312 77.8947 248.918 76.5877C249.87 76.4148 249.452 77.4162 249.946 77.859ZM254.562 70.7834C253.63 71.444 252.699 72.1047 251.768 72.7653C251.307 70.4783 252.88 70.1774 254.562 70.7834ZM339.403 150.381C338.183 151.02 337.879 149.494 337.002 149.428C338.037 148.73 338.037 148.73 339.403 150.381ZM344.362 183.685C344.513 185.877 344.395 188.094 344.661 190.278C344.863 191.939 345.476 193.484 345.542 195.164C345.685 198.843 344.553 202.59 342.267 205.287C340.105 207.838 337.01 210.034 334.091 211.106C332.776 211.589 331.403 212.66 330.126 213.056C328.712 213.494 327.37 212.54 326.204 214.25C325.426 206.916 325.994 199.251 325.933 191.87C325.872 184.473 325.944 177.074 324.804 169.756C323.789 163.239 321.787 155.909 318.098 150.578C316.599 148.413 314.754 146.64 312.808 144.98C311.798 144.118 310.788 143.198 309.663 142.518C307.932 141.471 306.458 141.616 304.576 141.317C301.882 140.89 299.378 140.53 296.674 141.362C294.156 142.138 291.384 143.021 289.129 144.367C286.883 145.71 284.275 146.263 281.943 147.464C280.357 148.282 277.063 151.014 275.303 150.522C273.599 150.046 271.078 146.873 269.99 145.451C268.6 143.635 267.45 141.53 266.217 139.575C265.784 138.889 264.901 137.829 264.789 136.948C264.593 135.418 265.152 135.918 266.483 136.089C269.906 136.53 273.125 137.227 276.405 138.409C278.038 138.997 281.23 141.378 282.862 139.951C285.355 137.773 281.567 134.031 280.18 132.773C277.816 130.63 275.068 129.039 272.549 127.136C269.872 125.112 266.333 122.959 264.61 119.843C269.64 121.473 274.666 123.34 279.549 125.441C281.784 126.402 283.992 127.418 286.09 128.696C287.269 129.414 289.651 131.355 291.07 130.425C294.156 128.404 287.069 122.533 286.046 121.333C284.457 119.468 282.901 117.622 281.154 115.93C279.976 114.789 278.125 113.986 277.578 112.303C279.533 113.08 281.114 114.602 282.945 115.636C283.904 116.177 284.778 116.489 285.837 116.655C286.966 116.832 287.101 117.03 287.99 117.522C288.682 117.906 289.394 118.419 290.171 118.681C290.725 118.867 291.693 118.899 292.178 119.244C292.425 119.631 292.681 120.013 292.945 120.387C293.24 120.482 293.531 120.592 293.818 120.717C294.247 121.137 294.502 121.717 294.92 122.151C297.953 125.298 302.009 127.551 305.409 130.188C308.626 132.682 312.039 134.939 315.129 137.662C318.684 140.795 322.374 144.163 325.398 147.921C327.107 150.045 328.512 152.453 329.948 154.801C330.987 156.501 332.499 157.912 333.397 159.665C335.356 163.487 336.982 167.619 339.091 171.38C341.24 175.212 344.039 179.02 344.362 183.685ZM315.461 205.863C316.047 203.211 319.353 200.113 321.465 198.943C320.4 201.834 317.564 203.805 315.461 205.863ZM320.912 215.117C319.11 219.22 311.188 219.689 312.263 213.618C312.79 210.643 315.025 208.818 316.943 206.871C317.831 205.972 320.003 202.754 321.376 203.272C321.312 205.586 321.188 207.909 321.192 210.223C321.195 211.768 321.549 213.665 320.912 215.117ZM318.622 167.833C319.353 169.634 320.081 171.135 318.725 172.747C318.113 173.474 316.119 175.066 315.217 174.712C312.321 173.579 317.842 168.643 318.622 167.833ZM301.108 151.801C301.805 151.759 302.482 151.873 303.172 151.827C303.858 151.78 303.93 151.646 304.567 151.741C304.634 151.849 304.701 151.956 304.768 152.063C304.855 152.782 305.199 152.86 305.8 152.297C306.635 152.502 307.179 152.638 307.978 153.133C305.822 154.839 303.197 156.823 300.553 157.396C296.375 158.301 297.53 152.017 301.108 151.801ZM237.055 190.175C236.621 191.131 235.375 188.741 235.067 188.296C235.642 188.294 237.493 189.209 237.055 190.175ZM270.626 164.995C273.872 162.916 277.728 161.09 281.214 159.542C281.827 162.784 278.837 166.97 276.996 169.188C275.507 170.982 273.711 172.842 271.692 173.875C269.509 174.991 267.124 174.501 267.23 171.368C267.269 170.224 267.506 168.382 267.93 167.336C268.478 165.987 269.513 165.707 270.626 164.995ZM226.744 106.025C227.228 105.994 232.476 105.249 232.448 105.966C232.366 108.12 227.271 106.429 226.744 106.025ZM189.629 147.622C192.402 143.867 196.877 139.815 196.942 134.569C197.039 126.848 189.232 130.7 185.307 131.021C187.383 128.783 197.812 119.394 191.643 116.059C189.87 115.101 187.35 116.038 185.571 116.54C182.414 117.431 179.479 118.974 176.378 120.048C178.593 117.459 182.422 114.516 182.297 110.595C182.144 105.823 178.574 106.977 175.487 107.677C174.301 107.946 169.002 110.26 168.007 108.689C167.642 108.114 168.232 107.383 168.357 106.87C168.578 105.964 168.51 105.648 168.517 104.722C168.532 102.854 169.663 100.455 168.741 98.7174C168.53 99.1123 168.349 99.5229 168.199 99.9499C167.895 98.9388 168.099 97.8665 167.795 96.8554C175.501 99.0184 183.34 100.202 191.095 102.049C195.02 102.983 198.715 104.593 202.694 105.317C206.707 106.047 210.651 107.165 214.671 107.861C218.34 108.496 221.854 109.554 225.487 110.365C229.029 111.156 232.661 109.423 236.117 108.545C243.859 106.58 251.598 104.567 259.349 102.66C268.295 100.459 277.6 98.5771 286.163 94.9062C286.329 99.7989 286.685 104.682 287.23 109.541C283.449 107.579 277.837 105.021 274.014 108.532C272.484 109.936 272.013 112.362 272.618 114.424C273.276 116.669 275.292 117.712 276.622 119.402C272.573 118.263 262.13 110.232 260.27 118.349C258.957 124.083 265.362 127.786 268.494 131.014C265.384 130.345 261.219 127.617 259.393 132.002C257.815 135.794 259.716 139.919 261.663 143.046C262.718 144.74 263.905 146.335 265.026 147.977C265.619 148.845 266.199 149.725 266.822 150.568C267.447 151.413 268.626 152.299 269.064 153.208C269.946 155.043 268.166 155.155 266.782 155.817C265.054 156.645 263.57 158.034 261.99 159.142C258.371 161.678 255.208 164.033 250.932 164.844C246.529 165.678 242.289 166.549 237.944 167.713C233.613 168.873 230.077 169.987 225.65 168.488C223.631 167.805 221.987 167.197 219.846 167.326C217.597 167.461 216.283 167.333 214.434 165.804C206.477 159.227 197.841 153.83 189.629 147.622ZM175.286 141.019C178.361 139.326 181.456 137.624 184.632 136.169C187.262 134.964 191.254 133.561 194.132 134.089C193.321 136.376 191.84 138.253 190.252 139.937C188.848 141.427 187.093 143.675 185.394 144.715C183.85 145.659 182.055 144.164 180.533 143.537C178.86 142.85 176.559 142.529 175.286 141.019ZM176.059 149.562C177.591 148.863 180.884 151.208 182.278 151.817C185.017 153.016 187.771 154.268 190.184 156.159C187.237 159.898 183.899 163.315 179.933 165.717C177.323 167.297 172.925 169.109 170.463 166.24C167.371 162.635 171.089 155.29 173.278 152.202C173.35 152.73 173.423 153.258 173.496 153.787C174.195 152.559 174.728 150.169 176.059 149.562ZM232.314 181.557C230.402 181.999 229.752 181.6 228.49 179.991C227.637 178.904 226.799 177.774 225.837 176.796C224.855 175.798 222.431 173.392 225.52 174.778C228.335 176.04 230.747 176.672 233.845 176.177C237.387 175.612 240.689 173.968 244.181 173.136C242.266 174.975 240.366 176.831 238.448 178.665C236.422 180.602 234.888 180.962 232.314 181.557ZM232.751 196.344C228.561 199.804 220.127 199.43 222.966 191.817C223.397 190.66 224.001 189.572 224.699 188.587C224.931 188.258 225.346 187.576 225.677 187.356C226.604 186.739 226.347 186.664 227.238 187.693C228.006 188.58 234.013 195.828 232.751 196.344ZM231.509 183.115C231.892 182.979 233.51 181.95 233.878 182.519C234.251 183.095 231.08 185.09 231.509 183.115ZM262.007 235.887C261.066 238.361 253.527 241.942 254.931 236.956C255.553 234.747 256.14 233.074 258.487 232.907C259.841 232.81 262.837 233.709 262.007 235.887ZM275.53 202.365C276.771 200.381 280.87 197.7 282.62 200.657C283.463 202.082 281.417 202.812 280.179 202.446C279.515 202.248 278.972 201.813 278.25 201.78C277.321 201.738 276.414 202.538 275.53 202.365ZM278.821 204.333C277.977 205.271 272.887 209.971 272.063 209.247C273.725 206.639 275.633 203.726 278.821 204.333ZM270.508 251.899C268.741 252.009 269.623 249.086 269.794 247.917C270.222 248.731 272.472 251.777 270.508 251.899ZM274.999 246.66C274.427 245.543 272.886 243.881 273.235 242.445C273.501 241.346 275.906 239.869 276.913 240.499C278.25 241.337 276.311 246.845 274.999 246.66ZM316.935 234.951C316.179 237.81 315.396 237.072 313.025 237.626C310.647 238.182 309.003 240.398 306.909 241.587C307.636 239.9 308.087 237.843 309.305 236.474C309.586 236.158 311.312 235.533 310.329 234.801C309.469 234.161 308.233 236.238 307.865 236.805C306.051 239.591 304.783 242.995 303.735 246.201C303.22 247.776 302.808 249.38 302.564 251.034C302.347 252.508 302.581 254.05 302.36 255.486C302.003 257.798 299.142 257.809 297.421 258.406C295.864 258.945 294.313 259.53 292.696 259.821C291.294 260.073 289.84 259.614 288.481 259.917C287.01 260.245 286.35 261.203 284.678 260.986C283.314 260.81 282.039 260.122 280.657 260.053C279.364 259.989 278.075 260.48 276.79 260.081C275.492 259.677 275.555 259.521 275.85 258.122C276.034 258.5 276.219 258.877 276.404 259.254C276.921 258.809 277.279 257.453 277.595 256.816C278.087 255.829 278.487 255.488 278.305 254.259C278.037 252.444 276.546 251.153 276.208 249.426C275.855 247.625 277.068 246.152 277.785 244.648C278.766 242.59 278.753 241.064 277.931 238.935C278.551 239.114 279.17 239.294 279.79 239.474C278.941 237.45 276.06 238.271 274.616 238.87C273.89 239.171 272.74 240.355 271.958 240.325C270.885 240.284 270.326 238.735 269.864 237.882C268.53 235.414 267.006 232.978 265.427 230.686C264.992 230.056 264.423 229.651 264.573 228.933C264.701 228.324 265.946 227.46 266.35 227.084C267.864 225.679 269.792 224.9 271.214 223.421C273.364 221.185 275.844 219.583 278.041 217.392C280.331 215.109 282.691 213.012 285.077 210.855C287.494 208.67 289.588 206.095 291.987 203.888C292.609 205.125 293.813 209.552 295.191 209.895C296.797 210.294 296.749 208.208 296.669 206.953C296.555 205.165 295.65 203.427 295.55 201.72C295.441 199.895 297.042 199.078 298.25 198.022C300.116 196.391 304.245 192.675 302.025 189.617C300.113 186.983 293.895 192.034 292.182 193.552C290.725 194.843 289.6 196.01 287.96 197.028C286.807 197.743 284.872 200.495 283.505 200.241C281.879 199.939 281.244 197.99 279.255 198.055C277.312 198.117 275.661 199.653 274.455 201.196C271.73 204.683 270.794 209.349 268.311 212.983C267.087 214.775 265.499 216.255 264.171 217.95C262.713 219.811 262.403 221.956 260.965 223.777C256.85 217.76 252.367 212.063 248.028 206.244C245.861 203.339 243.739 200.398 241.618 197.452C240.823 196.347 239.927 195.311 239.199 194.151C238.203 192.563 238.382 191.287 237.99 189.515C237.817 188.73 237.005 187.789 237.222 187.039C237.515 186.03 239.569 185.238 240.31 184.826C243.335 183.141 246.079 181.034 248.899 178.976C254.123 175.163 259.407 171.588 264.962 168.332C264.866 169.735 264.034 171.189 264.593 172.596C264.853 171.787 265.265 168.18 266.25 168.024C266.062 168.054 266.217 172.65 266.369 173.306C266.824 175.265 268.143 176.604 270.03 176.591C273.624 176.565 276.846 172.274 278.841 169.431C280.192 167.506 281.49 165.268 281.965 162.859C282.393 160.696 281.923 159.191 283.971 158.093C288.175 155.84 292.412 154.004 296.908 152.809C296.706 154.935 296.145 157.553 297.905 159.082C299.849 160.77 302.392 159.266 304.222 158.149C306.035 157.043 308.83 154.005 310.959 154.887C313.053 155.756 314.51 158.638 315.683 160.552C316.715 162.239 317.84 163.456 316.643 165.336C315.303 167.443 314.43 169.5 313.356 171.789C312.943 172.669 312.549 173.243 312.841 174.145C312.935 174.437 314.012 176.179 314.304 176.429C316.169 178.022 318.688 174.992 320.019 173.842C320.489 178.795 320.594 183.726 320.783 188.695C320.922 192.334 322.206 195.917 319.485 198.578C316.765 201.237 314.494 203.967 312.836 207.568C311.95 209.492 311.156 211.466 310.198 213.35C309.558 214.609 308.208 216.454 309.034 217.936C309.906 217.028 310.165 215.647 310.892 214.623C311.327 216.748 311.765 219.105 313.813 220.006C316.169 221.042 318.51 219.249 320.597 218.251C319.849 223.932 318.39 229.451 316.935 234.951ZM314.527 241.48C312.91 245.273 311.449 249.847 308.463 252.64C307.808 253.253 305.022 255.647 303.962 255.246C303.062 254.905 303.557 252.91 303.714 252.055C304.51 247.714 305.886 244.983 309.093 242.214C310.42 241.067 312.124 239.602 313.835 239.32C315.678 239.015 315.148 240.023 314.527 241.48ZM360.136 331.512C355.944 325.255 350.018 320.392 344.419 315.692C341.882 313.563 339.087 311.966 336.525 309.836C333.627 307.428 330.685 305.106 327.44 303.291C321.287 299.85 314.575 297.452 308.768 293.383C305.937 291.398 302.839 289.481 300.177 287.253C299.007 286.274 297.974 285.023 296.918 283.902C295.936 282.86 293.828 281.348 293.437 279.824C295.071 279.53 296.001 277.79 297.459 277.613C297.939 277.554 300.949 278.428 300.538 276.826C301.63 276.796 301.757 276.778 302.672 276.516C303.051 276.407 303.5 276.577 303.883 276.428C304.469 276.201 304.868 275.545 305.46 275.293C305.881 275.115 307.444 275.314 307.681 275.092C308.328 274.485 307.64 274.539 307.254 273.781C308.512 273.746 309.375 274.443 310.635 273.702C311.019 273.476 311.344 272.956 311.716 272.686C312.375 272.208 312.614 272.95 313.065 271.956C313.488 273.327 313.476 272.948 314.495 272.545C315.51 272.143 316.243 271.853 317.399 271.753C320.16 271.513 322.932 271.881 325.68 271.666C326.686 271.587 327.545 271.336 328.544 271.481C329.423 271.608 329.158 272.279 329.89 271.374C330.06 271.164 329.51 270.589 329.774 270.287C329.89 270.153 330.268 270.247 330.412 270.179C331.697 269.563 331.702 270.423 331.93 271.544C332.684 271.35 333.453 271.174 334.108 270.689C333.777 270.365 333.223 270.008 333.543 269.416C334.63 269.868 335.34 269.659 334.797 270.969C335.891 271.365 336.095 270.848 337.077 270.735C337.658 270.668 338.469 271.064 338.953 270.555C339.482 269.999 338.648 269.395 339.619 268.917C339.818 269.028 339.965 269.196 340.062 269.42C340.586 269.594 340.492 269.821 339.779 270.1C341.688 271.186 341.24 269.972 342.041 268.687C342.227 268.391 343.056 267.471 343.434 267.916C344.007 268.589 342.837 268.803 343.088 269.473C343.522 270.634 345.039 269.146 345.505 268.558C345.857 268.114 346.001 267.262 346.381 266.93C346.908 266.468 347.667 267.181 348.327 267.054C351.343 266.473 354.192 262.022 351.92 259.042C351.309 258.241 350.792 258.4 350.064 257.895C349.345 257.395 348.941 256.531 348.364 255.817C347.046 254.188 345.432 252.968 343.589 252.188C339.315 250.378 334.709 249.058 330.22 248.087C328.141 247.637 325.928 246.949 323.8 246.954C322.546 246.956 320.657 248.027 319.485 247.514C317.206 246.517 320.552 241.415 321.104 239.766C322.726 234.925 323.95 229.762 324.752 224.679C324.909 223.684 324.849 222.396 325.175 221.448C325.55 220.358 325.63 220.512 326.432 220.424C327.881 220.263 329.466 221.097 330.975 220.809C332.648 220.489 334.455 220.638 336.143 220.07C336.919 219.809 337.639 219.526 338.15 218.807C338.311 218.581 338.132 218.385 338.233 218.227C338.265 218.177 338.842 217.494 338.861 217.455C338.855 217.102 338.883 216.751 338.945 216.403C339.53 216.936 339.242 218.055 340.228 218.081C340.404 216.888 340.406 216.648 341.118 215.977C341.064 216.029 341.655 215.477 341.58 215.536C341.615 215.324 341.686 215.125 341.792 214.942C342.126 214.765 342.478 214.671 342.848 214.661C343.619 213.791 343.299 213.327 343.299 212.156C343.921 212.511 344.543 212.865 345.165 213.22C345.315 209.752 347.239 207.852 348.518 205.041C349.063 203.844 349.618 202.908 349.748 201.463C349.823 200.629 349.627 199.894 349.941 199.109C350.227 198.396 350.865 198.012 351.131 197.235C351.656 195.708 351.265 193.757 351.293 192.171C351.333 189.971 351.533 187.777 351.599 185.578C351.728 181.261 351.332 176.824 350.743 172.557C350.462 170.516 349.991 168.536 349.621 166.516C349.317 164.856 348.589 163.299 348.329 161.755C348.221 161.113 348.388 160.537 348.212 159.828C347.98 158.895 347.591 157.977 347.302 157.061C346.628 154.921 345.961 152.784 345.203 150.677C343.733 146.594 342.012 142.633 340.377 138.629C338.805 134.778 337.502 130.808 335.465 127.212C333.459 123.67 331.299 120.188 329.088 116.797C326.784 113.266 323.872 110.233 321.639 106.669C317.445 99.979 311.595 94.4659 305.476 89.9135C292.847 80.5188 279.2 71.139 264.057 67.918C261.775 67.4328 259.463 67.0961 257.137 67.0334C255.694 66.9941 253.303 67.7598 251.937 67.2237C250.406 66.6232 250.546 64.7368 250.163 63.2569C249.671 61.3546 248.559 60.1083 247.297 58.7636C245.969 57.348 244.763 55.6946 243.107 54.732C241.428 53.7571 239.447 53.3924 237.587 53.0975C235.926 52.8338 233.445 53.0802 231.928 52.2859C230.546 51.562 231.228 50.8085 232.522 51.4283C232.617 50.8019 232.693 50.3974 233.059 49.9132C233.243 49.6699 234.11 49.3286 234.131 49.1016C234.156 48.8358 233.428 48.0788 233.324 47.736C233.1 46.9978 233.228 45.9755 233.493 45.2827C234.798 46.5555 235.176 47.1192 236.632 45.9025C237.248 45.3888 237.436 45.1623 238.149 44.9032C238.342 44.8328 238.775 45.0501 238.944 44.9282C239.588 44.4629 238.995 44.5726 239.302 44.0227C239.224 44.1615 239.765 42.6999 239.739 43.0055C239.805 42.227 240.015 42.4663 239.587 41.5098C238.748 39.6386 236.612 39.5621 237.701 37.4266C238.129 36.5864 238.506 36.6701 238.627 35.4519C238.691 34.7969 238.611 34.046 238.608 33.3797C238.603 32.0172 238.837 31.0632 237.673 30.3694C236.555 29.7022 235.524 30.4342 235.07 28.7793C234.594 27.0428 235.073 24.8166 233.359 23.6275C232.107 22.7587 230.298 23.5015 228.914 23.0765C227.528 22.6511 226.252 21.0936 224.844 22.2894C223.845 23.1393 223.314 25.2288 221.429 24.0988C220.579 23.5892 220.111 21.8782 219.575 20.9186C218.72 19.3893 218.035 18.8368 216.72 20.3264C215.91 21.2451 214.2 23.4816 214.096 24.7533C213.981 26.1572 215.097 26.7439 213.696 27.5744C212.302 28.4008 211.52 27.7948 210.389 29.4721C209.267 31.1362 210.135 32.0554 208.835 33.6476C207.21 35.6376 206.345 36.4967 206.368 39.1779C206.384 41.017 204.903 42.6055 205.767 44.3502C206.735 46.3056 209.56 47.1187 211.273 47.9145C210.701 49.0741 209.917 49.8173 210.584 51.011C211.189 52.092 212.898 52.3165 213.957 52.1201C214.67 51.9885 214.695 52.1068 215.256 51.5569C215.624 51.1967 215.12 50.7473 215.876 50.5478C216.682 50.3346 217.968 52.067 218.491 52.5001C217.322 54.1647 214.112 54.4759 212.414 55.3197C211.379 55.8344 210.428 56.5955 209.375 57.0556C208.419 57.4729 207.255 57.376 206.389 58.0218C204.892 59.137 204.269 61.8999 203.352 63.5242C202.313 65.3627 201.306 66.2167 199.314 66.5982C196.828 67.0742 194.826 67.2655 192.508 68.4536C189.678 69.9044 186.887 71.4364 184.107 73.0005C179.623 75.5231 175.457 78.1125 171.293 81.1636C166.936 84.3561 162.699 87.6883 158.496 91.0241C154.338 94.3231 150.847 98.3817 147.236 102.372C144.316 105.597 141.755 109.078 138.846 112.302C135.413 116.109 132.888 120.914 129.705 124.953C127.963 127.162 126.297 129.335 125.204 131.937C124.318 134.047 122.778 136.118 121.75 138.331C120.436 141.161 119.193 143.946 117.718 146.682C117.112 147.805 116.393 148.769 115.754 149.841C114.936 151.213 114.984 152.539 114.764 154.122C114.534 153.736 114.305 153.349 114.075 152.964C113.658 153.963 113.155 154.945 112.794 155.968C112.563 156.62 112.6 157.547 112.368 158.118C112.078 158.834 111.725 158.739 111.363 159.336C110.976 159.974 110.851 160.832 110.444 161.516C108.681 164.475 108.003 168.23 107.097 171.606C105.882 176.135 106.074 181.341 106.14 186.011C106.21 190.944 106.456 195.877 107.132 200.758C107.744 205.179 109.053 209.418 111.102 213.294C112.887 216.672 115.349 218.64 118.503 220.37C119.951 221.164 121.295 220.918 122.815 221.045C124.48 221.184 125.615 221.681 127.377 221.244C128.222 221.034 128.622 220.359 129.294 220.134C129.709 219.995 129.933 220.222 130.332 220.169C130.903 220.093 132.09 219.786 132.709 219.86C134.635 220.09 134.312 223.286 134.502 224.918C134.793 227.432 135.007 229.972 135.4 232.47C136.227 237.723 138.013 242.631 139.068 247.793C134.177 248.448 129.981 249.45 125.397 251.482C120.797 253.52 116.147 254.212 111.307 255.225C106.779 256.173 102.423 257.944 98.7988 261.153C97.0998 262.656 95.335 264.416 96.5825 266.891C97.3804 268.475 98.8183 268.877 100.06 269.798C100.311 269.449 99.5851 268.711 99.4522 268.506C100.496 268.742 100.464 269.276 101.226 269.741C101.892 270.148 102.437 270.134 103.166 270.421C104.947 271.123 105.821 272.874 107.581 273.366C108.134 273.521 108.858 273.89 109.425 273.995C110.105 274.122 110.614 273.795 111.303 273.933C111.675 274.202 112.077 274.394 112.509 274.51C112.793 274.365 113.073 274.213 113.349 274.052C114.339 274.165 114.951 274.848 115.755 275.41C115.809 274.703 115.731 273.967 116.342 273.506C116.58 274.194 116.195 274.63 116.845 275.103C117.669 275.703 118.751 274.954 119.489 274.574C119.697 276.861 124.522 276.727 126.051 276.694C128.169 276.649 130.284 275.727 132.421 276.242C133.511 276.504 134.674 276.778 135.759 277.119C137.066 277.528 138.645 277.894 139.931 278.411C140.443 278.617 141.069 279.275 141.613 279.231C142.047 279.195 142.163 278.494 142.667 278.514C143.238 278.537 143.43 279.235 143.924 279.445C144.663 279.758 145.343 279.162 146.046 279.463C146.299 279.571 146.641 280.036 146.964 280.188C147.455 280.417 148.426 280.42 148.972 280.531C149.747 280.688 150.44 280.582 151.103 280.634C151.638 280.677 151.627 281.072 151.883 281.097C152.176 281.126 152.688 280.018 153.082 279.856C153.656 279.619 154.699 280.183 155.285 280.282C151.041 286.596 145.923 292.176 140.377 297.062C134.393 302.334 128.266 307.598 121.85 312.221C116.025 316.419 110.386 320.05 105.869 325.975C102.061 330.972 95.9982 336.318 96.9326 343.561C97.8666 350.797 105.026 353.742 110.763 355.123C117.978 356.861 125.405 356.162 132.64 357.138C135.725 357.555 139.153 357.333 142.259 356.978C145.927 356.558 149.07 353.931 152.224 352.031C157.896 348.614 162.746 344.042 168.333 340.518C175.328 336.105 182.25 331.43 189.92 328.474C193.487 327.1 197.161 325.53 200.039 322.703C200.467 322.282 200.786 321.647 201.27 321.3C202.093 320.711 202.313 321.308 202.791 321.129C203.158 320.992 203.514 320.557 203.831 320.426C204.636 320.095 204.995 320.232 205.896 320.232C205.123 319.742 204.415 318.481 205.218 317.453C206.592 315.692 206.829 318.506 207.345 319.158C207.783 318.541 207.615 317.991 207.503 317.29C207.873 317.558 208.243 317.825 208.613 318.094C208.358 316.736 208.601 315.486 209.256 314.303C209.86 313.213 210.009 313.366 210.176 311.855C212.053 313.736 212.42 309.171 212.589 307.507C212.752 305.894 212.591 304.735 213.558 303.324C214.596 301.809 216.174 300.852 217.492 299.675C219.574 297.815 221.864 295.466 224.742 297.25C227.015 298.658 228.251 302.11 230.383 303.884C231.676 304.96 233.041 305.069 233.866 306.738C234.532 308.086 234.749 309.701 235.378 311.086C236.902 314.443 239.097 318.285 241.6 320.86C243.93 323.257 246.922 323.245 249.648 324.732C252.348 326.204 255.152 327.798 258.01 328.865C261.131 330.03 264.496 330.526 267.534 331.937C269.097 332.664 270.495 333.757 272.071 334.452C273.772 335.202 275.563 335.73 277.286 336.417C284.113 339.138 290.794 342.476 297.966 343.984C301.147 344.653 304.092 346.47 307.296 346.853C308.67 347.017 309.791 347.225 311.136 347.602C313.246 348.194 312.799 348.509 313.577 350.44C314.855 353.618 317.978 351.736 320.385 351.816C324.238 351.943 328.033 351.26 331.88 351.227C338.608 351.17 345.086 350.338 351.594 347.914C358.128 345.48 365.566 339.615 360.136 331.512Z" fill="black"/>
<path fill-rule="evenodd" clip-rule="evenodd" d="M282.368 83.155C282.46 83.2562 282.676 83.3175 282.368 83.155V83.155Z" fill="black"/>
<path fill-rule="evenodd" clip-rule="evenodd" d="M163.861 218.54C165.323 216.915 171.54 217.243 172.01 220.151C172.534 223.396 166.978 228.297 164.945 229.671C162.329 231.44 159.136 231.771 159.6 227.331C159.95 223.977 161.781 220.854 163.861 218.54ZM168.996 215.195C169.185 216.093 167.788 215.788 167.403 215.574C167.222 215.166 168.806 214.292 168.996 215.195ZM158.275 221.145C159.515 221.268 160.935 219.084 161.871 218.341C162.285 219.042 159.558 222.898 159.258 223.778C158.509 225.976 158.092 228.753 159.113 230.946C162.098 237.353 169.738 228.203 171.648 225.007C172.985 222.772 173.911 220 172.023 217.81C171.35 217.029 170.24 216.813 169.615 216.071C168.793 215.096 169.44 213.837 167.787 214.05C166.647 214.197 165.278 215.326 164.169 215.735C162.832 216.227 161.631 216.737 160.465 217.649C160.202 217.855 156.743 220.994 158.275 221.145Z" fill="black"/>
<path fill-rule="evenodd" clip-rule="evenodd" d="M245.915 223.296C245.136 227.698 241.161 232.214 236.979 232.39C232.814 232.564 231.466 227.775 232.201 223.958C232.828 220.702 235.392 215.046 239.049 215.669C241.925 216.159 246.583 219.522 245.915 223.296ZM243.263 215.938C240.623 213.696 236.974 212.658 233.913 214.437C232.91 215.021 228.904 217.594 230.123 219.336C231.767 217.938 233.186 215.998 235.321 215.533C234.962 217.35 232.911 218.985 232.188 220.754C231.343 222.822 230.881 225.188 231.019 227.459C231.266 231.503 233.733 234.644 237.553 234.088C241.051 233.58 244.108 230.637 245.777 227.33C248.005 222.913 246.75 218.899 243.263 215.938Z" fill="black"/>
<path fill-rule="evenodd" clip-rule="evenodd" d="M218.74 233.303C216.86 236.359 213.993 239.233 210.678 240.176C206.387 241.398 207.593 237.506 208.875 234.712C210.009 232.243 211.954 227.995 214.916 228.018C215.922 228.025 217.794 228.558 218.675 229.148C220.412 230.312 219.73 231.695 218.74 233.303ZM214.735 226.588C215.41 225.763 218.398 222.227 218.798 224.983C219.656 223.891 218.979 222.986 217.881 222.87C216.556 222.731 215.107 224.351 214.151 225.155C212.183 226.811 210.668 228.506 209.364 230.826C207.926 233.385 204.26 239.167 207.468 241.706C210.937 244.45 215.985 239.382 218.156 236.769C219.545 235.097 221.385 232.642 220.856 230.19C220.208 227.179 217.017 226.863 214.735 226.588Z" fill="black"/>
<path fill-rule="evenodd" clip-rule="evenodd" d="M199.937 177.347C197.996 179.777 194.054 183.318 190.806 182.901C187.843 182.52 189 178.87 190.048 177.104C191.623 174.45 193.733 171.957 196.783 171.812C198.099 171.75 199.805 171.779 200.824 172.873C202.216 174.367 200.963 176.063 199.937 177.347ZM199.731 170.595C197.458 169.732 196.564 169.404 194.355 170.775C192.581 171.875 191.007 173.431 189.789 175.197C187.967 177.841 186.13 183.788 190.809 184.532C195.941 185.348 208.149 173.789 199.731 170.595Z" fill="black"/>
<path fill-rule="evenodd" clip-rule="evenodd" d="M206.726 185.768C205.25 187.423 203.407 188.774 201.303 189.234C202.193 187.055 204.18 182.293 206.536 181.63C207.622 181.324 208.859 181.725 208.77 183.082C208.705 184.063 207.308 185.115 206.726 185.768ZM208.627 180.007C207.404 179.334 207.79 178.875 206.367 179.402C205.247 179.818 203.833 180.539 202.9 181.37C202.39 181.823 200.805 183.43 200.999 184.248C201.351 185.734 202.533 183.457 202.844 183.019C203.377 183.495 200.653 187.774 200.49 188.478C199.886 191.1 201.761 191.377 203.599 190.519C206.078 189.363 213.417 182.641 208.627 180.007Z" fill="black"/>
<path fill-rule="evenodd" clip-rule="evenodd" d="M244.964 250.562C245.147 248.824 245.407 246.986 246.861 246.01C248.17 245.129 249.527 245.257 249.721 247.062C249.901 248.737 248.405 251.714 247.195 252.628C245.51 253.901 245.185 252.314 244.964 250.562ZM247.129 254.517C250.588 252.295 252.769 242.106 246.392 244.962C242.768 246.585 244.101 256.462 247.129 254.517Z" fill="black"/>
<path fill-rule="evenodd" clip-rule="evenodd" d="M217.583 212.264C218.128 211.037 218.752 210.63 219.859 210.093C219.121 210.857 218.367 211.563 217.583 212.264ZM218.381 209.24C217.598 210.103 215.802 211.418 216.053 212.901C216.283 214.253 217.224 214.176 218.078 213.754C219.869 212.871 220.865 209.003 222.738 208.64C220.661 207.195 220.176 207.263 218.381 209.24Z" fill="black"/>
<path fill-rule="evenodd" clip-rule="evenodd" d="M218.656 132.426C218.756 136.545 218.844 140.663 218.926 144.782C218.955 146.23 218.641 148.294 219.036 149.68C219.211 150.291 220.792 152.939 221.353 153.11C223.315 153.709 222.614 148.31 222.627 146.981C222.675 142.496 222.615 138.006 222.599 133.52C222.589 131.209 223.184 111.827 220.452 111.922C219.981 111.939 218.821 114.155 218.646 114.599C218.098 115.994 218.3 118.062 218.312 119.549C218.349 123.839 218.552 128.136 218.656 132.426Z" fill="black"/>
<path fill-rule="evenodd" clip-rule="evenodd" d="M235.202 144.433C235.356 145.571 235.275 147.471 236.443 148.061C237.459 148.574 237.849 147.964 238.229 147.009C239.103 144.814 238.787 141.458 238.771 139.188C238.739 134.69 238.278 130.21 237.959 125.729C237.818 123.763 238.11 121.788 237.886 119.73C237.787 118.827 237.689 115.195 236.164 115.364C234.785 115.517 234.91 119.324 234.835 120.304C234.209 128.47 234.101 136.282 235.202 144.433Z" fill="black"/>
<path fill-rule="evenodd" clip-rule="evenodd" d="M300.288 238.197C299.703 241.476 290.168 252.896 287.767 246.509C286.343 242.72 289.43 238.594 291.838 236.401C293.328 235.043 295.19 233.711 297.221 234.123C298.945 234.472 300.659 236.114 300.288 238.197ZM295.364 232.315C294.69 232.489 289.061 236.828 289.009 236.771C288.521 236.232 292.071 230.424 292.437 229.916C295.447 225.73 297.444 228.899 299.327 232.189C298.926 230.224 297.823 227.371 295.98 226.54C293.653 225.491 291.838 228.081 290.719 229.943C289.136 232.574 288.264 235.432 287.385 238.401C286.965 239.818 286.488 241.102 285.778 242.378C285.077 243.639 283.851 245.028 284.032 246.622C285.028 246.014 285.557 244.824 286.185 243.844C286.885 244.155 286.644 246.606 286.787 247.23C287.144 248.797 288.12 250.024 289.629 250.293C292.442 250.796 295.478 247.939 297.359 245.999C299.341 243.955 301.474 241.153 301.457 238.007C301.439 234.72 298.494 231.502 295.364 232.315Z" fill="black"/>
<path fill-rule="evenodd" clip-rule="evenodd" d="M302.99 179.621C301.394 182.302 298.593 185.516 295.63 186.138C293.455 186.595 292.021 184.826 292.894 182.438C293.632 180.419 296.147 179.145 297.795 178.257C299.103 177.552 305.198 175.912 302.99 179.621ZM301.816 175.237C298.547 175.101 295.91 177.695 293.472 179.765C294.023 177.387 295.268 174.8 297.021 173.252C299.408 171.145 301.67 172.453 304.182 173.507C303.562 171.36 300.78 170.588 299.008 170.891C296.767 171.275 295.156 173.375 294.023 175.406C292.671 177.829 292.208 180.685 290.617 182.958C289.889 183.998 285.378 187.891 286.4 189.482C288.084 187.519 289.77 185.556 291.454 183.593C291.891 185.913 292.373 188.555 295.072 188.329C297.227 188.149 299.685 186.138 301.261 184.601C303.296 182.616 307.302 175.464 301.816 175.237Z" fill="black"/>
<path fill-rule="evenodd" clip-rule="evenodd" d="M256.021 198.127C254.636 198.825 251.588 199.775 250.814 197.676C249.738 194.759 253.199 189.644 254.846 187.701C255.86 186.505 256.547 185.887 257.96 186.661C259.088 187.279 260.745 189.034 261.178 190.384C262.107 193.282 258.187 197.033 256.021 198.127ZM259.198 184.12C260.326 184.399 260.464 185.971 259.054 185.368C257.997 184.916 257.752 183.763 259.198 184.12ZM260.614 186.334C260.193 184.924 261.05 182.713 258.976 182.611C257.801 182.554 255.648 183.865 254.622 184.398C253.2 185.137 251.862 186.264 251.119 187.852C250.431 189.323 250.922 189.711 251.971 188.49C252.099 188.586 249.599 195.661 249.577 196.37C249.48 199.61 251.569 201.744 254.504 201.17C257.202 200.642 259.633 198.221 261.117 195.777C261.868 194.54 262.485 193.125 262.541 191.61C262.628 189.286 261.216 188.352 260.614 186.334Z" fill="black"/>
<path fill-rule="evenodd" clip-rule="evenodd" d="M273.552 185.146C272.414 182.74 275.052 178.692 277.413 179.876C282.329 182.342 275.046 188.3 273.552 185.146ZM277.969 182.006C277.441 182.029 274.106 183.443 274.597 184.401C275.27 185.717 277.705 182.535 277.969 182.006Z" fill="black"/>
<path fill-rule="evenodd" clip-rule="evenodd" d="M116.712 177.559C116.58 176.535 114.488 178.022 114.5 178.682C114.846 177.922 116.987 179.695 116.712 177.559Z" fill="black"/>
<path fill-rule="evenodd" clip-rule="evenodd" d="M231.149 100.138C233.813 99.9234 230.419 85.1731 228.478 86.4775C226.373 87.8913 228.705 100.335 231.149 100.138Z" fill="black"/>
<path fill-rule="evenodd" clip-rule="evenodd" d="M236.124 93.2507C238.62 93.643 238.224 87.3531 236.881 86.2275C234.403 84.1495 233.094 92.7742 236.124 93.2507Z" fill="black"/>
</g>
<defs>
<clipPath id="clip0_29_191">
<rect width="458" height="377" fill="white"/>
</clipPath>
</defs>
</svg>
