<svg width="370" height="277" viewBox="0 0 370 277" fill="none" xmlns="http://www.w3.org/2000/svg">
<path d="M61.5 220L75.5 217L79.5 218.5C79.3333 220 78.9 223.3 78.5 224.5C78.1 225.7 78.3333 229 78.5 230.5L70 231.5L62 229L61.5 220Z" fill="white" stroke="black"/>
<path d="M46.5 208.5C46.5 208 42 205 40 204L40.5 203.5C41 202.167 42.1 199.4 42.5 199C43 198.5 48 199 48.5 199.5C49 200 51.5 201 52 201.5C52.5 202 54 205.5 54 206C54 206.5 55 209.5 55 210.5C55 211.5 54.5 215 54 216C53.5 217 56.5 217 57 217.5C57.4 217.9 58.5 220.333 59 221.5C56.8333 222.5 52.3 224.5 51.5 224.5C50.7 224.5 47.8333 223.833 46.5 223.5C45.5 220.833 43.4 215.1 43 213.5C42.5 211.5 46.5 209 46.5 208.5Z" fill="white"/>
<path d="M155 210.5C152 210.5 153.5 201.5 152.5 200.5C158.5 200.167 170.7 199.5 171.5 199.5C172.5 199.5 172 211.5 171.5 212C171 212.5 158 210.5 155 210.5Z" fill="white"/>
<path d="M326.5 66.5C326.9 66.1 331.667 56 334 51L338 50C339.667 50 343 50.1 343 50.5V53.5V59.5C343 61 341 65 341 66.5C341 68 338 72 337.5 73.5C337 75 335 81 334 83C333 85 331 89.5 330.5 91C330.1 92.2 331 93.5 331.5 94C332.833 95.3333 335.5 98.1 335.5 98.5V101.5C335 102.5 334 104.6 334 105C334 105.4 330.667 104.167 329 103.5C328.167 104.333 326.5 106.1 326.5 106.5C326.5 107 325.5 113 325 113.5C324.6 113.9 323.833 119 323.5 121.5C321 122.333 315.7 124 314.5 124C313 124 301.5 124.5 300.5 124C299.7 123.6 300.167 120.833 300.5 119.5L305 113.5L303 111C301 110 297 107.9 297 107.5C297 107.1 296 103.333 295.5 101.5L294 96L291 94L290.5 90L293.5 87.5L297 85L298.5 77V70.5C305.667 72.6667 320.2 77 321 77C322 77 326 67 326.5 66.5Z" fill="white"/>
<path d="M46.5 208.5C46.5 208 42 205 40 204L40.5 203.5C41 202.167 42.1 199.4 42.5 199C43 198.5 48 199 48.5 199.5C49 200 51.5 201 52 201.5C52.5 202 54 205.5 54 206C54 206.5 55 209.5 55 210.5C55 211.5 54.5 215 54 216C53.5 217 56.5 217 57 217.5C57.4 217.9 58.5 220.333 59 221.5C56.8333 222.5 52.3 224.5 51.5 224.5C50.7 224.5 47.8333 223.833 46.5 223.5C45.5 220.833 43.4 215.1 43 213.5C42.5 211.5 46.5 209 46.5 208.5Z" stroke="black"/>
<path d="M155 210.5C152 210.5 153.5 201.5 152.5 200.5C158.5 200.167 170.7 199.5 171.5 199.5C172.5 199.5 172 211.5 171.5 212C171 212.5 158 210.5 155 210.5Z" stroke="black"/>
<path d="M326.5 66.5C326.9 66.1 331.667 56 334 51L338 50C339.667 50 343 50.1 343 50.5V53.5V59.5C343 61 341 65 341 66.5C341 68 338 72 337.5 73.5C337 75 335 81 334 83C333 85 331 89.5 330.5 91C330.1 92.2 331 93.5 331.5 94C332.833 95.3333 335.5 98.1 335.5 98.5V101.5C335 102.5 334 104.6 334 105C334 105.4 330.667 104.167 329 103.5C328.167 104.333 326.5 106.1 326.5 106.5C326.5 107 325.5 113 325 113.5C324.6 113.9 323.833 119 323.5 121.5C321 122.333 315.7 124 314.5 124C313 124 301.5 124.5 300.5 124C299.7 123.6 300.167 120.833 300.5 119.5L305 113.5L303 111C301 110 297 107.9 297 107.5C297 107.1 296 103.333 295.5 101.5L294 96L291 94L290.5 90L293.5 87.5L297 85L298.5 77V70.5C305.667 72.6667 320.2 77 321 77C322 77 326 67 326.5 66.5Z" stroke="black"/>
<path d="M181.5 99C184.167 94.3333 189.4 84.8 189 84C188 83.1666 185.8 81.4 185 81C184 80.5 180.5 78 179.5 77.5C178.7 77.1 173.833 71.3333 171.5 68.5C167 65.3333 157.6 58.7 156 57.5C154 56 147 52.5 146.5 52C146 51.5 140.5 48.5 140 48C139.5 47.5 132 47 128.5 47C125 47 123 48 121.5 48.5C120 49 113 51.5 111.5 52C110 52.5 112 54.5 112 55.5C112 56.3 114.667 58.1667 116 59C117.5 59.6667 120.7 61.1 121.5 61.5C122.3 61.9 122.833 63.6667 123 64.5C121.333 65.5 117.8 67.6 117 68C116 68.5 114 71 113.5 71.5C113 72 112.5 75 112 75.5C111.5 76 118.5 76.5 120 76.5C121.5 76.5 124.5 75.5 126.5 75.5C128.1 75.5 129.5 76.8333 130 77.5C128.667 78.6667 125.7 81.3 124.5 82.5C123.3 83.7 124 85.3333 124.5 86C126 86.1667 129.5 86.5 131.5 86.5C133.5 86.5 136.667 84.5 138 83.5L150 79.5C151.5 79 151.5 81.5 152.5 83C153.5 84.5 158.5 88 159 89C159.5 90 169 95 172.5 96.5C175.3 97.7 179.667 98.6666 181.5 99Z" fill="white" stroke="black"/>
<path d="M139 227.5C138 227.5 134.5 219.5 133.5 217.5L140.5 214.5C143.5 214.667 150.2 214.9 153 214.5C155.8 214.1 161.5 214.333 164 214.5C165.333 216.5 167.8 220.8 167 222C166 223.5 152 228.5 151 229C150 229.5 140 227.5 139 227.5Z" fill="white" stroke="black"/>
<path d="M257 231L277.5 227.5L277 222C277 220.167 276.9 216.4 276.5 216C276.1 215.6 275.333 211.5 275 209.5L271.5 205.5H260.5L245 208L232 210.5C226.667 212 215.8 215.1 215 215.5C214 216 198 221 196 222.5C194 224 188.5 228 188.5 228.5C188.5 228.9 192.5 229.667 194.5 230L200.5 229.5L207 228.5H213C212.5 230.167 211.3 233.7 210.5 234.5C209.7 235.3 211.833 235.5 213 235.5L221 234.5L218 239.5C218.333 240.5 219 242.6 219 243C219 243.4 227 240.833 231 239.5L257 231Z" fill="white" stroke="black"/>
<path fill-rule="evenodd" clip-rule="evenodd" d="M188.584 117.16C202.085 116.088 214.966 121.11 225.756 128.938C239.664 139.026 251.452 153.454 259.43 168.657C260.279 169.309 261.115 169.978 261.946 170.654C266.386 174.265 270.725 178.079 274.57 182.324C276.717 184.694 282.349 190.456 279.904 194.09C279.385 194.862 278.533 195.305 277.68 195.611C275.287 196.466 272.793 196.899 270.433 197.899C267.52 199.134 264.499 200.863 262.633 203.499C262.102 204.249 261.964 205.134 261.25 205.464C260.493 205.815 259.067 205.678 258.24 205.759C256.577 205.922 254.915 206.085 253.252 206.247C249.345 206.629 245.262 206.671 241.441 207.613L223.861 211.946C220.265 212.832 216.133 213.321 212.723 214.777C207.635 216.951 202.78 220.133 197.911 222.756C195.557 224.024 193.203 225.293 190.849 226.561C189.699 227.181 188.912 227.189 187.564 227.292L177.841 228.039C176.273 228.16 175.52 228.79 175.314 227.223L173.054 209.998L171.859 200.889C171.788 200.348 171.809 197.664 171.364 197.34C171.085 197.137 169.449 197.574 169.146 197.612L164.732 198.151C161.554 198.54 158.376 198.928 155.197 199.317C154.939 199.348 153.51 199.332 153.35 199.542C153.162 199.789 153.519 201.205 153.551 201.51C153.888 204.709 154.226 207.907 154.563 211.106C154.602 211.476 155.054 213.196 154.816 213.501C154.65 213.712 153.453 213.738 153.21 213.778C150.143 214.277 147.078 214.777 144.011 215.277C141.816 215.634 138.946 215.616 136.87 216.44C135.678 216.914 134.499 218.124 133.469 218.88L118.515 229.864C116.247 231.53 113.19 231.106 110.428 231.315L78.5673 233.738C78.5936 232.748 78.6204 231.758 78.6467 230.767C78.7869 225.521 78.9268 220.275 79.067 215.029L79.2505 208.167C79.2621 207.733 79.0883 206.462 79.3727 206.141C79.7506 205.715 81.4398 205.531 81.9641 205.376C83.7227 204.856 85.4809 204.336 87.2391 203.817C92.3978 202.293 97.5558 200.769 102.714 199.245C107.812 197.739 112.91 196.232 118.008 194.726C119.753 194.21 121.497 193.695 123.241 193.18C123.644 193.061 125.051 192.902 125.331 192.562C125.684 192.134 125.526 190.305 125.583 189.762C125.859 187.112 126.254 184.473 126.734 181.852C130.2 162.946 138.301 143.742 153.321 131.129C163.25 122.792 175.704 118.183 188.584 117.16ZM190.965 155.073C189.629 153.507 187.383 150.951 185.022 151.375C183.103 151.72 182.057 154.095 181.389 155.674C178.7 162.019 177.866 169.292 177.03 176.073C176.505 180.328 176.083 184.601 175.813 188.88C185.391 188.145 194.968 187.409 204.545 186.674C204.093 183.627 203.731 180.553 203.187 177.522C202.914 176.002 202.16 174.634 201.515 173.23C198.63 166.952 195.481 160.365 190.965 155.073Z" fill="#FF788F"/>
<path fill-rule="evenodd" clip-rule="evenodd" d="M323.914 31.3793L324.148 31.3833C330.504 31.5521 336.109 35.6346 340.456 39.9552C342.606 42.0915 344.566 44.6043 345.488 47.5283C346.554 50.9061 346.203 54.6214 345.393 58.0114C343.602 65.503 341.414 73.0332 338.953 80.3344C337.743 83.926 335.987 87.4477 335.073 91.1237C334.32 94.1523 337.492 96.3582 337.614 99.4705C337.736 102.61 335.62 105.56 332.712 106.682C331.473 107.16 329.975 106.76 328.833 107.25C327.789 107.698 327.423 109.019 327.222 110.033C326.949 111.416 326.998 112.799 327.076 114.194C327.124 115.048 326.911 116.441 327.328 117.202C327.615 117.725 328.137 117.896 328.586 118.254C329.2 118.743 329.609 119.35 330.148 119.912C331.035 120.838 331.889 121.339 332.13 122.691C332.258 122.384 332.387 122.077 332.514 121.77C333.176 122.978 333.666 123.557 333.037 124.704C334.989 124.513 336.145 128.047 336.657 129.387C337.594 131.839 338.237 134.388 339.176 136.842C340.463 140.207 342.154 143.527 342.976 147.048C343.665 150.007 344.211 153.046 344.825 156.025C345.17 157.703 345.471 159.407 346.103 161.007C346.349 161.628 346.805 162.046 347.087 162.599C347.473 163.357 347.322 163.758 347.341 164.587C347.373 166.067 348.309 167.027 348.603 168.465C348.917 170 349.173 171.553 349.49 173.092C350.129 176.191 351.311 179.286 351.596 182.425C351.926 186.071 352.636 189.671 352.992 193.318C353.305 196.504 352.774 199.924 353.441 203.007C354.032 205.743 353.299 208.244 353.038 210.96C352.972 211.65 354.036 215.756 352.326 214.968C352.647 215.936 353.098 216.397 353.122 217.459C353.144 218.452 352.888 219.473 352.678 220.436C352.273 222.297 352.004 224.326 351.211 226.069C350.315 228.041 348.948 228.278 347.091 228.954C345.834 229.412 343.57 231.047 342.579 229.298C341.988 231.093 340.835 229.853 339.542 229.752C339.551 229.753 338.802 230.029 338.662 230.048C338.207 230.109 337.67 229.895 337.218 229.858C336.09 229.764 334.983 229.915 333.88 230.143C331.338 230.669 328.879 231.396 326.3 231.762C321.261 232.478 316.323 232.139 311.277 232.453C301.402 233.066 291.364 232.551 281.481 232.286C280.42 232.257 279.277 232.406 278.23 232.243C277.102 232.067 276.855 231.534 275.976 231C274.515 230.114 272.893 230.976 271.377 231.3C266.925 232.251 262.277 232.322 257.79 233.242C248.673 235.11 240.274 238.798 231.542 241.909C227.756 243.258 223.313 245.442 219.231 245.538C214.283 245.643 215.452 240.779 216.361 237.652C213.502 238.41 209.014 241.871 206.108 239.862C202.646 237.469 207.051 233.49 207.259 230.677C201.07 231.959 194.05 234.771 187.769 232.485C186.56 232.045 185.509 231.115 184.211 230.964C182.862 230.807 181.436 231.283 180.073 231.275C176.966 231.255 173.949 230.842 170.844 231.224C163.92 232.075 157.094 232.541 150.114 232.725C143.086 232.909 136.059 233.325 129.029 233.308C125.46 233.299 121.826 232.876 118.264 233.066C116.866 233.14 113.856 234.154 112.874 232.735C111.888 233.916 111.05 233.127 109.784 233.258C110.019 233.234 109.125 233.749 108.991 233.799C108.326 234.046 107.704 233.971 107.009 233.964C105.159 233.945 103.431 234.809 101.59 234.725C101.125 234.705 100.773 234.569 100.378 234.41C100.285 234.372 100.307 233.97 100.157 233.937C99.2566 233.735 99.4893 234.286 98.9177 234.564C98.2839 234.871 97.3463 234.373 97.7069 235.319C95.9873 235.244 94.3581 235.822 92.7935 234.804C93.5332 236.436 90.9493 235.081 90.274 235.054C89.1517 235.009 88.1689 235.569 87.0495 235.698C85.7072 235.853 84.3583 235.231 83.0449 235.611C82.0158 235.907 81.6635 236.622 80.5925 236.257C79.6827 235.946 79.1144 235.272 78.6728 234.535C78.0636 233.519 77.9856 233.065 76.5164 233.047C75.427 233.034 74.3318 233.268 73.2319 233.265C71.9716 233.263 70.5867 233.129 69.4362 233.727C68.1968 234.372 67.4688 235.352 66.0943 235.857C59.9134 238.126 53.1284 237.525 46.6794 237.486C43.9586 237.47 41.9619 237.72 41.198 234.622C40.5527 232.005 40.294 229.267 39.6783 226.628C38.9238 223.395 38.0946 220.395 36.4206 217.504C34.7967 214.7 33.4306 211.804 32.0167 208.892C29.0762 202.836 24.9831 197.683 20.4195 192.761C18.6858 190.891 16.6989 188.807 16.6158 186.115C16.5591 183.789 17.5852 181.38 18.9312 179.528C20.133 177.874 22.113 176.009 24.3529 176.395C25.7018 176.627 26.5859 177.713 27.5926 178.528C28.6928 179.418 29.8914 180.025 31.2174 180.51C34.3097 181.642 36.9029 182.881 39.5807 184.836C42.2903 186.813 44.8232 189.028 47.1665 191.426C51.6646 196.03 56.2737 200.813 58.8583 206.774C59.8769 209.123 60.5276 211.388 61.2221 213.824C61.9043 216.215 63.7615 215.556 65.85 215.212C68.3952 214.793 70.953 214.568 73.5152 214.303C74.4796 214.203 75.8393 214.173 76.4199 213.264C77.0602 212.261 76.3267 210.961 76.2685 209.921C76.2375 209.365 76.4221 208.955 76.4683 208.413C76.5215 207.797 76.339 207.234 76.3383 206.62C76.3375 205.3 76.9565 204.124 77.9852 203.324C79.91 201.827 82.7175 200.935 84.9964 200.112C88.1078 198.987 91.4418 198.435 94.646 197.632C98.2539 196.728 101.883 195.914 105.511 195.093C109.075 194.286 112.634 193.457 116.236 192.836C118.349 192.471 120.641 192.605 122.69 191.939C124.867 191.231 124.506 189.045 124.499 187.107C124.489 183.908 124.886 180.615 125.355 177.452C126.354 170.728 128.733 164.148 130.895 157.722C132.979 151.534 135.56 145.594 139.82 140.572C143.968 135.683 149.059 131.259 154.34 127.626C159.842 123.84 165.965 121.105 171.708 117.725C170.453 116.767 168.956 115.949 168.234 114.474C167.42 112.808 167.765 110.816 167.8 109.035C167.839 107.025 167.9 105.261 168.619 103.347C169.013 102.298 170.534 100.309 170.301 99.1693C169.91 97.2549 165.715 95.8565 164.17 95.0688C161.746 93.8331 159.319 92.578 157.086 91.018C154.943 89.5216 152.926 87.7204 151.628 85.4232C151.26 84.7715 150.957 84.0869 150.722 83.3764C150.46 82.5836 150.643 82.3134 149.849 82.2554C148.582 82.1623 146.682 83.4319 145.614 83.9928C140.109 86.8843 134.064 90.7757 127.568 90.5174C125.212 90.424 122.563 89.685 121.729 87.2316C120.632 84.0018 122.923 80.6652 124.933 78.3323C121.013 78.9473 113.784 80.8693 110.69 77.3779C108.629 75.0516 110.184 71.359 111.912 69.3417C114.196 66.677 117.452 65.0547 120.46 63.3592C116.769 61.9547 112.684 61.0566 109.438 58.7064C106.334 56.459 106.718 53.0063 109.17 50.3553C111.791 47.5215 116.374 46.0701 119.978 45.018C124.4 43.7275 128.792 43.831 133.348 43.9176C141.525 44.0727 148.549 47.0814 155.255 51.6303C158.801 54.0356 162.296 56.6314 165.441 59.5446C168.391 62.2768 171.538 64.8174 174.445 67.5791C177.261 70.2549 179.476 73.5703 182.448 76.0701C184.976 78.1956 187.747 81.2083 190.958 82.1519C194.362 83.1524 197.427 84.8072 200.861 85.7922C204.756 86.9092 208.102 88.7771 211.712 90.5593C226.86 98.0383 243.123 102.906 259.093 108.275C267.262 111.021 275.485 112.957 283.825 115.054C288.013 116.107 291.902 116.669 296.224 116.479C297.221 116.435 298.172 116.409 299.155 116.547C299.876 116.648 300.423 116.92 301.068 116.49C301.993 115.873 302.341 114.266 302.893 113.351C299.818 112.399 296.807 111.369 295.403 108.223C294.519 106.24 294.06 103.928 293.672 101.801C293.464 100.656 293.46 99.5008 293.282 98.3553C293.184 97.7227 292.883 97.0615 292.906 96.4152C292.837 96.7748 290.545 95.5921 290.213 95.3725C288.93 94.5245 288.697 92.8153 288.707 91.3726C288.72 89.743 289.213 87.9519 290.321 86.7162C290.846 86.1312 291.47 85.6926 292.233 85.4723C292.774 85.3157 293.488 85.5206 293.965 85.363C296.083 84.6643 296.32 79.4342 296.62 77.5302C297.282 73.3348 297.942 69.3294 299.37 65.3079C301.975 57.976 305.327 50.8505 309.32 44.1751C312.742 38.455 316.16 31.4609 323.683 31.3793H323.914ZM258.883 207.505C255.839 208.031 252.921 209.106 249.98 210.018C247.233 210.869 244.449 211.411 241.631 211.964C236.023 213.066 230.292 214.074 224.765 215.51C223.209 215.914 222.39 216.827 221.032 217.461C220.025 217.931 219.081 217.455 218.033 217.415C215.754 217.328 213.225 218.07 211.032 218.623C205.856 219.929 201.264 222.196 196.58 224.702C196.16 224.926 193.327 226.221 193.461 226.757C193.57 227.194 197.173 226.019 197.746 225.933C200.646 225.491 203.48 224.579 206.359 224.012C208.723 223.546 211.113 223.231 213.466 222.714C216.085 222.139 221.664 220.139 221.886 224.457C222.126 229.123 216.963 230.559 213.86 232.735C214.206 233.331 219.184 231.367 219.801 231.169C221.918 230.488 223.882 229.259 226.038 228.736C229.787 227.826 229.333 231.961 227.263 233.8C224.963 235.842 221.159 236.46 219.885 239.604C221.558 240.206 223.745 239.075 225.281 238.513C227.299 237.775 229.324 237.048 231.354 236.343C235.911 234.763 240.239 232.586 244.819 231.08C254.218 227.991 264.153 227.105 273.978 226.556C273.103 223.166 272.145 219.796 271.359 216.384C271.022 214.923 270.714 213.456 270.459 211.979C270.281 210.952 270.432 208.494 269.723 207.684C268.86 206.697 266.612 208.083 265.388 208.057C264.19 208.031 263.315 207.413 262.208 207.218C261.157 207.034 259.912 207.327 258.883 207.505ZM82.2825 227.128C82.2825 228.749 82.001 230.714 84.1365 230.904C85.8636 231.057 89.2424 231.254 90.6201 230.028C89.2998 229.386 87.7992 229.273 86.3969 228.903C84.9357 228.517 83.5865 227.883 82.2825 227.128ZM117.529 197.601C116.879 197.606 115.783 198.327 115.19 198.528C114.106 198.896 113.004 199.206 111.897 199.499C108.571 200.378 104.288 200.515 102.76 204.079C101.998 205.858 101.469 210.433 98.8201 210.416C96.4653 210.401 95.0551 207.009 93.3753 205.801C91.6391 204.554 88.8865 205.403 87.0141 205.945C85.1113 206.495 82.1585 207.201 82.3721 209.608C82.5257 211.338 82.8386 212.914 82.8238 214.681C82.8053 216.932 82.6149 219.177 82.6149 221.427C83.9507 219.6 85.116 215.928 87.4827 215.193C89.8736 214.451 91.2261 218.621 91.8479 220.219C92.6186 222.199 93.5873 224.444 93.6462 226.59C93.6647 227.264 93.2549 229.115 93.7243 229.669C94.1409 230.161 95.7434 229.804 96.2612 229.751C99.4658 229.418 102.653 229.003 105.868 228.726C107.519 228.583 107.969 228.221 107.807 226.449C107.68 225.056 107.641 223.73 107.816 222.332C108.596 216.092 112.446 210.384 118.955 209.3C122.877 208.647 127.458 209.125 131.373 209.752C132.883 209.993 134.521 210.723 136.055 210.66C137.187 210.613 136.822 210.549 137.054 209.484C137.217 208.74 137.564 208.105 138.131 207.59C138.579 207.182 139.148 207.412 139.57 206.879C139.876 206.494 139.83 205.969 139.974 205.524C140.255 204.66 140.764 203.493 141.777 203.275C143.407 202.923 145.139 205.102 145.962 206.225C146.812 207.387 147.069 210.855 148.436 211.309C150.013 211.833 151.889 209.769 152.218 208.469C152.661 206.721 152.103 204.829 151.837 203.097C151.818 202.973 151.741 201.823 151.655 201.748C151.425 201.545 149.691 201.602 149.384 201.587C147.873 201.515 146.36 201.511 144.848 201.507C138.919 201.493 133.112 200.911 127.223 200.291C128.078 201.682 129.543 203.968 128.04 205.437C126.926 206.526 124.915 205.98 123.516 206.204C121.54 206.521 118.208 208.393 116.324 207.024C113.67 205.094 116.673 201.779 117.658 199.956C117.869 199.565 118.652 198.189 118.32 197.73C118.033 197.333 117.949 197.598 117.529 197.601ZM73.3215 219.046C71.9662 219.459 70.6007 219.856 69.2161 220.162C67.592 220.521 65.0735 220.172 64.2833 221.956C63.682 223.312 63.9805 225.5 64.469 226.85C65.0283 228.397 66.341 228.795 67.8904 228.913C69.6985 229.051 71.5304 228.76 73.3172 228.513C74.0214 228.416 74.7723 228.24 75.4877 228.239C75.9123 228.238 76.7693 228.626 77.1469 228.309C77.6358 227.898 77.3139 225.564 77.2756 225.005C77.1805 223.62 76.9171 222.253 76.8452 220.865C76.7939 219.868 77.1704 218.514 76.0001 218.302C75.2713 218.169 73.9549 218.854 73.3215 219.046ZM182.768 191.622C181.755 191.797 180.748 191.922 179.72 191.906C179.086 191.897 178.327 191.682 177.741 192.029C176.66 192.669 176.821 194.358 176.858 195.411C176.903 196.69 177.015 197.987 177.151 199.259C177.282 200.475 177.95 202.478 177.006 203.52C176.34 202.792 176.012 200.414 174.726 200.5C173.313 200.596 173.967 202.85 174.092 203.657C174.785 208.119 175.574 212.584 176.193 217.058C176.487 219.186 176.867 221.297 177.064 223.435C177.196 224.87 177.241 226.162 178.847 226.459C180.336 226.735 182.009 226.264 183.514 226.228C185.063 226.191 185.95 226.086 186.842 224.688C184.707 224.222 181.326 224.507 180.124 222.254C178.722 219.625 181.679 217.259 183.134 215.462C184.251 214.082 186.535 209.495 188.608 212.22C189.354 213.201 189.489 214.698 189.866 215.839C190.479 217.693 191.228 219.521 191.963 221.329C198.687 217.865 205.587 214.741 212.92 212.796C211.05 209.642 208.736 206.801 207.337 203.383C205.769 199.551 204.47 195.615 202.866 191.796C200.324 193.277 197.607 189.687 195.076 189.542C191.077 189.314 186.688 190.944 182.768 191.622ZM142.938 217.452C141.544 218.281 139.494 219.893 139.159 221.559C138.581 224.44 141.875 222.514 142.891 221.884C145.02 220.564 147.105 220.142 149.55 220.956C152.685 221.998 155.574 223.759 158.938 222.421C160.612 221.756 164.326 220.333 163.324 217.781C162.633 216.021 160.611 217.53 159.543 218.161C156.745 219.813 154.429 218.766 151.634 217.574C148.838 216.382 145.69 215.816 142.938 217.452ZM43.6616 202.669C42.5425 204.252 44.8175 203.91 45.8162 204.065C47.9046 204.387 50.0556 206.049 49.48 208.401C48.9189 210.695 46.7202 212.129 46.3014 214.536C45.9415 216.604 46.2884 219.22 48.2884 220.355C49.4117 220.993 51.867 221.255 52.9976 220.523C54.724 219.405 52.5799 217.74 51.4377 217.186C49.9241 216.453 48.7017 216.055 49.4508 214.127C50.3638 211.776 52.1372 209.973 51.9797 207.283C51.8496 205.055 50.6713 202.522 48.5247 201.597C46.9876 200.934 44.7098 201.185 43.6616 202.669ZM196.455 195.838C198.39 195.755 198.467 198.089 198.369 199.237C198.236 200.806 198.521 202.478 198.554 204.053C198.598 206.138 199.035 212.966 195.341 211.952C192.966 211.3 191.011 209.028 189.102 207.568C187.345 206.224 182.879 204.612 182.59 202.064C182.263 199.186 185.784 198.648 187.802 198.19C190.683 197.538 193.479 195.966 196.455 195.838ZM187.031 119.991C183.963 120.287 180.913 120.741 177.993 121.759C176.018 122.447 172.984 122.94 171.584 124.629C170.373 126.089 170.898 128.171 170.504 129.896C169.972 132.231 168.358 131.912 166.792 130.454C164.918 128.709 164.376 127.446 161.768 129.083C156.368 132.473 152.086 137.477 147.803 142.113C151.115 143.115 157.613 143.357 158.713 147.488C159.314 149.746 157.502 151.389 155.873 152.622C153.769 154.213 151.574 155.685 149.517 157.341C147.597 158.886 143.292 165.036 142.074 159.629C141.32 156.281 142.733 152.822 142.134 149.515C139.529 153.707 136.885 157.889 134.497 162.209C132.464 165.887 131.282 169.821 130.307 173.887C131.827 173.986 133.409 173.216 134.911 173.671C136.358 174.109 137.035 175.475 137.137 176.89C137.31 179.29 136.2 181.732 135.641 184.037C135.258 185.619 134.817 189.211 132.886 189.726C130.685 190.313 129.304 186.933 128.322 185.56C127.388 186.993 127.403 189.091 127.267 190.734C127.173 191.864 126.542 193.977 127.815 194.602C129.007 195.187 131.519 194.454 132.794 194.4C135.158 194.3 137.569 194.109 139.934 194.178C142.169 194.244 145.457 195.437 146.33 192.695C146.924 190.829 147.448 184.121 150.618 187.76C152.026 189.376 153.128 191.218 154.488 192.865C155.86 194.526 157.108 194.635 159.158 194.551C163.215 194.385 167.176 195.163 171.146 195.791C174.629 196.342 174.172 193.39 174.12 190.763C174.041 186.691 174.85 182.432 175.291 178.382C176.341 168.752 178.494 159.237 181.807 150.129C179.036 149.187 174.067 152.988 172.018 150.101C170.334 147.728 172.498 144.46 173.379 142.241C174.478 139.474 175.033 136.583 176.825 134.13C177.391 133.356 178.196 132.318 179.29 132.579C180.23 132.803 180.604 133.999 181.133 134.674C182.811 136.815 184.954 138.421 186.446 140.758C187.358 142.187 188.068 143.714 188.364 145.392C188.446 145.853 188.342 146.797 188.668 147.184C189.676 148.384 192.853 148.366 194.265 149.101C199.086 151.613 200.78 158.923 202.652 163.533C203.18 164.831 203.703 166.132 203.983 167.508C204.17 168.428 204.161 169.597 204.661 170.422C205.752 172.223 209.141 170.614 210.804 170.336C213.592 169.868 216.366 169.422 219.165 169.03C220.872 168.791 223.358 168.173 224.659 169.683C226.008 171.249 225.232 173.715 224.555 175.394C223.45 178.136 222.038 180.755 220.871 183.472C219.941 185.639 219.478 188.43 217.69 190.1C216.141 191.547 213.578 191.962 211.755 190.784C210.714 190.112 208.043 183.612 207.338 183.902C208.61 188.923 210.476 194.043 212.448 198.834C213.053 200.306 214.092 203.307 215.622 204.105C216.89 204.767 219.767 203.517 221.064 203.274C222.294 203.044 224.722 202.047 225.898 202.778C227.324 203.664 227.497 206.026 227.657 207.493C227.776 208.58 227.561 209.392 228.886 209.337C229.82 209.3 230.762 208.845 231.658 208.616C233.738 208.087 235.897 207.736 238.015 207.395C242.913 206.605 247.809 205.818 252.704 205.009C256.913 204.313 261.067 204.317 264.87 202.324C266.798 201.314 269.007 201.006 271.06 200.33C273.096 199.66 275.125 199.226 277.256 198.974C281.913 198.424 286.445 197.886 291.047 196.944C293.566 196.429 296.08 195.889 298.586 195.311C300.816 194.797 302.972 193.981 305.191 193.477C307.038 193.058 308.554 193.373 309.345 191.281C309.912 189.781 309.78 188.1 309.926 186.53C310.592 179.356 308.075 172.142 307.56 165.008C307.394 162.697 307.342 160.379 307.168 158.071C307.089 157.013 307.137 153.933 305.901 153.363C305.788 154.209 305.876 155.632 304.913 156.051C305.383 155.846 304.766 158.346 304.732 158.597C304.601 159.594 304.929 160.662 304.756 161.641C304.893 161.985 304.833 162.245 304.577 162.419C304.402 162.561 304.274 162.739 304.195 162.955C304.182 163.653 304.387 163.242 304.397 163.483C304.494 165.884 304.087 168.372 304.261 170.832C304.445 173.431 305.026 175.981 305.468 178.545C305.864 180.846 306.291 183.152 306.622 185.463C306.854 187.085 307.026 188.948 306.152 190.424C304.491 193.228 299.685 192.923 296.885 193.381C292.232 194.144 287.572 194.832 282.902 195.479C281.109 195.728 279.294 196.296 277.481 196.324C275.543 196.355 274.506 195.573 273.284 194.146C270.823 191.27 269.235 188.004 267.185 184.876C266.034 183.118 265.076 182.655 263.137 182.119C261.337 181.621 259.892 180.309 258.427 179.219C255.35 176.928 251.376 174.437 249.357 171.062C247.232 167.512 250.227 166.333 253.094 165.364C252.396 163.513 251.028 162.027 249.9 160.434C248.619 158.624 247.457 156.743 246.077 155.001C243.264 151.449 240.455 147.916 237.725 144.298C235.392 141.206 233.034 138.277 230.057 135.772C227.066 133.256 223.736 131.194 220.452 129.088C218.737 127.987 215.725 125.176 213.557 125.463C211.453 125.742 210.622 129.653 210.096 131.296C209.493 133.182 209.28 135.812 207.875 137.297C205.811 139.479 203.667 136.042 202.682 134.458C200.878 131.556 199.031 128.68 197.23 125.776C196.409 124.452 195.223 123.192 194.735 121.691C194.73 121.673 194.501 120.382 194.732 120.563L194.748 120.577L194.732 120.56C194.217 120.05 192.313 119.945 191.602 119.883L191.537 119.877C190.039 119.736 188.524 119.847 187.031 119.991ZM166.921 201.355C165.197 201.344 163.477 201.544 161.761 201.685C160.253 201.808 158.871 201.577 157.365 201.487C155.503 201.375 154.582 201.57 155.011 203.49C155.323 204.887 155.697 206.747 157.134 207.338C159.076 208.136 161.69 208.028 163.758 208.33C165.277 208.552 166.791 208.752 168.303 209.005C169.307 209.173 169.823 209.349 170.293 208.213C170.686 207.261 170.432 205.99 170.298 205.006C170.195 204.252 170.257 202.925 169.9 202.254C169.367 201.252 167.971 201.361 166.921 201.355ZM247.322 182.21C249.856 184.522 251.561 187.478 253.474 190.281C254.643 191.993 256.928 194.721 255.268 196.796C253.854 198.565 250.567 198.16 248.589 198.245C245.481 198.379 242.942 199.781 239.984 200.504C232.535 202.326 238.722 189.826 239.754 187.218C240.478 185.388 241.225 183.566 242.1 181.802C242.495 181.007 243.283 178.688 244.266 178.384C245.689 177.943 246.421 181.388 247.322 182.21ZM183.316 155.93C182.132 158.189 181.94 161.317 181.379 163.784C179.663 171.329 178.659 179.012 177.87 186.702C181.794 185.149 185.936 185.041 190.079 184.661C193.08 184.385 195.836 184.07 198.839 184.198C199.35 184.22 200.822 184.479 201.244 184.045C201.81 183.462 201.124 181.835 200.957 181.222C200.047 177.892 199.647 174.451 198.613 171.141C197.558 167.766 196.277 164.396 194.913 161.133C193.916 158.746 192.546 156.419 190.129 155.248C188.013 154.224 184.63 153.424 183.316 155.93ZM167.157 170.614C168.774 173.047 170.822 175.175 172.401 177.63C173.52 179.372 174.831 182.594 172.142 183.701C171.198 184.089 170.084 183.921 169.095 183.938C167.565 183.965 166.051 184.096 164.519 184.06C163.07 184.025 161.634 183.85 160.189 183.774C159.278 183.727 158.134 183.797 157.331 183.275C155.18 181.874 156.736 179.015 157.429 177.185C158.164 175.241 159.158 173.403 160.116 171.561C160.781 170.284 161.774 167.681 163.286 167.16C165.076 166.543 166.412 169.492 167.157 170.614ZM245.547 143.05C249.1 147.174 252.185 151.672 255.09 156.267C256.508 158.509 257.885 160.777 259.259 163.046C260.159 164.53 260.834 166.429 261.929 167.774C264.429 170.841 265.124 164.149 265.492 162.694C266.851 157.331 268.534 152.01 270.031 146.68L268.496 146.68C262.381 146.677 256.518 146.587 250.563 144.788C248.878 144.279 247.341 143.174 245.547 143.05ZM232.63 144.09C234.565 145.516 246.948 153.889 241.739 157.12C240.661 157.789 238.899 157.485 237.681 157.581C236.12 157.704 234.535 157.855 232.993 158.131C230.996 158.489 229.057 159.112 227.051 159.428C225.457 159.68 223.344 159.973 221.919 158.982C219.569 157.347 220.995 154.135 221.771 152.056C222.874 149.102 223.919 145.148 226.655 143.388C227.292 142.979 228.072 141.517 228.757 141.383C229.83 141.173 231.845 143.512 232.63 144.09ZM300.949 74.6346C300.015 75.3477 299.972 76.8286 299.73 77.8739C298.916 81.3898 297.779 84.8122 297.104 88.3656C296.447 91.8314 296.24 95.2434 296.563 98.7556C296.778 101.098 296.803 103.981 298.23 105.976C299.937 108.363 303.317 108.24 305.874 108.947C308.334 109.628 310.773 111.734 308.09 113.924C307.136 114.702 305.884 114.829 304.942 115.578C303.779 116.503 303.111 118.161 302.617 119.517C302.21 120.632 302.222 120.846 303.437 121.24C303.992 121.42 304.553 121.534 305.137 121.486C306.467 121.376 307.653 120.499 308.766 119.84C311.605 118.161 314.885 115.918 318.275 115.665C319.359 115.584 320.59 116.027 321.644 115.675C322.626 115.348 322.324 115.147 322.495 114.236C323.17 110.623 323.444 107.077 325.29 103.809C326.201 102.196 328.609 98.8977 330.223 101.408C330.896 102.457 331.14 102.969 332.636 102.647C333.852 102.386 335.189 101.425 334.947 100.023C334.72 98.6994 332.977 97.7984 331.92 97.2184C330.513 96.4466 329.526 96.5357 327.994 96.3528C323.783 95.8504 326.735 89.7034 327.342 87.3968C327.724 85.9473 328.17 84.0736 327.168 82.7647C325.644 80.7737 322.323 81.4284 320.231 81.7108C317.338 82.1014 314.179 82.3095 311.471 80.9988C308.607 79.6123 307.386 76.4853 304.7 74.965C303.707 74.4031 301.968 73.8549 300.949 74.6346ZM313.52 100.029C315.511 100.002 314.543 102.835 313.998 103.788C312.85 105.797 310.39 106.574 308.231 105.833C306.522 105.247 304.675 102.658 307.35 102.229C308.633 102.023 309.903 102.107 311.119 101.497C311.812 101.15 312.707 100.04 313.52 100.029ZM308.526 84.9634C309.763 85.7129 307.652 90.4998 307.297 91.4686C306.718 93.0498 306.203 94.0705 307.675 95.2892C308.699 96.1368 310.719 96.8683 309.755 98.5573C308.862 100.12 305.8 99.4648 304.555 98.7002C302.745 97.5882 303.278 95.4584 303.678 93.7106C303.939 92.5654 306.324 83.6289 308.526 84.9634ZM113.771 53.5332C117.585 55.1595 121.485 56.6286 125.521 57.6085C129.048 58.4651 132.516 59.3888 136.151 59.1876C139.514 59.0018 139.915 62.2995 137.994 64.5833C136.951 65.824 135.74 65.793 134.219 65.841C132.439 65.8972 130.822 66.3903 129.105 66.8317C126.49 67.5041 123.842 68.075 121.308 69.0239C120.001 69.5137 118.711 70.0897 117.544 70.8638C116.811 71.3507 115.175 72.2278 116.04 72.9081C117.291 73.8909 121.004 72.5445 122.493 72.4558C125.959 72.2495 129.418 71.9371 132.865 71.504C134.553 71.2915 136.366 71.0816 137.965 70.4695C139.011 70.0692 140.169 69.0752 141.353 69.3276C143.852 69.8604 142.614 73.5999 141.479 74.8164C139.794 76.6231 137.237 77.4209 135.06 78.4474C133.539 79.1651 132.027 79.9251 130.55 80.7283C129.852 81.1077 126.6 82.5291 126.703 83.6083C126.811 84.7426 129.378 84.1706 130.013 84.0674C134.25 83.3796 138.073 81.7443 141.988 80.0708C143.701 79.3382 145.439 78.6353 147.117 77.823C148.288 77.2553 149.44 76.3904 150.735 76.1325C153.788 75.5241 153.654 78.9271 154.856 80.7654C158.428 86.229 165.329 88.5597 170.699 91.717C172.731 92.9112 174.669 94.2865 176.533 95.7252C177.864 96.7524 178.396 98.1663 179.883 96.8116C181.122 95.6823 181.72 94.0261 182.514 92.5899C183.439 90.9178 184.674 89.4415 185.622 87.7831C187.022 85.333 187.442 82.9962 184.366 82.0945C181.137 81.1481 178.582 79.7368 175.838 77.7231C169.103 72.7811 163.514 66.4704 156.799 61.4905C150.578 56.8767 143.981 52.5471 136.181 51.3082C128.789 50.1335 120.679 50.4227 113.771 53.5332ZM315.542 89.0213C315.384 90.3818 315.048 93.2834 313.155 93.392C310.855 93.5236 312.399 86.5507 313.702 85.7658C315.788 84.5092 315.675 87.8686 315.542 89.0213ZM294.145 88.4659C291.274 88.7032 290.456 91.8415 293.325 92.9527L294.145 88.4659ZM304.788 85.7116C304.419 87.1359 304.55 89.4215 303.405 90.5147C301.791 92.0552 301.088 89.7944 301.1 88.5054C301.112 87.2304 301.745 84.0413 303.454 83.8732C304.915 83.7296 303.699 85.4198 304.788 85.7116ZM335.765 54.023C334.716 56.2026 335.844 58.3537 336.472 60.4961C335.184 60.9105 333.448 60.5971 332.661 61.9561C332.165 62.8127 332.252 64.1025 332.4 65.0302C332.522 65.7912 333.147 66.8159 332.627 67.5221C331.946 68.4465 330.255 68.0191 329.504 69.0474C328.362 70.6113 329.003 74.1834 330.605 75.3607C332.857 77.0144 331.513 72.956 331.375 72.217C331.03 70.3657 332.951 70.6174 334.264 69.8697C334.968 69.4687 335.094 69.3911 335.255 68.5349C335.404 67.7461 335.325 67.1203 335.137 66.2702C334.498 63.3858 335.615 63.8569 337.911 63.2214C339.891 62.6728 339.732 61.0934 339.229 59.4332C338.835 58.1319 337.658 55.997 338.932 54.8876C339.438 54.4472 340.206 54.7256 340.315 53.8066C340.389 53.1863 339.555 52.1691 339.117 51.8124C337.607 50.5825 336.379 52.7484 335.765 54.023Z" fill="black"/>
<path d="M236.742 222.87C238.549 222.67 242.587 221.464 246.831 220.448C247.85 220.245 248.65 220.045 250.263 219.942C251.876 219.839 254.276 219.839 256.75 219.839" stroke="white" stroke-width="2" stroke-linecap="round"/>
<path d="M275.5 228L220 242.5L217.5 239L221 235.5C219.167 235.833 215.3 236.3 214.5 235.5C213.5 234.5 211 234 211 233.5C211 233.1 211.667 230.333 212 229C210.833 228.667 208.2 228 207 228C205.5 228 198.5 230.5 198 230C197.5 229.5 192 229 191.5 229C191 229 191.5 227 191.5 226.5C191.5 226 195 222 196 221.5C197 221 199.5 219.5 202.5 218C205.5 216.5 214.5 213.5 216 213.5C217.5 213.5 216 214 220.5 213C225 212 229.5 211 230 211C230.4 211 236.167 210 239 209.5C243 208.833 251.1 207.5 251.5 207.5C252 207.5 260.5 205.5 261.5 205.5C262.5 205.5 265.5 205.5 266.5 205.5C267.5 205.5 271 204.5 271.5 205C272 205.5 270 207.5 271.5 209.5C272.7 211.1 273.667 214.167 274 215.5" stroke="black"/>
</svg>
