<?xml version="1.0" encoding="UTF-8"?>
<svg width="1024px" height="768px" viewBox="0 0 1024 768" version="1.1" xmlns="http://www.w3.org/2000/svg" xmlns:xlink="http://www.w3.org/1999/xlink">
    <!-- Generator: Sketch 57.1 (83088) - https://sketch.com -->
    <title>Character/sleek</title>
    <desc>Created with Sketch.</desc>
    <g id="Character/sleek" stroke="none" stroke-width="1" fill="none" fill-rule="evenodd">
        <path d="M547.233018,217.498908 C562.08909,227.874746 581.986677,221.791798 596.41932,213.98195 C597.285999,220.031515 608.591569,219.457686 612.641178,222.373747 C619.025055,226.971597 626.177411,235.339936 631.185592,241.436417 C642.751526,255.51688 649.899378,275.193979 656.373346,292.065091 C663.041011,309.437852 671.274828,324.340546 688.415618,334 C693.953537,337.120872 699.317034,341.306228 705,344.233116 C711.794694,347.732931 719.667126,349.444376 727.140208,348.883178 C736.044842,348.214613 743.725069,347.935819 752.454025,346.258542 C761.781187,344.465778 771.736287,342.588203 780.976062,342.870606 C787.832918,343.080829 794.754641,341.684151 801.438522,342.00084 C805.542185,342.194823 809.608911,341.847458 813.705367,342.018885 C815.328814,342.086553 816.597301,342.073922 818.271199,342.224597 C822.240626,342.581887 822.30369,342.152417 822.886582,345.669375 C823.57488,349.826928 820.916283,356.577538 820.654117,360.845166 C820.350509,365.804816 821.191062,370.701309 821.009978,375.617652 C820.806371,381.142109 819.214456,380.634144 814.38826,383.16675 C809.707111,385.622666 805.257496,387.989259 800.417786,390.155554 C786.556323,396.360304 771.920074,402.433327 756.629761,404.143085 C738.28535,406.194794 719.17336,404.019477 700.945166,403.230011 C690.787361,402.790617 680.261081,401.048379 670.490669,398.554569 C662.80317,396.592182 650.343529,392.60786 644.338036,387.448813 C651.210208,387.140245 648.800263,381.03835 644.788493,378.340632 C637.478476,373.42429 634.204555,375.784567 635.95413,384.029298 C627.350401,381.211582 619.655694,374.383378 612.330363,368.916665 C602.912207,361.889065 588.935427,351.328267 588.377761,338.684181 C587.748923,324.426878 570.954985,295.649717 572.702758,310.654081 C574.273052,324.139061 580.170435,342.367643 572.702758,355 C572.377528,347.427443 558.880936,334.983165 552.526789,332.850253 C541.227525,329.05811 527.811114,329.644571 516.039771,330.368173 C494.231345,331.707107 472.356252,335.995486 451.432524,341.774376 C430.324109,347.604694 407.729185,355.178154 390.198299,369.019521 C388.038808,370.72567 386.021662,373.553311 383.823431,375.023071 C383.056754,375.535547 380.760324,375.244121 379.668416,375.811635 C376.762067,377.320191 381.171141,377.574625 376.392693,377.928306 C375.358443,378.004094 372.643989,376.895233 371.940376,376.575838 C360.38345,371.329273 361.039316,357.300238 361.728515,346.551773 C363.31052,321.849159 371.289015,296.924592 381.0324,274.377446 C389.749644,254.208622 401.639907,232.588083 418.876194,218.466117 C426.416844,212.289335 433.905242,205.043392 442.590954,200.640428 C445.890101,198.969467 451.823521,196.352951 450.522601,191.355406 C449.134292,186.020421 442.826092,188.61799 438.391794,188.404157 C415.355422,187.295296 396.78308,177.596143 379.342285,162.851627 C361.469052,147.741701 342.68681,142.638218 320.5,136.926996 C314.111619,135.283103 270.185741,124.728093 263.882946,124.78313 C256.908971,124.844482 249.962924,125.071849 242.996156,125.203577 C238.854654,125.282072 234.708647,125.27305 230.562641,125.605076 C227.224755,125.873044 223.547224,127.252579 220.22195,126.895289 C217.104787,126.560556 217.348935,127.485359 215.81648,125.169291 C214.738086,123.539834 215.029082,120.165431 214.717365,118.180488 C214.444388,116.447272 214.171411,114.713154 213.899335,112.979035 C213.038963,107.508713 209.018354,104.711407 213.450851,102.5 C219.961757,99.2510094 233.377374,96.3046488 240.5,95 C247.319018,93.7521927 285.922368,84.5127572 298.827961,82 C305.255982,80.7485838 383.096354,77.8495976 386,77.8297482 C413.965272,77.6375696 473.602896,93.0402844 487,105.351441 C500.397104,117.662598 500.411616,126.591232 506.200889,131.571634 C512.671254,137.136692 521.42994,144.057827 525.981357,151.272192 C529.05888,156.148836 530.239978,169.052769 536.531961,170.951998 C531.961625,185.579223 533.609396,207.982912 547.233018,217.498908 Z" id="Path" fill="#CF536D"></path>
        <path d="M134.293519,172.327231 C136.067823,172.736631 136.926619,172.031452 137.234489,170.198167 C136.072324,171.039512 135.182922,171.683371 134.293519,172.327231 M157.52241,606.621052 C155.948851,606.707621 157.506206,610.694318 157.706952,610.678086 C157.644838,609.326343 157.583624,607.973697 157.52241,606.621052 M586.551123,113.482652 C588.60179,113.827126 600.14692,116.9842 596.259835,110.544706 C594.171359,107.08464 589.9593,113.485357 586.551123,113.482652 M548.404935,191.330093 C542.531998,194.580049 560.651324,206.054088 563.243915,206.772794 C565.776192,207.475267 584.871341,210.006518 585.099993,205.801594 C578.435775,204.327211 571.74185,205.217252 565.210863,203.2478 C557.221543,200.837386 554.136541,196.868725 548.404935,191.330093 M833.990479,368.521215 C834.341559,363.288281 834.553107,358.206844 835.616249,353.055971 C835.836799,351.987381 837.636309,347.056538 837.236618,346.415384 C836.609175,345.409918 831.821885,344.570376 830.83346,344.233116 C830.072787,354.48256 829.20949,364.698639 827.785366,374.885862 C831.129627,373.731605 830.257329,369.131709 833.990479,368.521215 M209.368818,128.478979 C209.368818,122.870912 207.874478,114.525992 206.756423,109.082948 C205.841815,104.633646 202.583973,100.305181 200.721449,95.8297291 C200.140816,98.9101533 198.105453,103.615555 198.756301,106.757299 C199.606995,110.853109 201.546937,110.180394 201.546937,115.221252 C201.546937,118.286346 201.040121,121.777073 201.598248,124.791668 C202.693798,130.729781 204.451898,129.780224 209.368818,128.478979 M640.970318,85.2069548 C634.246686,81.4817697 622.752868,88.5669257 616.725096,91.8249973 C609.569366,95.6935628 602.370426,106.0927 599.467265,113.645871 C602.311013,113.330254 604.71546,113.27705 606.782331,111.745855 C607.846373,110.957714 608.966228,108.73126 609.970857,107.680705 C612.562548,104.970004 615.827591,102.445968 618.671339,99.9796448 C625.448982,94.1019502 632.778452,88.9005782 640.970318,85.2069548 M680.71617,179.101278 C686.301042,178.118356 692.738408,175.582597 694.336272,169.292796 C695.881024,163.214008 691.425009,160.270652 685.979669,159.514974 C673.485723,157.778178 665.036399,175.90633 680.71617,179.101278 M637.120141,160.341892 C643.279343,164.642402 650.012877,164.098638 656.111766,159.293141 C660.996279,155.446217 665.763764,148.867852 660.228404,144.165156 C651.335278,136.609279 638.589275,152.070015 637.120141,160.341892 M902.809353,636.24218 C898.952874,636.478442 892.736058,640.508423 889.353988,642.494107 C885.112222,644.983876 880.647205,647.609811 876.54317,649.906603 C868.027231,654.673325 858.458952,660.023488 849.016701,663.59898 C839.758993,667.103233 830.422066,671.511955 820.968113,675.65646 C816.923492,677.429327 811.263003,679.50158 806.677358,679.020038 C802.480602,678.579076 798.073199,674.264137 794.313042,672.374041 C788.474312,669.438801 784.678148,665.62885 780.012385,660.931564 C777.980622,658.886364 772.806244,650.289852 770.062419,649.967923 C767.718285,649.692885 761.309725,654.821214 759.479609,655.921366 C756.650264,657.624797 752.380592,660.415755 749.69258,662.55564 C747.031574,664.672981 746.88394,663.116537 746.698498,665.898477 C746.571569,667.789475 750.908757,671.500232 752.245561,673.024213 C756.738484,678.144426 761.428553,683.155526 765.671219,688.496671 C769.316149,693.084844 772.707221,698.010276 775.838134,702.965467 C778.873626,707.771866 784.499007,713.333944 785.723286,718.953734 C792.785394,712.039913 799.722374,715.411607 808.599296,713.328533 C812.443171,712.425868 815.857649,710.295001 819.457569,709.032532 C822.458852,707.980174 825.682487,707.6357 828.77109,706.953065 C842.473111,703.927648 855.766438,698.007571 868.581757,692.713317 C871.574939,691.477 874.058605,689.112576 876.950963,687.68328 C880.050369,686.152086 883.43424,685.640786 886.558852,684.23133 C894.596782,680.607142 902.747239,676.796289 910.695149,672.916903 C919.220991,668.755264 928.205937,665.156326 936.571542,660.763836 C941.626193,658.109946 951.431227,653.353143 953.766358,647.734255 C948.182387,648.735212 943.495019,651.916634 938.324241,653.52538 C929.204264,656.362328 929.650766,647.777539 929.650766,641.235245 C926.599071,641.235245 920.471375,645.612405 917.55021,646.970461 C913.777451,648.724391 908.829024,653.361259 904.64037,653.673269 C894.275409,654.444277 899.28415,640.809612 902.809353,636.24218 M536.662661,170.838419 C530.872542,169.090801 529.714879,158.024359 527.26272,153.447909 C523.646596,146.697308 516.716818,141.229915 511.187759,135.954599 C506.101601,131.103111 500.657161,126.998284 494.951661,122.924116 C489.10753,118.749853 485.063809,113.259014 479.689585,108.656413 C457.243873,89.435324 429.83533,82.9281984 400.868533,81.9236338 C371.768505,80.9145604 342.399316,84.1284456 313.160657,85.9968997 C309.434709,86.2349652 306.10485,86.3395698 302.387904,86.968099 C301.4949,86.6984717 300.602797,86.4288444 299.709794,86.1592171 L297.642023,87.6480287 C296.208896,87.8590413 294.169932,88.0781699 292.850231,88.3342707 C286.03658,89.6553543 279.226529,91.4128914 272.416478,92.9531035 C257.97989,96.2165857 244.02131,99.2167529 229.471297,102.265615 C226.001906,102.992437 217.563384,103.45955 214.842065,105.660755 C212.731084,107.368695 213.519663,108.041411 214.012976,111.178646 C214.466679,114.064289 214.919482,116.949031 215.374086,119.834674 C216.255387,125.436429 215.872799,127.36981 221.929379,126.789976 C227.136165,126.291301 232.211521,125.367895 237.47682,125.128928 C245.046644,124.783552 252.741596,124.344393 260.313221,124.494086 C267.813729,124.642877 276.454797,123.398444 283.79777,125.321905 C281.533754,120.576825 280.20055,106.203617 286.208519,116.150068 C289.032462,120.825712 288.333003,126.555518 294.403985,128.224682 C299.354213,129.585443 304.739239,130.379897 309.841601,131.671222 C329.953982,136.762579 350.917957,140.272243 368.075864,153.528166 C384.892595,166.520775 400.19788,181.477425 421.722683,186.219799 C426.886259,187.357825 433.163388,188.019719 438.599727,188.282133 C441.765748,188.434531 448.059081,186.517381 450.210571,189.376873 C455.434461,196.316846 436.085454,204.482314 432.207371,207.939676 C424.324275,214.968922 415.413146,220.462466 408.586891,228.665808 C401.452766,237.238874 395.32147,246.581144 390.066973,256.358966 C378.245481,278.355684 369.896979,301.680699 365.043974,326.162677 C362.746651,337.753044 360.150459,351.027904 362.21553,362.886996 C363.04912,367.671754 365.72993,372.436672 369.85647,375.163605 C371.197775,376.05094 372.879358,376.665041 374.429512,377.131253 C375.895045,377.611893 377.397487,377.895949 378.937738,377.98342 C379.108777,377.116825 379.437352,376.318764 379.921662,375.588336 C381.012711,375.022028 383.308234,375.313298 384.074308,374.801096 C386.270808,373.332123 388.285467,370.505095 390.444159,368.79986 C394.191712,365.840272 398.239034,363.027672 402.361973,360.637096 C412.759341,354.611513 424.08032,351.067582 435.206854,347.276568 C458.111671,339.473608 482.103935,333.0774 506.424774,330.69494 C519.259897,329.437882 533.684783,328.665071 546.40468,331.046628 C554.607348,332.583233 571.251239,339.788324 571.678836,349.745597 C579.11723,337.159683 574.401056,323.918188 572.804993,310.465679 C571.019886,295.429674 567.957388,281.228702 573.005738,266.389282 C576.43912,256.294941 582.346266,242.976795 592.387152,237.821413 C595.983472,235.975504 603.656819,237.089181 600.994013,243.189612 C600.925597,243.346519 595.917757,246.196993 595.205694,247.026615 C592.76974,249.863564 590.924319,253.571615 589.109506,256.827883 C574.678319,282.724728 587.519744,310.998622 588.46676,338.480767 C588.905159,351.168579 603.005071,361.683142 612.400511,368.697961 C619.702074,374.149121 627.425833,380.990801 636.006587,383.8025 C634.258389,375.561283 637.528834,373.203171 644.833998,378.116881 C648.842611,380.813154 651.250659,386.910878 644.383895,387.219282 C649.797728,391.872381 660.856747,395.477632 667.737914,397.268534 C675.80015,399.366938 684.051429,401.236294 692.449442,402.424818 C709.218461,404.797358 726.29355,404.043484 743.15439,404.216622 C760.514844,404.39427 775.000044,399.759205 790.949876,393.737228 C798.270343,390.972421 805.151511,387.77567 812.115497,384.144268 C814.476735,382.912459 819.833855,381.482262 821.13285,378.785989 C822.806332,375.312396 820.304662,366.303778 820.454096,362.33151 C820.611632,358.102239 823.749746,349.315455 822.791028,345.463122 C821.87552,341.774909 824.198049,344.365675 820.451395,342.521569 C819.438665,342.022894 817.167447,341.764088 815.926965,341.624314 C808.991785,340.842485 800.790918,341.485443 794.051983,342.353841 C786.330024,343.348486 779.175194,342.006662 771.668385,342.893997 C761.247611,344.125806 750.554976,345.971716 740.487983,348.955652 C724.602965,353.664661 709.902617,353.330107 695.707284,344.321489 C689.702917,340.510636 682.630006,336.599688 677.483534,331.38479 C670.566358,324.375382 665.496403,314.395565 661.590414,305.445562 C652.997957,285.756457 646.737031,265.085332 634.973152,246.920207 C629.931103,239.135283 622.919406,232.800394 616.443331,226.17153 C613.379934,223.037 611.619133,221.230768 607.423277,219.88173 C604.038506,218.794203 597.16364,218.461452 596.50199,213.846227 C582.080705,221.652793 562.202378,227.724367 547.355296,217.360399 C533.744196,207.859419 532.099522,185.443381 536.662661,170.838419 M535.914591,358.987771 C517.12101,361.061827 498.922465,362.617369 480.439456,366.896237 C461.792609,371.212077 442.340979,377.793147 424.641147,384.290354 C417.697866,386.838737 408.899262,388.636854 402.61313,392.582971 C397.948268,395.510997 398.530701,395.400982 401.878563,400.795331 C404.120974,404.408698 406.006003,408.452205 408.404149,411.920388 C418.15247,426.018559 431.506111,438.078744 442.710963,450.87026 C455.089682,465.001796 469.594686,478.993559 483.781017,491.376576 C497.426325,503.286166 510.878989,516.04612 525.386693,526.747348 C555.62638,549.05337 586.252255,571.050088 617.680213,591.64817 C635.134288,603.088844 652.170668,614.809065 669.672455,626.330897 C678.771727,632.321312 687.263361,638.93665 696.931563,643.940535 C706.906735,649.104033 719.093711,656.335275 727.305381,663.959686 C733.038787,653.823864 745.160947,647.26173 754.231413,640.704106 C756.042626,639.395647 757.989769,637.626387 759.725365,636.158316 C763.027317,633.365555 763.193855,633.829963 761.429453,630.634113 C759.488611,627.11994 754.196305,624.288403 751.424574,621.380216 C748.889597,618.720013 747.216116,616.02374 744.914291,613.178676 C737.258048,603.711963 727.395401,595.85129 718.825449,587.24035 C710.57417,578.949537 702.904423,570.531574 694.839487,561.703309 C690.845277,557.33156 686.307343,554.185307 682.476971,549.761255 C677.15856,543.616638 671.913965,537.324132 666.662169,531.117294 C657.238823,519.979613 649.32152,508.158395 640.152031,496.963902 C623.467631,476.594868 610.811649,453.566533 596.207623,431.716803 C587.245181,418.308481 576.162757,405.791101 568.015002,391.849837 C563.52748,384.171321 559.204695,376.518956 555.989163,368.12985 C554.157245,363.350503 554.599246,362.977173 550.128828,361.578538 C545.814145,360.229499 540.367905,359.293469 535.914591,358.987771 M302.432014,554.613644 C311.946281,553.694747 321.73331,556.853625 330.965812,557.243187 C339.942657,557.622829 349.125648,558.599439 358.118697,558.008784 C367.988545,557.361318 377.916006,557.380255 387.747145,557.685953 C398.404672,558.0169 408.557184,556.290925 418.829424,554.784979 C429.214189,553.261901 440.524365,548.539365 450.675977,545.518457 C456.681245,543.731162 462.45786,541.412728 468.491035,539.727332 C474.593524,538.022999 479.456432,533.974081 485.016998,530.865702 C488.810462,528.745656 496.854694,526.177433 495.170411,521.816505 C493.67337,517.940725 483.697298,512.122547 480.434055,509.307241 C470.783857,500.981259 461.001329,492.7184 452.061393,483.579026 C433.102175,464.195619 415.033259,444.860908 399.015911,422.984125 C395.210745,433.750279 391.009488,444.674243 382.597072,452.86947 C375.450344,459.832888 367.212568,465.80166 359.577029,472.142861 C344.749752,484.456442 326.910389,493.228798 309.199755,500.321168 C300.436259,503.830832 291.962629,506.082535 283.131618,509.186405 C278.951066,510.65628 274.499552,510.369519 270.580059,511.292023 C264.640507,512.689756 258.436293,515.579908 252.420223,517.277027 C243.940292,519.67121 235.366739,521.350293 226.50062,520.587401 C214.961792,519.59456 205.369207,513.937797 194.861114,509.845594 C195.407538,513.93419 192.267623,528.423726 194.594653,531.48341 C195.884647,533.178725 204.140427,533.875789 206.69791,534.446605 C217.133987,536.77586 228.242517,538.184415 238.668691,539.535256 C249.72591,540.967257 260.154785,546.44006 270.942842,548.98664 C281.124161,551.38984 292.370422,553.628919 302.432014,554.613644 M116.632397,614.247266 C117.296748,622.004236 118.266269,633.728965 124.546099,639.309078 C126.951447,633.471963 125.617343,625.581532 126.681386,619.362069 C127.31513,615.657624 128.174826,612.009991 129.06963,608.361456 C129.578245,606.290105 129.889716,600.317725 130.971763,599.114772 C138.739632,590.47678 140.31319,616.187861 141.192691,619.176306 C144.067045,612.242646 143.119129,604.546094 145.672111,597.772948 C148.725606,589.670603 153.500294,596.190353 156.103687,601.278103 C156.872462,590.090825 152.476761,578.814272 152.632496,567.413276 C152.799934,555.2557 154.866805,547.167783 164.179426,538.980672 C168.63184,535.067018 180.523548,530.27685 182.666036,525.355025 C183.030619,524.519992 182.937898,518.348323 182.700244,517.48804 C181.701017,513.871067 182.073701,514.61412 177.682501,513.56086 C173.835025,512.637454 170.25401,511.393922 166.360623,510.816794 C155.755307,509.24502 147.583246,509.023186 138.594699,515.6268 C129.24697,522.495533 124.803558,534.716232 122.30999,545.685284 C117.21573,568.091402 114.867995,591.32083 116.632397,614.247266 M850.845918,366.794338 C866.730936,364.768075 882.456617,358.269967 898.123786,357.189655 C907.543531,356.540385 918.046223,354.382465 927.274225,352.405799 C933.343407,351.105456 946.022795,350.035063 949.410266,344.16368 C945.318834,345.423444 939.920305,348.292856 935.643431,348.404674 C932.499015,348.486735 931.403465,349.080997 930.781424,344.764255 C930.483456,342.699216 931.155909,340.220269 932.408994,338.597094 C934.567686,335.801627 939.191139,334.433652 942.331054,332.655374 C946.562918,330.259389 950.498614,327.693871 954.483822,324.904717 C953.268545,321.88922 936.284377,327.937348 933.624271,328.893217 C930.32682,330.078134 926.983459,331.227883 923.818338,332.74014 C921.741565,333.73208 918.140745,336.935144 915.79481,336.849476 C909.86516,336.634857 910.398981,329.478461 913.272436,325.36642 C917.343163,319.542831 925.457611,315.208054 930.922756,310.680299 C925.079525,310.929186 919.770116,314.344164 914.400393,316.38756 C908.467141,318.646478 902.452872,321.211995 896.646549,323.732424 C882.397204,329.919424 867.217046,334.158614 852.727346,340.127387 C857.083438,347.557918 852.132311,351.214569 845.01709,348.483128 C843.944946,354.750384 843.526351,361.133066 843.526351,367.475169 C845.965906,367.247925 848.406362,367.02068 850.845918,366.794338 M190.492419,113.910088 C190.571637,112.537604 191.611374,105.84201 190.378993,104.683243 C189.947795,104.278352 183.018017,105.25406 182.335661,105.354155 C177.828335,106.01605 174.104186,107.703249 169.883125,109.501366 C159.553272,113.901972 149.107293,117.871535 138.797245,122.301899 C119.494149,130.59632 100.373794,138.299184 82.3534897,149.083374 C95.7449397,147.950759 109.44426,144.071372 121.636637,138.418217 C126.793911,136.027642 146.15102,119.952805 146.72085,133.939157 C146.972907,140.128862 141.642793,142.330067 137.142668,145.312199 C131.632513,148.962538 126.232183,152.583118 121.115418,156.76189 C118.394098,158.985639 96.7000572,173.575271 97.7496963,175.909937 C103.259851,174.59246 109.184101,170.432625 114.037106,167.532554 C119.438336,164.303339 125.104226,161.432124 130.680997,158.497785 C133.722789,156.896253 140.66337,151.334176 144.005831,153.766232 C149.79685,157.980173 141.859743,165.811087 139.251849,168.692222 C144.320903,168.165592 151.11295,160.785559 155.056748,157.709644 C160.043884,153.819436 165.288479,150.344039 170.350331,146.515151 C175.640836,142.513125 181.180698,138.759985 186.552222,134.855349 C191.569064,131.208617 190.756179,131.229358 190.264667,125.220908 C189.955897,121.447929 190.275469,117.676754 190.492419,113.910088 M409.890388,371.196747 C416.416874,370.527639 422.266407,366.512086 428.533634,365.254126 C434.70724,364.015103 440.536068,360.576678 446.607951,358.627066 C454.59457,356.061548 462.678411,354.164238 470.92879,352.716907 C477.853167,351.50133 484.535389,348.868181 491.466067,348.062906 C505.766724,346.400956 519.421934,344.481101 533.820714,346.528104 C540.948537,347.540785 547.191459,349.03681 553.564911,352.443673 C560.658526,356.235589 561.357985,356.048022 568.97462,352.695265 C566.593578,346.28553 557.55912,342.030108 551.49714,340.725256 C542.363659,338.75851 532.789079,339.644943 523.48726,339.95515 C507.424002,340.490798 490.745903,343.980622 475.355998,348.306382 C445.850878,356.599901 417.49442,366.257788 390.375743,380.074609 C392.669466,383.226273 395.088317,379.395581 397.746622,377.775112 C401.630107,375.406179 405.928586,373.496244 409.890388,371.196747 M660.895456,131.967001 C655.748983,130.949811 650.603412,130.540411 645.464141,129.316718 C638.970062,127.770193 636.125414,130.122894 630.080537,133.144704 C632.500288,134.246659 635.58259,136.15479 638.156277,136.820292 C642.687009,137.992584 641.171063,137.044831 645.477644,135.320659 C649.299014,133.790366 656.492553,133.174462 660.423748,133.972523 C670.954347,136.109702 669.264662,148.540512 668.257332,156.826817 C673.445214,154.305487 674.103264,149.558603 675.947784,144.728758 C677.944439,139.501235 680.093228,134.754352 681.630778,129.319423 C675.060182,131.038184 667.72081,132.039142 660.895456,131.967001 M743.554082,328.930189 C762.236036,321.955048 783.218015,323.736031 802.434692,322.110152 C809.830776,321.484328 820.053505,322.60522 827.332563,324.975054 C830.820857,326.110375 834.746651,326.941801 838.054004,328.479307 C839.830109,329.305323 841.265936,331.288301 843.092452,331.900598 C846.668066,333.099042 846.483524,332.395666 850.315697,330.295459 C853.676162,328.453156 857.062734,326.696521 860.51592,325.03908 C881.406978,315.01688 902.48978,306.13 923.988476,297.772456 C929.570648,295.601911 935.121312,294.140153 940.856518,292.247351 C944.478943,291.051612 950.811886,288.614146 954.708873,289.85407 C968.293867,294.17442 948.528966,310.404359 944.074751,314.584033 C949.618214,314.325227 959.797732,311.738969 963.005163,317.904327 C964.335666,320.460826 963.868459,324.199538 962.676588,326.757841 C961.803389,328.630804 959.902156,329.712018 958.941637,331.480376 C957.132225,334.814196 957.828984,333.615752 958.104446,336.954983 C958.86692,346.226014 957.052107,350.330841 949.326547,356.277972 C942.024984,361.899565 932.581834,364.295551 923.87415,366.756464 C908.645382,371.060581 892.667643,372.279765 877.24353,375.994129 C869.990578,377.740845 862.418954,378.871657 855.145297,380.190035 C847.066857,381.654499 837.564293,380.52008 830.726335,385.00455 C817.060323,393.967178 804.529469,405.154456 789.361014,411.637234 C775.973165,417.358924 763.493623,420.1589 749.109247,422.62883 C735.568363,424.954478 721.543168,423.303349 708.468591,423.637001 C693.176808,424.027465 678.994078,422.983223 664.417058,418.575403 C649.594282,414.093638 635.295425,408.358422 622.684453,399.78716 C615.55753,394.943788 608.463914,390.27626 601.760087,384.822394 C593.583525,378.170085 588.016657,370.289573 581.901564,361.742659 C578.388964,365.532771 575.580325,367.636585 570.983878,370.060525 C585.020775,385.482485 596.874675,403.372572 610.196809,419.430275 C615.749273,426.124065 620.354722,433.339977 625.619121,440.174443 C630.829508,446.939473 634.294397,455.309642 640.0152,461.603951 C645.355216,467.478039 648.97224,474.287255 653.500271,480.805202 C659.051836,488.799335 666.520837,495.793413 672.431583,503.573829 C678.531372,511.604033 684.774294,519.525124 691.399803,527.056653 C697.540102,534.034499 704.07379,540.910446 709.817998,548.162428 C721.502659,562.914378 735.346912,576.24605 748.633038,589.569606 C751.357059,592.300146 754.34934,594.946821 756.766391,597.956908 C758.549697,600.176148 760.285292,601.646023 762.432281,603.958144 C764.231791,605.894231 766.429191,609.277647 767.900126,611.618625 C770.495418,615.753211 772.050972,617.567559 775.461849,621.14215 C777.711461,623.49936 782.198083,628.192137 781.235764,631.850592 C780.645229,634.095081 777.92661,634.171731 777.163236,636.047399 C776.737439,637.092543 777.61694,638.424448 777.583632,639.473199 C777.423395,644.622269 779.919664,646.048859 784.024599,649.820935 C788.161941,653.623672 793.505558,656.664419 798.378368,659.501367 C802.053905,661.642153 805.865373,664.549439 809.9352,662.597121 C812.763644,661.239065 815.702814,658.651004 818.677091,657.116202 C826.208206,653.229601 834.342459,649.74158 842.021208,646.609755 C859.184517,639.609365 876.388335,631.989463 892.862987,623.020523 C902.154904,617.96163 912.293013,612.952334 922.525643,610.512162 C927.132893,609.412912 931.9958,606.648105 935.388673,610.752031 C938.75634,614.822591 936.584145,620.373848 934.695515,624.488594 C939.4612,623.801451 945.777939,622.457823 948.862942,627.18126 C950.030508,628.968556 949.272535,633.690189 950.549026,634.729923 C951.111654,635.18892 955.66309,634.188865 956.561495,634.425127 C968.179541,637.483007 964.128619,654.699476 958.285388,661.183156 C944.936247,675.997327 925.020111,683.30071 907.644354,691.834098 C903.097418,694.066864 898.49287,695.9768 893.808203,697.81279 C887.807436,700.165491 882.317986,703.136802 876.226298,705.332596 C866.078287,708.991051 856.270553,714.305143 846.380001,718.344142 C836.281501,722.46971 825.03704,724.528436 814.427223,727.587218 C805.428774,730.18069 786.329124,736.102571 786.133779,721.562536 C777.639445,728.177873 766.777571,706.58244 762.452986,701.482968 C758.552397,696.883974 754.671614,692.211035 750.971771,687.448822 C747.594202,683.102322 744.274246,672.530948 739.848838,669.698509 C737.144622,667.967123 734.15234,671.431698 729.991593,672.257714 C722.770148,673.690616 719.191833,671.658943 713.100145,668.303481 C701.941204,662.15706 691.65096,654.59938 680.210255,648.949832 C668.882975,643.356193 659.217473,635.243928 648.594154,628.445533 C638.414635,621.931193 627.402427,616.501675 617.844951,609.265924 C599.102682,595.074872 577.307818,585.272702 559.722313,569.51168 C550.658148,561.38679 540.022226,554.619957 530.347723,547.086624 C525.939419,543.65361 521.278157,540.7337 516.699714,537.556787 C514.123327,535.76859 511.645063,533.111093 508.823821,531.751234 C506.023283,530.401294 507.445607,529.871959 504.82691,530.890951 C503.33437,531.471687 501.623081,534.179683 500.394301,535.270817 C482.227263,551.41058 461.71159,559.042205 438.783368,566.243689 C433.591886,567.874077 428.761386,569.646042 423.493386,571.024839 C418.467541,572.340512 414.789304,574.605742 409.319658,575.396588 C399.22836,576.856543 389.290996,576.934997 379.128582,576.995415 C369.121903,577.054931 358.828058,577.206428 349.111245,578.072121 C339.111768,578.963965 328.711699,577.249712 318.896764,576.438125 C313.929432,576.027823 308.795563,575.292885 303.818329,574.535404 C298.965324,573.797762 294.866691,574.734694 290.091103,574.212573 C276.666345,572.747207 264.716124,569.704657 251.925111,565.326595 C240.253052,561.331783 228.333437,560.611274 216.522747,557.27565 C210.244718,555.502783 203.133998,554.04373 197.34838,551.075124 C194.061732,549.388827 189.22403,543.32627 187.744093,547.624075 C185.990494,545.362452 184.871539,542.678804 185.063282,539.769715 C180.571259,540.87167 178.299142,546.674518 175.004391,549.713461 C171.351359,553.081548 167.75504,555.291771 165.265073,559.85289 C159.693704,570.059952 163.313429,584.003921 165.509029,594.709658 C167.810853,605.938417 169.891227,618.642462 168.560724,630.102974 C168.076414,634.279943 166.969161,640.389391 161.828991,640.663527 C156.597899,640.943073 153.534502,632.729811 151.68278,629.12907 C147.678668,638.673335 142.425071,642.033306 134.82194,633.907514 C133.37621,639.320801 137.269597,661.193075 126.409524,658.660923 C118.268069,656.762711 111.478723,638.949274 109.057172,632.25368 C101.084956,610.216383 102.338942,584.915604 105.09897,562.008105 C107.77618,539.788652 110.259846,515.343646 128.268447,499.416699 C136.059722,492.525422 143.661953,491.394611 153.540803,491.648006 C163.466464,491.903205 177.406138,496.341685 184.020845,503.921008 C185.660118,501.117425 182.371669,498.07758 183.69317,495.173902 C185.457572,491.29722 189.145712,492.920395 192.720426,493.798712 C200.797066,495.780789 208.301175,499.478921 216.617269,500.876654 C220.875239,501.592654 225.260137,501.375329 229.520808,501.808176 C233.270162,502.18872 234.267589,501.223833 237.52183,500.64941 C240.086514,500.196725 243.980801,500.841485 246.402353,500.00014 C247.414183,499.648452 249.104768,497.823283 250.365955,497.205575 C252.423824,496.198305 255.502525,495.739307 257.76114,495.417378 C271.349735,493.482193 284.340593,488.229421 297.49799,483.75487 C313.485631,478.318138 329.012368,473.078892 343.190597,463.418299 C356.169753,454.574704 370.145436,445.853749 380.865077,434.28773 C385.673072,429.100787 388.454706,423.146442 391.058099,416.693422 C393.34642,411.023133 390.391047,410.29541 387.617515,405.030013 C385.18066,400.404868 384.751262,396.043038 380.550906,393.248472 C374.413308,389.166189 367.155855,388.380753 361.126282,383.592389 C353.713093,377.705676 353.967851,368.328238 352.33578,359.362003 C348.99872,341.028249 351.681331,318.897168 356.230967,301.020608 C361.228905,281.384707 368.53947,262.390862 378.384112,244.698262 C387.666126,228.018342 400.216785,215.506373 413.705457,202.404651 C410.313484,200.048343 404.459451,199.696655 400.420231,197.887718 C394.521188,195.246452 389.695188,191.32829 384.554117,187.68787 C374.954331,180.891279 366.25745,173.458042 355.951903,167.730942 C346.380923,162.409635 336.285124,157.90713 326.0804,154.472313 C320.903321,152.729204 314.765723,153.171068 309.344688,151.724639 C305.114625,150.595631 300.30933,149.906684 296.211597,148.398935 C294.097916,147.621615 292.244393,145.913675 290.065897,145.429428 C266.383303,140.166736 240.168433,141.214585 215.576632,141.081124 C210.324836,141.052268 201.939426,139.512958 197.063015,141.798928 C191.974156,144.184995 186.270457,150.065394 181.713619,153.440695 C170.985876,161.386134 159.654095,168.282821 149.236923,176.58626 C136.901413,186.416384 124.301244,196.159939 111.514731,205.422854 C107.128032,208.599766 99.1225089,216.298122 95.544194,208.497867 C92.475395,201.804978 98.6508015,195.088644 100.898613,189.384088 C94.5764736,193.002865 81.3695656,203.042198 78.0730148,191.430189 C74.8853888,180.202331 84.9955915,169.675144 91.6220007,162.055242 C84.1881076,163.572008 69.8604444,167.774226 63.136813,162.608925 C56.2439431,157.312868 62.1573899,145.746849 67.0635073,141.683502 C82.0141124,129.301388 101.960855,121.674272 119.857832,114.68831 C138.019468,107.598645 156.311634,102.289963 174.944978,97.3275583 C178.778051,96.3058602 182.074602,93.0649221 186.052608,92.7078238 C190.636452,92.2957179 188.955769,95.2967869 191.135165,90.2036265 C192.083081,87.9879935 191.732901,85.2799977 192.979685,83.1572463 C199.043466,72.8446787 206.826639,88.256719 209.164472,93.6438543 C222.122023,88.3207443 235.332531,85.8066276 248.572747,81.888465 C259.03583,78.7918091 269.79328,75.4101959 280.382392,72.4181445 C286.086091,70.8057913 291.853704,70.0005165 297.621318,68.9364356 C303.130573,67.9201481 309.679564,66.2762332 315.5435,65.7099257 C325.544778,64.7423334 336.149193,63.8044994 346.009139,63.5772549 C394.167407,62.4644788 445.367468,59.397581 484.382354,93.7872347 C484.382354,96.9226665 494.427742,105.403752 496.906006,107.131531 C503.812379,111.948752 509.940075,116.678502 516.343233,122.39929 C523.26491,128.583584 528.80117,133.931041 532.906105,142.329165 C536.442111,149.565817 537.306308,157.551835 539.192237,165.318724 C544.224383,159.586214 545.774536,164.977858 546.743157,169.695885 C547.784694,174.768304 549.025177,177.816265 552.264114,181.975198 C559.184891,190.866587 568.276961,195.527802 579.398994,196.627954 C581.440659,196.829949 588.197598,197.406176 590.097931,196.624347 C593.545716,195.207676 592.514081,194.36092 593.994018,190.550068 C595.121075,187.646389 596.781953,185.520933 598.252888,182.831874 C600.048797,181.55137 600.727552,179.839822 600.289152,177.699036 C600.337763,176.756693 600.387275,175.81435 600.434985,174.872007 C604.175337,172.675311 608.433307,182.795803 609.80792,184.621874 C613.796729,189.918833 618.098808,190.817892 624.579384,190.817892 C624.156288,187.273961 623.218274,187.073769 626.555334,185.454202 C628.614103,184.455048 631.564075,185.15662 633.51662,185.94927 C639.128498,188.226223 639.007871,189.343508 645.349815,186.743724 C650.039883,184.821164 654.238439,182.321476 658.482906,179.580115 C662.094529,177.247252 662.663458,176.849575 664.049774,172.770898 C665.111116,169.649895 664.940077,165.499979 665.336167,162.262648 C661.053892,164.831772 658.54592,169.789668 653.84685,172.339855 C649.080265,174.927015 643.330655,176.544779 638.141873,174.163221 C627.343014,169.207129 630.386607,155.501225 633.571532,146.805519 C628.634808,145.958763 623.466731,143.02172 620.310612,139.152252 C618.185228,136.546156 616.647678,133.298003 614.37556,130.321282 C609.19218,123.53461 595.792628,121.909632 593.25315,132.2736 C591.959555,137.549818 595.029254,139.433602 599.868756,140.104515 C605.629168,140.902575 607.032588,139.485003 604.93511,146.293318 C602.624284,147.482744 601.90592,149.335868 602.78182,151.851788 C602.638687,152.688625 602.493754,153.525461 602.350622,154.363199 C601.825802,156.471523 600.701446,158.101911 600.087506,160.128174 C598.34561,165.871505 598.044941,167.445083 591.549962,169.195406 C580.156967,172.266812 566.924853,173.869246 555.179878,174.875614 C551.272989,175.210169 547.132045,175.168687 548.42654,169.863613 C549.495084,165.483747 556.76964,164.001248 560.45688,162.649504 C564.731054,161.083141 572.624952,160.353614 576.285185,158.092893 C580.186674,155.683381 579.813089,151.306221 578.938089,146.65222 C577.847941,140.843961 576.737988,136.425319 576.915329,130.183312 C577.109773,123.347945 579.567333,120.868095 583.63896,115.456612 C572.904915,118.436039 560.919586,126.229079 549.774147,126.213749 C534.94417,126.193009 537.692495,110.945991 540.650569,100.919282 C535.231335,101.834572 526.82162,104.097097 524.165115,97.3131301 C521.057607,89.3812182 528.809272,80.2238096 533.565055,74.9358683 C527.331136,74.3289814 521.384381,75.8349265 519.113164,68.3151205 C517.532404,63.0803832 519.473246,56.9014996 523.071365,52.9517754 C532.494712,42.607646 547.144648,40.5399022 560.055389,39.0808488 C567.194915,38.2746723 574.472172,37.6028584 581.635104,38.275574 C588.578385,38.927549 594.015623,41.8528699 600.352167,44.7908155 C606.976775,47.8631238 611.4778,52.1474023 615.901408,58.0106687 C617.979981,60.7655563 619.712876,63.4365798 620.877741,66.7099814 C621.445771,68.3070046 621.978692,76.202846 623.230877,77.1064131 C625.083499,78.4464337 636.432384,73.7843163 639.66592,73.915072 C643.237934,74.0593541 645.456039,75.1721303 647.56702,78.170494 C648.71028,79.7963737 649.876046,85.804824 652.015833,86.4604061 C653.050169,86.7769251 659.501938,84.1176245 661.017883,83.8858712 C663.222486,83.5486117 665.353271,83.0643647 667.612786,82.8470397 C674.629884,82.170717 681.922445,81.9813467 688.729795,84.134758 C702.314789,88.4298576 710.053852,100.755161 706.502543,115.275358 C705.839992,117.98155 703.98827,119.957314 703.177185,122.522831 C702.087037,125.972077 702.484028,129.581836 701.665741,133.148311 C699.940948,140.661804 696.739819,145.12373 690.255643,149.029268 C711.104391,165.624422 688.491241,203.33978 666.952035,184.310766 C660.832441,192.891948 647.505806,199.032055 637.509029,201.419925 C624.037461,204.638319 611.528212,202.75183 604.323871,190.323725 C603.506485,192.455494 602.180483,194.752286 601.777191,196.974231 C601.460319,197.800247 601.144347,198.62536 600.828375,199.450474 C599.886761,200.702122 600.339564,201.425336 602.184984,201.618313 C603.444371,205.176672 604.368881,205.538279 602.512659,209.8442 C616.280394,205.076576 630.790799,217.474021 640.296964,226.662992 C646.700123,232.853598 650.105598,241.935259 654.116012,249.684113 C658.820483,258.773889 662.401499,268.272164 666.745888,277.50983 C670.649177,285.812366 673.059026,294.831805 677.321497,302.950382 C681.353515,310.632506 687.8746,316.172941 694.641441,321.095668 C700.917671,325.661296 707.214605,330.225122 715.246234,332.124236 C724.396818,334.287566 734.610545,331.226079 743.554082,328.930189" id="Fill-1" fill="#000000"></path>
        <path d="M130,370.857597 C130.70811,359.577288 147.762215,349.308978 155.49377,342.404051 C165.519926,333.449802 175.585721,324.407829 186.594763,316.499946 C214.166017,296.693159 242.815652,278.857013 273.336463,264.059576 C278.005847,261.795918 312.045588,245.642819 312.983428,254.771612 C313.544691,260.234961 299.687893,262.967992 295.900494,264.602203 C287.594163,268.188967 279.714861,272.696388 271.689611,276.799552 C247.606657,289.112661 225.763348,306.51742 203.468687,322.258122 C190.162341,331.652803 177.716358,342.271107 164.538842,351.798731 C157.515397,356.876815 151.342406,362.913539 144.559503,368.178829 C139.721651,371.933807 132.322529,379.862491 130,370.857597" id="Fill-3" fill="#000000"></path>
        <path d="M706.003192,444.106981 C709.773489,442.578833 714.117273,457.882788 715.763244,460.613679 C718.90082,465.819271 722.334563,471.199252 726.143451,475.914938 C734.941409,486.808837 743.871295,497.252382 754.247015,506.701731 C764.19105,515.760055 775.421167,524.336562 787.351316,530.683771 C790.786854,532.512155 816.529159,540.702131 806.828341,548.878623 C803.828078,551.40636 794.437787,549.011662 791.219438,548.004882 C785.657779,546.264591 779.497503,543.363806 774.407019,540.548417 C763.727055,534.639877 753.739941,527.101612 745.18161,518.390268 C735.397327,508.430337 727.397225,497.504976 719.524566,486.007907 C712.460532,475.692907 701.647741,456.826568 706.003192,444.106981" id="Fill-5" fill="#000000"></path>
        <path d="M276,316.16557 C274.511636,319.418364 271.944027,318.533864 269.165989,319.56909 C264.84901,321.178338 260.746978,324.122459 256.750612,326.418549 C249.070365,330.83112 241.465077,335.421495 233.9492,340.108442 C219.985853,348.815351 206.495747,358.24069 194.033408,369 C186.179759,361.103582 225.502192,333.285156 230.665407,329.962866 C238.383586,324.996129 246.395283,319.872347 254.676114,315.878559 C261.171451,312.745805 275.7119,304.230236 276,316.16557" id="Fill-7" fill="#000000"></path>
        <path d="M755.419862,466.097136 C760.633865,465.021486 762.132413,473.179769 764.302035,475.729624 C767.748333,479.779657 772.142135,483.243949 776.258596,486.46463 C781.269822,490.384797 785.784563,494.425874 791.048578,498.011972 C795.330535,500.929035 804.761933,505.477038 803.950825,511.88974 C802.097645,526.548496 775.709371,505.454647 771.269194,501.067857 C764.938554,494.816369 746.425844,475.41078 755.419862,466.097136" id="Fill-9" fill="#000000"></path>
        <path d="M815,498.281399 C811.410989,510.795064 787.264418,488.453108 789.099346,479.456651 C790.765316,471.294739 799.490311,479.740559 803.16471,482.840042 C808.232565,487.114037 814.760188,491.340112 815,498.281399" id="Fill-11" fill="#000000"></path>
        <path d="M254.805618,362.188447 C249.162087,360.580043 235.19428,367.66168 243.655469,356.856007 C246.073343,353.769737 248.800638,350.826126 252.173248,352.472758 C255.585106,354.13897 257.322068,359.355792 254.805618,362.188447" id="Fill-13" fill="#000000"></path>
        <path d="M607,208.333979 C605.666399,208.889642 604.332798,209.444337 603,210 C603.477204,208.666021 603.956015,207.333011 604.43563,206 C604.937739,207.341723 605.791725,208.119071 607,208.333979" id="Fill-21" fill="#CF536D"></path>
        <path d="M325,65.2070786 C321.919562,65.7580786 319.123996,65.8570786 316,65.7600786 C319.048204,65.2280786 321.919562,65.2380786 325,65.2070786" id="Fill-25" fill="#CF536D"></path>
        <path d="M103.3515,593 C103.4515,595.668761 103.5505,598.336624 103.6485,601 C103.5485,598.328547 103.4505,595.664274 103.3515,593" id="Fill-27" fill="#CF536D"></path>
        <path d="M707.343972,112 C707.286972,109.66525 707.230972,107.3305 707.173972,105 C708.114972,107.321151 707.914972,109.656751 707.343972,112" id="Fill-29" fill="#CF536D"></path>
        <path d="M336,64.7670636 C333.666667,64.7780636 331.332402,64.7900636 329,64.8010636 C331.674115,64.0100636 334.079143,63.9980636 336,64.7670636" id="Fill-31" fill="#CF536D"></path>
        <path d="M351.628,328 C351.542,330.001116 351.456,332.001395 351.372,334 C351.458,331.998884 351.543,329.999442 351.628,328" id="Fill-33" fill="#CF536D"></path>
        <path d="M397,62.2735 C394.999419,62.4245 392.999709,62.5755 391,62.7265 C393.000581,62.5755 395.000291,62.4245 397,62.2735" id="Fill-35" fill="#CF536D"></path>
        <path d="M405,62.7155 L399,62.2845 C401.000289,62.4285 402.999711,62.5715 405,62.7155" id="Fill-37" fill="#CF536D"></path>
        <path d="M149,491.634066 C146.986763,491.678066 144.93295,492.374066 143,491.132066 C144.999424,491.300066 147.000576,491.467066 149,491.634066" id="Fill-39" fill="#CF536D"></path>
        <path d="M953,314.167814 C951.059549,315.453814 949,314.449814 947,314.598814 C949,314.454814 951,314.311814 953,314.167814" id="Fill-41" fill="#CF536D"></path>
        <path d="M555,40.1225169 C553.081334,41.4315169 551.015886,40.6545169 549,40.5905169 C551.000635,40.4345169 553.000318,40.2785169 555,40.1225169" id="Fill-43" fill="#CF536D"></path>
        <path d="M232,501.768343 C230.332507,501.785343 228.66584,501.802343 227,501.818343 C228.661706,500.894343 230.3292,501.063343 232,501.768343" id="Fill-45" fill="#CF536D"></path>
        <path d="M528,74.5605 C529.002886,74.5205 530.00656,74.4805 531,74.4395 C529.993965,74.4795 528.997376,74.5195 528,74.5605" id="Fill-47" fill="#CF536D"></path>
        <path d="M376,62.3215354 C374.665839,62.5095354 373.331678,62.6975354 372,62.8845354 C373.210014,61.4145354 374.670805,62.5455354 376,62.3215354" id="Fill-49" fill="#CF536D"></path>
        <path d="M758,325.2515 C756.666105,325.4175 755.333052,325.5825 754,325.7485 C755.333895,325.5825 756.666948,325.4175 758,325.2515" id="Fill-51" fill="#CF536D"></path>
        <path d="M142,638.5955 C143.002752,638.5315 144.006422,638.4675 145,638.4045 C143.994495,638.4695 142.997248,638.5325 142,638.5955" id="Fill-53" fill="#CF536D"></path>
        <path d="M765,324.437 C763.666111,324.479 762.333056,324.521 761,324.563 C762.334722,324.521 763.666944,324.479 765,324.437" id="Fill-55" fill="#CF536D"></path>
        <path d="M602.531,152 C602.51,150.99842 602.489,149.996051 602.469,149 C602.489,150.00316 602.51,151.00158 602.531,152" id="Fill-57" fill="#CF536D"></path>
        <path d="M579.617,153 C579.538,154.334562 579.459,155.669124 579.383,157 C579.463,155.664516 579.54,154.331797 579.617,153" id="Fill-59" fill="#CF536D"></path>
        <path d="M359,577.574 C360.003955,577.525 361.006085,577.475 362,577.426 C360.99422,577.475 359.997566,577.525 359,577.574" id="Fill-61" fill="#CF536D"></path>
        <path d="M77,164.511 C78.0037279,164.504 79.0065238,164.496 80,164.489 C78.9934762,164.496 77.9962721,164.504 77,164.511" id="Fill-63" fill="#CF536D"></path>
        <path d="M816,322.89484 C814.66576,322.89384 813.332427,322.89184 812,322.88984 C813.335146,322.22484 814.668479,321.51784 816,322.89484" id="Fill-65" fill="#CF536D"></path>
        <path d="M814.292363,498 C814.245363,496.66569 814.198363,495.330403 814.152363,494 C814.989363,495.30989 815.112363,496.639316 814.292363,498" id="Fill-67" fill="#CF536D"></path>
        <path d="M793,322.2795 C791.666667,322.4265 790.333333,322.5735 789,322.7205 C790.333333,322.5735 791.666667,322.4265 793,322.2795" id="Fill-69" fill="#CF536D"></path>
        <path d="M276.5505,316 C276.5165,314.665714 276.4835,313.331429 276.4495,312 C276.4845,313.334286 276.5175,314.667619 276.5505,316" id="Fill-71" fill="#CF536D"></path>
        <path d="M199,141.546 C199.669,141.515 200.339557,141.484 201,141.454 C200.32711,141.484 199.664333,141.515 199,141.546" id="Fill-73" fill="#CF536D"></path>
        <path d="M419,64.8055 C417.666667,64.6015 416.333333,64.3975 415,64.1945 C416.333333,64.3975 417.666667,64.6015 419,64.8055" id="Fill-75" fill="#CF536D"></path>
        <path d="M161,491.7605 C159.666667,491.5875 158.333333,491.4135 157,491.2395 C158.333333,491.4135 159.666667,491.5875 161,491.7605" id="Fill-77" fill="#CF536D"></path>
        <path d="M272,492.2625 C270.666344,492.4205 269.332688,492.5785 268,492.7375 C269.333656,492.5785 270.666344,492.4205 272,492.2625" id="Fill-79" fill="#CF536D"></path>
        <path d="M807,322.136106 C805.671886,323.100106 804.336922,323.105106 803,322.159106 C804.333986,322.152106 805.666993,322.144106 807,322.136106" id="Fill-81" fill="#CF536D"></path>
        <path d="M247,499 C246.498643,500.51426 245.119457,499.862917 244,499.84856 C245,499.565958 246.000905,499.283357 247,499" id="Fill-83" fill="#CF536D"></path>
        <path d="M532,102.5635 C532.6687,102.5205 533.3374,102.4775 534,102.4365 C533.329013,102.4805 532.664125,102.5215 532,102.5635" id="Fill-85" fill="#CF536D"></path>
        <path d="M348,63.2515 C346.666341,63.4175 345.331703,63.5835 344,63.7485 C345.333659,63.5825 346.667319,63.4175 348,63.2515" id="Fill-87" fill="#CF536D"></path>
        <path d="M840,381.462 C840.669249,381.486 841.338497,381.511 842,381.538 C841.328428,381.515 840.663826,381.488 840,381.462" id="Fill-89" fill="#CF536D"></path>
        <path d="M355.6195,372 C355.5405,373.002003 355.4615,374.004007 355.3805,375 C355.4585,373.995421 355.5385,372.99771 355.6195,372" id="Fill-91" fill="#CF536D"></path>
        <path d="M551,174.4785 C551.669511,174.4935 552.339798,174.5085 553,174.5215 C552.328161,174.5055 551.663305,174.4925 551,174.4785" id="Fill-93" fill="#CF536D"></path>
        <path d="M242,562.431 C242.669771,562.477 243.339542,562.524 244,562.569 C243.327901,562.522 242.663562,562.476 242,562.431" id="Fill-95" fill="#CF536D"></path>
        <path d="M777,323.835236 C775.666667,323.832236 774.332335,323.828236 773,323.824236 C774.337328,322.786236 775.669663,323.116236 777,323.835236" id="Fill-97" fill="#CF536D"></path>
        <path d="M908,370.5715 C908.668845,370.5235 909.337691,370.4755 910,370.4285 C909.328976,370.4755 908.664488,370.5235 908,370.5715" id="Fill-99" fill="#CF536D"></path>
        <path d="M928,609.229 C926.666331,609.41 925.332662,609.591 924,609.771 C925.334676,609.59 926.667338,609.41 928,609.229" id="Fill-101" fill="#CF536D"></path>
        <path d="M670,82.258 C668.666029,82.42 667.333014,82.581 666,82.742 C667.333971,82.581 668.666986,82.42 670,82.258" id="Fill-103" fill="#CF536D"></path>
        <path d="M524.6335,92 C524.5455,93.0020103 524.4575,94.0031591 524.3665,95 C524.4545,93.9962665 524.5435,92.998564 524.6335,92" id="Fill-105" fill="#CF536D"></path>
        <path d="M410,371.033349 C405.938927,373.294926 401.553116,375.19036 397.554777,377.500698 C394.730846,379.131941 392.430924,382.964477 390,379.761389 C395.357258,377.14342 404.036625,370.472165 410,371.033349" id="Fill-117" fill="#CF536D"></path>
        <path d="M152.760665,573 C151.940665,570.658758 151.951665,568.323448 152.840665,566 C152.814665,568.336158 152.786665,570.668079 152.760665,573" id="Fill-119" fill="#CF536D"></path>
        <path d="M157.784206,606 C157.852206,607.333613 157.921206,608.667227 157.989206,609.999951 C157.766206,610.015955 156.036206,606.085351 157.784206,606" id="Fill-121" fill="#CF536D"></path>
        <path d="M190.339,119 C190.446,117.33185 190.555,115.663699 190.661,114 C190.554,115.66904 190.446,117.33452 190.339,119" id="Fill-123" fill="#CF536D"></path>
        <path d="M665,131.525 C663.662257,131.507 662.326279,131.49 661,131.475 C662.339506,131.493 663.669312,131.509 665,131.525" id="Fill-125" fill="#CF536D"></path>
        <path d="M367,557.699 C368.667259,557.566 370.333629,557.433 372,557.301 C370.333629,557.434 368.666371,557.566 367,557.699" id="Fill-127" fill="#CF536D"></path>
        <path d="M117.2745,617 C117.4245,618.334558 117.5755,619.669116 117.7255,621 C117.5745,619.665442 117.4235,618.332721 117.2745,617" id="Fill-129" fill="#CF536D"></path>
        <path d="M303,554.735 C304.333607,554.578 305.667214,554.422 307,554.265 C305.666393,554.422 304.332786,554.579 303,554.735" id="Fill-131" fill="#CF536D"></path>
        <path d="M291,552.366876 C292.31957,552.681876 293.822754,551.249876 295,552.908876 C293.665495,552.726876 292.333626,552.546876 291,552.366876" id="Fill-133" fill="#CF536D"></path>
        <path d="M116.617,590 C116.539,591.001781 116.46,592.003562 116.383,593 C116.463,591.995548 116.54,590.998219 116.617,590" id="Fill-135" fill="#CF536D"></path>
        <path d="M145.4465,157 C145.4815,158.001399 145.5165,159.002798 145.5535,160 C145.5195,158.996083 145.4825,157.998041 145.4465,157" id="Fill-137" fill="#CF536D"></path>
        <path d="M130.2915,602 C130.4305,600.999445 130.5695,599.998058 130.7085,599 C130.5685,600.00222 130.4305,601.00111 130.2915,602" id="Fill-139" fill="#CF536D"></path>
        <path d="M851,366.7655 C852.333972,366.5885 853.666986,366.4115 855,366.2345 C853.666986,366.4115 852.333972,366.5885 851,366.7655" id="Fill-141" fill="#CF536D"></path>
        <path d="M116.3565,611 C116.4525,612.001339 116.5475,613.001875 116.6435,614 C116.5475,612.998661 116.4525,611.999732 116.3565,611" id="Fill-143" fill="#CF536D"></path>
        <path d="M844.188231,362 C845.039231,362.997668 844.993231,363.999709 844.208231,365 C844.202231,363.996211 844.195231,362.998543 844.188231,362" id="Fill-145" fill="#CF536D"></path>
        <path d="M538,358.593 C537.330406,358.532 536.661544,358.47 536,358.407 C536.671789,358.468 537.335529,358.531 538,358.593" id="Fill-147" fill="#CF536D"></path>
        <path d="M101,144.7585 L105,144.2415 L101,144.7585 Z" id="Fill-149" fill="#CF536D"></path>
        <path d="M771.366028,377.921007 C763.962881,378.996775 770.787643,368.753556 772.79434,367.332367 C775.128699,365.680591 777.598828,365.023739 779.860775,363.039402 C781.276416,361.798273 782.880325,358.804314 785.052663,359.010097 C789.844479,359.461166 787.683908,366.331012 786.25469,369.277201 C783.455995,375.044638 777.599733,378.019305 771.366028,377.921007" id="Fill-151" fill="#000000"></path>
        <path d="M531.100782,260 C526.742055,258.4541 504.709894,254.266825 514.468117,245.344536 C520.913744,239.450098 538.824813,254.518914 531.100782,260" id="Fill-153" fill="#000000"></path>
        <path d="M430.016157,329.86828 C429.334205,322.0732 450.481015,313.440038 447.757712,323.681212 C447.125308,326.061916 441.13188,331.937698 439.496818,333.493214 C435.118634,337.659677 430.01886,336.752523 430.016157,329.86828" id="Fill-155" fill="#000000"></path>
        <path d="M232,114.42986 C233.432996,109.378152 235.01166,107.004105 240.017931,105.052558 C243.218258,103.803348 248.520254,102.668451 248.984464,107.880198 C249.327575,111.726593 243.900971,115.46782 241.275421,117.104778 C236.579794,120.033928 233.993733,119.878462 232,114.42986" id="Fill-157" fill="#000000"></path>
        <path d="M517.984519,300.360088 C518.036458,305.661793 516.181483,311.89478 511.512512,315.079103 C507.857284,317.571382 499.546069,318.743733 502.700454,311.522634 C503.661331,309.323673 506.373304,308.234734 508.031651,306.604991 C510.759392,303.92114 510.984771,301.014551 512.511416,298.502107 C513.032663,297.642322 512.208127,295.611101 513.847925,295.109713 C516.586795,294.272842 518.175581,298.437028 517.984519,300.360088" id="Fill-159" fill="#000000"></path>
        <path d="M617.189459,257 C620.958252,256.993713 624.521407,258.348252 622.328555,262.649792 C620.665933,265.911319 613.447409,268.413115 610.182105,268.870036 C605.990049,269.456732 601.306492,268.160773 603.607235,262.848061 C605.524368,258.423955 613.037056,258.026515 617.189459,257" id="Fill-161" fill="#000000"></path>
        <path d="M648,327.003645 C647.844285,336.723512 630.32722,326.565288 632.13019,319.273179 C634.402055,310.085351 646.596815,322.711986 648,327.003645" id="Fill-163" fill="#000000"></path>
        <path d="M446.993162,155.988987 C446.993162,164.245023 429.591257,153.671584 431.091743,146.449396 C433.093874,136.822269 447.356943,149.752732 446.993162,155.988987" id="Fill-165" fill="#000000"></path>
        <path d="M429.829693,121 C422.477941,115.123152 439.334302,100.002974 444.174838,106.660745 C448.557474,112.690697 434.266625,120.640341 429.829693,121" id="Fill-167" fill="#000000"></path>
        <path d="M434.912106,245 C430.883518,244.638037 426.2396,244.678255 422.69366,242.368458 C420.104998,240.682956 415.612464,234.174026 419.554674,231.364245 C421.981266,229.633954 428.108744,234.559754 430.594999,235.854045 C434.836414,238.061469 437.656603,239.436195 434.912106,245" id="Fill-169" fill="#000000"></path>
        <path d="M605.449175,299.998995 C595.957433,300.123391 592.95615,288.652324 604.392997,290.131745 C607.43309,290.52448 614.927057,291.255749 614.999132,295.260405 C615.08322,299.878154 609.038148,299.406338 605.449175,299.998995" id="Fill-171" fill="#000000"></path>
        <path d="M509,194.317652 C508.316983,198.67436 507.139715,201.877148 503.316099,204.423699 C500.029595,206.611742 493.576046,209.523848 494.021968,202.987906 C494.287332,199.098051 507.244584,184.543687 509,194.317652" id="Fill-173" fill="#000000"></path>
        <path d="M324.194893,102 C327.971682,103.809124 332.903869,123.07842 327.839438,124.772483 C319.788203,127.466697 321.613521,105.411137 324.194893,102" id="Fill-175" fill="#000000"></path>
        <path d="M488.320194,283 C482.452504,276.341339 497.82813,263.103635 501.529343,269.87669 C504.586443,275.471027 491.886222,280.635242 488.320194,283" id="Fill-177" fill="#000000"></path>
        <path d="M383.01932,106.470295 C384.054495,96.2667198 395.786477,111.333166 394.958156,116.239226 C393.506563,124.831033 382.477343,111.040034 383.01932,106.470295" id="Fill-179" fill="#000000"></path>
        <path d="M392,360.238898 C391.938181,367.04961 378.56769,359.988491 380.126403,352.798244 C381.886469,344.676169 391.90109,356.441791 392,360.238898" id="Fill-181" fill="#000000"></path>
        <path d="M662,365.013282 C665.964008,353.165624 668.280857,361.225108 669.394161,368.701934 C669.750381,371.090465 671.360491,377.698735 667.217899,376.939653 C663.365982,376.23395 662.312523,367.51943 662,365.013282" id="Fill-183" fill="#000000"></path>
        <path d="M710.476387,372 C713.58291,374.127717 719.792467,390.041304 712.814565,387.780715 C707.492835,386.057814 706.389592,375.138427 710.476387,372" id="Fill-185" fill="#000000"></path>
        <path d="M553.731537,307 C554.084803,311.27351 554.663557,312.736458 556.939112,316.255871 C558.892406,319.276693 560.167356,320.686411 557.413577,324 C554.148691,321.50882 550.203581,319.572122 549.229283,315.419267 C548.474836,312.210364 549.483897,307.132189 553.731537,307" id="Fill-187" fill="#000000"></path>
        <path d="M460.778878,263 C458.478611,261.173214 450.460826,251.426465 452.261075,247.89043 C454.483071,243.52355 465.659349,256.287726 460.778878,263" id="Fill-189" fill="#000000"></path>
        <path d="M611.788482,334 C614.272856,336.202209 613.127235,340.856115 613.553002,343.703647 C613.983159,346.589968 616.385891,350.442511 613.864646,353 C607.662489,349.453369 607.873178,339.062082 611.788482,334" id="Fill-191" fill="#000000"></path>
        <path d="M399.000157,296.973362 C398.958672,293.536833 407.142351,287.285197 408.842329,291.30026 C410.301692,294.746827 401.207178,305.067364 399.000157,296.973362" id="Fill-193" fill="#000000"></path>
    </g>
</svg>