<?xml version="1.0" standalone="no"?><svg xmlns="http://www.w3.org/2000/svg" viewBox="0 0 1440 320"><path fill="#272727" fill-opacity="1" d="M0,0L21.8,42.7C43.6,85,87,171,131,224C174.5,277,218,299,262,266.7C305.5,235,349,149,393,133.3C436.4,117,480,171,524,176C567.3,181,611,139,655,106.7C698.2,75,742,53,785,80C829.1,107,873,181,916,181.3C960,181,1004,107,1047,85.3C1090.9,64,1135,96,1178,117.3C1221.8,139,1265,149,1309,170.7C1352.7,192,1396,224,1418,240L1440,256L1440,0L1418.2,0C1396.4,0,1353,0,1309,0C1265.5,0,1222,0,1178,0C1134.5,0,1091,0,1047,0C1003.6,0,960,0,916,0C872.7,0,829,0,785,0C741.8,0,698,0,655,0C610.9,0,567,0,524,0C480,0,436,0,393,0C349.1,0,305,0,262,0C218.2,0,175,0,131,0C87.3,0,44,0,22,0L0,0Z"></path></svg>