<svg width="941" height="179" viewBox="0 0 941 179" fill="none" xmlns="http://www.w3.org/2000/svg">
<g clip-path="url(#clip0_10_3)">
<mask id="mask0_10_3" style="mask-type:luminance" maskUnits="userSpaceOnUse" x="-5" y="0" width="952" height="179">
<path d="M947 0H-5V179H947V0Z" fill="white"/>
</mask>
<g mask="url(#mask0_10_3)">
<path d="M947 0H-5V179H947V0Z" fill="#EFEFEA"/>
<path d="M753.519 135.669C809.806 137.322 868.619 134.781 921.832 120.188C1002.54 98.053 1063.69 40.1355 1087.68 -17.0892C1115.88 -84.349 1111.41 -149.445 1085.39 -214.09C1088.74 -243.57 1086.99 -273.092 1080.41 -301.024C1068.31 -352.325 1040.43 -401.711 1009.49 -448.489C976.003 -499.106 935.781 -546.595 883.401 -588.6C788.763 -664.5 678 -727.155 555.569 -778.175C555.776 -778.715 555.91 -779.28 555.963 -779.88C556.507 -786.04 551.595 -792.595 545.673 -798.44C539.727 -804.305 532.433 -809.755 527.898 -813.585C505.433 -832.56 479.615 -849.26 453.219 -865.33C437.591 -874.845 421.258 -883.68 406.336 -893.61C405.313 -894.29 404.686 -894.825 404.336 -895.23C404.041 -895.57 404.009 -895.74 404.006 -895.785C404.027 -895.8 404.078 -895.835 404.189 -895.885C404.457 -895.995 404.913 -896.105 405.586 -896.18C406.921 -896.33 408.715 -896.315 410.576 -896.235C412.431 -896.15 414.218 -896.01 415.598 -895.925C450.156 -893.76 484.144 -885.91 517.419 -876.2C534.054 -871.345 550.495 -866.03 566.736 -860.74C582.969 -855.45 599.007 -850.18 614.802 -845.425C618.758 -844.235 650.623 -835.675 681.372 -828.275C696.75 -824.575 711.882 -821.155 723.121 -819.095C728.734 -818.065 733.435 -817.36 736.727 -817.135C738.353 -817.025 739.761 -817.02 740.799 -817.195C741.315 -817.285 741.87 -817.445 742.307 -817.75C742.803 -818.1 743.034 -818.575 742.968 -819.085C742.128 -825.51 736.767 -832.06 730.513 -837.985C724.245 -843.92 716.821 -849.455 711.73 -853.71C700.26 -863.285 688.089 -872.505 676.123 -881.79C664.15 -891.085 652.38 -900.455 641.661 -910.385C633.54 -917.905 632.308 -923.29 634.64 -927.165C637.035 -931.145 643.438 -934.025 652.179 -936.025C669.551 -940 694.555 -940.13 708.524 -939.75C751.265 -938.585 793.457 -933.395 835.742 -927.985C878 -922.575 920.351 -916.95 963.27 -914.955C995.109 -913.475 1034.04 -912.13 1064.09 -922.755C1065.76 -923.35 1066.97 -924.005 1067.57 -924.825C1068.25 -925.745 1068.03 -926.65 1067.51 -927.4C1067.03 -928.1 1066.22 -928.77 1065.46 -929.37C1064.66 -930.01 1063.86 -930.61 1063.17 -931.27C1062.73 -931.685 1061.92 -931.75 1061.37 -931.415C1060.82 -931.085 1060.73 -930.475 1061.17 -930.055C1061.95 -929.315 1062.87 -928.625 1063.61 -928.035C1064.39 -927.415 1064.95 -926.925 1065.25 -926.5C1065.5 -926.125 1065.47 -925.94 1065.34 -925.77C1065.14 -925.495 1064.55 -925.055 1063.01 -924.51C1033.65 -914.13 995.393 -915.405 963.429 -916.89C920.668 -918.875 878.463 -924.48 836.171 -929.895C793.9 -935.3 751.549 -940.515 708.617 -941.685C694.641 -942.065 669.254 -941.955 651.439 -937.88C642.587 -935.855 635.197 -932.76 632.31 -927.965C629.361 -923.065 631.356 -916.87 639.679 -909.16C650.473 -899.165 662.312 -889.74 674.292 -880.44C686.284 -871.13 698.409 -861.95 709.833 -852.41C715.076 -848.035 722.301 -842.66 728.509 -836.78C734.645 -830.97 739.53 -824.88 740.389 -819.12C740.35 -819.105 740.29 -819.095 740.224 -819.085C739.603 -818.975 738.532 -818.955 736.958 -819.06C733.864 -819.27 729.316 -819.945 723.73 -820.975C712.577 -823.02 697.51 -826.425 682.146 -830.12C651.415 -837.515 619.618 -846.055 615.748 -847.225C599.995 -851.965 583.995 -857.225 567.748 -862.515C551.509 -867.81 535.027 -873.135 518.34 -878.005C484.971 -887.74 450.721 -895.67 415.809 -897.85C414.509 -897.935 412.617 -898.085 410.725 -898.165C408.838 -898.25 406.819 -898.275 405.207 -898.095C404.406 -898.005 403.606 -897.85 402.951 -897.575C402.276 -897.295 401.631 -896.825 401.479 -896.1C401.337 -895.42 401.682 -894.76 402.197 -894.165C402.724 -893.56 403.54 -892.895 404.645 -892.16C419.605 -882.2 436.157 -873.235 451.614 -863.825C477.983 -847.77 503.669 -831.15 525.991 -812.295C530.683 -808.33 537.77 -803.055 543.642 -797.26C549.54 -791.445 553.885 -785.395 553.41 -780.01C553.382 -779.71 553.329 -779.42 553.252 -779.14C533.468 -787.35 513.38 -795.26 493.007 -802.875C370.017 -848.83 232.328 -891.125 94.0464 -907.215C45.1599 -912.905 -2.71576 -914.405 -52.0252 -910.54C-114.949 -905.61 -182.506 -900.46 -242.107 -883.835C-317.448 -862.825 -363.06 -821.33 -385.868 -767.255C-396.755 -741.45 -400.071 -713.685 -404.687 -687.24C-411.172 -650.09 -416.481 -612.685 -416.154 -575.145C-415.856 -540.975 -411.425 -506.75 -401.771 -473.23C-389.372 -430.18 -364.305 -391.044 -336.503 -352.13C-285.64 -280.935 -221.564 -218.768 -144.998 -160.194C-49.5432 -87.1714 76.4714 -29.2956 200.115 16.2867C263 39.4699 327.879 61.2425 394.449 79.7135C325.131 73.534 247.189 66.181 216.889 62.488C28.5301 39.5285 -139.911 -21.7026 -313.635 -75.869C-314.288 -76.0724 -315.036 -75.837 -315.306 -75.343C-315.575 -74.8489 -315.263 -74.283 -314.61 -74.0795C-141.075 -19.972 27.745 41.393 216.481 64.3985C248.413 68.2905 333.087 76.2325 404.944 82.595C456.436 96.573 508.925 108.526 562.272 117.587C624.79 128.206 689.332 133.784 753.519 135.669ZM693.761 87.9835C632.33 99.9805 570.024 93.8926 506.918 89.2261C487.363 87.78 448.789 84.5271 405.535 80.6985C335.499 61.675 267.284 38.8961 201.236 14.547C77.711 -30.9917 -48.0131 -88.7535 -143.178 -161.555C-219.606 -220.023 -283.523 -282.045 -334.252 -353.049C-362.031 -391.933 -386.952 -430.871 -399.271 -473.642C-408.882 -507.015 -413.298 -541.11 -413.595 -575.155C-413.921 -612.56 -408.632 -649.86 -402.151 -686.99C-397.514 -713.55 -394.227 -741.07 -383.43 -766.67C-360.829 -820.25 -315.728 -861.24 -241.222 -882.02C-181.977 -898.545 -114.759 -903.68 -51.7611 -908.615C-2.69626 -912.46 44.9581 -910.97 93.657 -905.3C231.559 -889.255 368.975 -847.065 491.873 -801.14C512.308 -793.505 532.455 -785.57 552.296 -777.33C551.734 -776.65 550.97 -776.04 550.015 -775.5C547.915 -774.31 544.89 -773.44 541.111 -772.86C533.558 -771.705 523.422 -771.785 512.883 -772.475C491.84 -773.855 469.637 -777.65 464.287 -778.545C424.985 -785.155 387.528 -795.44 350.441 -806.6C313.385 -817.745 276.641 -829.78 238.917 -839.82C232.516 -841.52 219.4 -844.02 209.569 -845.755C204.645 -846.625 200.504 -847.31 198.399 -847.615C197.878 -847.69 197.455 -847.745 197.171 -847.775C197.06 -847.785 196.866 -847.8 196.69 -847.795C196.644 -847.795 196.534 -847.79 196.404 -847.765C196.337 -847.75 196.222 -847.725 196.093 -847.67C195.969 -847.62 195.753 -847.51 195.596 -847.3C195.19 -846.76 195.616 -846.295 195.729 -846.195C195.866 -846.07 196.012 -846 196.054 -845.98C196.23 -845.9 196.445 -845.84 196.541 -845.815C196.686 -845.78 196.871 -845.735 197.089 -845.685C197.528 -845.585 198.149 -845.455 198.965 -845.29C202.76 -844.525 209.742 -842.465 216.928 -840.21C224.084 -837.97 231.349 -835.565 235.667 -834.13C272.451 -821.915 293.48 -811.24 319.323 -800.46C416.165 -760.055 473.133 -735.115 555.836 -698.675C784.843 -597.77 962.801 -436.747 1060.71 -259.872C1069.2 -244.547 1076.61 -229.225 1082.8 -213.884C1076.15 -156.047 1049.8 -98.431 1001.83 -53.5215C927.286 16.2549 811.823 64.9265 693.761 87.9835ZM1083.34 -219.078C1077.53 -232.938 1070.73 -246.781 1063.07 -260.62C964.956 -437.86 786.641 -599.22 557.124 -700.35C474.415 -736.79 417.427 -761.74 320.559 -802.155C294.891 -812.86 273.62 -823.64 236.696 -835.9C232.377 -837.335 225.09 -839.75 217.908 -842C217.255 -842.205 216.601 -842.41 215.95 -842.61C224.304 -841.065 233.216 -839.28 238.067 -837.99C275.729 -827.97 312.341 -815.98 349.495 -804.8C386.618 -793.63 424.226 -783.3 463.732 -776.66C469.07 -775.76 491.428 -771.94 512.663 -770.545C523.262 -769.85 533.695 -769.75 541.619 -770.965C545.579 -771.57 549.02 -772.52 551.549 -773.95C552.781 -774.65 553.794 -775.46 554.54 -776.395C676.685 -725.475 787.157 -662.97 881.543 -587.275C933.705 -545.44 973.795 -498.119 1007.2 -447.623C1038.11 -400.897 1065.86 -351.708 1077.89 -300.684C1084.07 -274.43 1085.96 -246.772 1083.34 -219.078ZM920.959 118.369C868.196 132.838 809.773 135.384 753.618 133.734C689.557 131.854 625.173 126.287 562.832 115.699C513.233 107.274 464.368 96.3419 416.345 83.6005C455.043 87.001 488.796 89.8309 506.67 91.1525C569.614 95.8065 632.435 101.959 694.403 89.8575C812.867 66.7225 928.853 17.8668 1003.82 -52.305C1050.83 -96.3125 1077.2 -152.373 1084.76 -208.938C1109.03 -146.1 1112.59 -82.8965 1085.24 -17.6742C1061.43 39.1021 1000.77 96.4795 920.959 118.369Z" fill="#272727"/>
<mask id="mask1_10_3" style="mask-type:luminance" maskUnits="userSpaceOnUse" x="585" y="-41" width="557" height="251">
<path d="M585.618 210L1141.78 210V-40.7595L585.618 -40.7595V210Z" fill="white"/>
</mask>
<g mask="url(#mask1_10_3)">
<path d="M940.706 178.992C929.289 178.992 920.027 185.933 920.027 194.496C920.027 203.058 929.289 210 940.706 210C952.13 210 961.386 203.058 961.386 194.496C961.386 185.933 952.13 178.992 940.706 178.992Z" fill="#272727"/>
<path d="M857.995 178.992C846.577 178.992 837.315 185.933 837.315 194.496C837.315 203.058 846.577 210 857.995 210C869.419 210 878.674 203.058 878.674 194.496C878.674 185.933 869.419 178.992 857.995 178.992Z" fill="#272727"/>
<path d="M775.283 178.992C763.866 178.992 754.603 185.933 754.603 194.496C754.603 203.058 763.866 210 775.283 210C786.707 210 795.963 203.058 795.963 194.496C795.963 185.933 786.707 178.992 775.283 178.992Z" fill="#272727"/>
<path d="M692.571 178.992C681.154 178.992 671.892 185.933 671.892 194.496C671.892 203.058 681.154 210 692.571 210C703.989 210 713.251 203.058 713.251 194.496C713.251 185.933 703.989 178.992 692.571 178.992Z" fill="#272727"/>
<path d="M609.86 178.992C598.44 178.992 589.182 185.933 589.182 194.496C589.182 203.058 598.44 210 609.86 210C621.281 210 630.538 203.058 630.538 194.496C630.538 185.933 621.281 178.992 609.86 178.992Z" fill="#272727"/>
<path d="M899.354 147.984C887.93 147.984 878.674 154.925 878.674 163.488C878.674 172.05 887.93 178.992 899.354 178.992C910.771 178.992 920.027 172.05 920.027 163.488C920.027 154.925 910.771 147.984 899.354 147.984Z" fill="#272727"/>
<path d="M816.642 147.984C805.218 147.984 795.963 154.925 795.963 163.488C795.963 172.05 805.218 178.992 816.642 178.992C828.06 178.992 837.315 172.05 837.315 163.488C837.315 154.925 828.06 147.984 816.642 147.984Z" fill="#272727"/>
<path d="M733.931 147.984C722.507 147.984 713.251 154.925 713.251 163.488C713.251 172.05 722.507 178.992 733.931 178.992C745.348 178.992 754.603 172.05 754.603 163.488C754.603 154.925 745.348 147.984 733.931 147.984Z" fill="#272727"/>
<path d="M651.216 147.984C639.796 147.984 630.538 154.925 630.538 163.488C630.538 172.05 639.796 178.992 651.216 178.992C662.636 178.992 671.892 172.05 671.892 163.488C671.892 154.925 662.636 147.984 651.216 147.984Z" fill="#272727"/>
<path d="M940.706 116.976C929.289 116.976 920.027 123.917 920.027 132.48C920.027 141.043 929.289 147.984 940.706 147.984C952.13 147.984 961.386 141.043 961.386 132.48C961.386 123.917 952.13 116.976 940.706 116.976Z" fill="#272727"/>
<path d="M857.995 116.976C846.577 116.976 837.315 123.917 837.315 132.48C837.315 141.043 846.577 147.984 857.995 147.984C869.419 147.984 878.674 141.043 878.674 132.48C878.674 123.917 869.419 116.976 857.995 116.976Z" fill="#272727"/>
<path d="M775.283 116.976C763.866 116.976 754.603 123.917 754.603 132.48C754.603 141.043 763.866 147.984 775.283 147.984C786.707 147.984 795.963 141.043 795.963 132.48C795.963 123.917 786.707 116.976 775.283 116.976Z" fill="#272727"/>
<path d="M692.571 116.976C681.154 116.976 671.892 123.917 671.892 132.48C671.892 141.043 681.154 147.984 692.571 147.984C703.989 147.984 713.251 141.043 713.251 132.48C713.251 123.917 703.995 116.976 692.571 116.976Z" fill="#272727"/>
<path d="M609.86 116.976C598.44 116.976 589.182 123.917 589.182 132.48C589.182 141.043 598.44 147.984 609.86 147.984C621.281 147.984 630.538 141.043 630.538 132.48C630.538 123.917 621.281 116.976 609.86 116.976Z" fill="#272727"/>
<path d="M899.354 85.9684C887.93 85.9684 878.674 92.9095 878.674 101.472C878.674 110.035 887.93 116.976 899.354 116.976C910.771 116.976 920.027 110.035 920.027 101.472C920.027 92.9095 910.771 85.9684 899.354 85.9684Z" fill="#272727"/>
<path d="M816.642 85.9684C805.218 85.9684 795.963 92.9095 795.963 101.472C795.963 110.035 805.218 116.976 816.642 116.976C828.06 116.976 837.315 110.035 837.315 101.472C837.315 92.9095 828.06 85.9684 816.642 85.9684Z" fill="#272727"/>
<path d="M733.931 85.9684C722.507 85.9684 713.251 92.9095 713.251 101.472C713.251 110.035 722.507 116.976 733.931 116.976C745.348 116.976 754.603 110.035 754.603 101.472C754.603 92.9095 745.348 85.9684 733.931 85.9684Z" fill="#272727"/>
<path d="M651.216 85.9684C639.796 85.9684 630.538 92.9095 630.538 101.472C630.538 110.035 639.796 116.976 651.216 116.976C662.636 116.976 671.892 110.035 671.892 101.472C671.892 92.9095 662.636 85.9684 651.216 85.9684Z" fill="#272727"/>
<path d="M940.706 54.9604C929.289 54.9604 920.027 61.902 920.027 70.4645C920.027 79.027 929.289 85.9684 940.706 85.9684C952.13 85.9684 961.386 79.027 961.386 70.4645C961.386 61.902 952.13 54.9604 940.706 54.9604Z" fill="#272727"/>
<path d="M857.995 54.9604C846.577 54.9604 837.315 61.902 837.315 70.4645C837.315 79.027 846.577 85.9684 857.995 85.9684C869.419 85.9684 878.674 79.027 878.674 70.4645C878.674 61.902 869.419 54.9604 857.995 54.9604Z" fill="#272727"/>
<path d="M775.283 54.9604C763.866 54.9604 754.603 61.902 754.603 70.4645C754.603 79.027 763.866 85.9684 775.283 85.9684C786.707 85.9684 795.963 79.027 795.963 70.4645C795.963 61.902 786.707 54.9604 775.283 54.9604Z" fill="#272727"/>
<path d="M692.571 54.9604C681.154 54.9604 671.892 61.902 671.892 70.4645C671.892 79.027 681.154 85.9684 692.571 85.9684C703.995 85.9684 713.251 79.027 713.251 70.4645C713.251 61.902 703.995 54.9604 692.571 54.9604Z" fill="#272727"/>
<path d="M609.86 54.9604C598.44 54.9604 589.182 61.902 589.182 70.4645C589.182 79.027 598.44 85.9684 609.86 85.9684C621.281 85.9684 630.538 79.027 630.538 70.4645C630.538 61.902 621.281 54.9604 609.86 54.9604Z" fill="#272727"/>
<path d="M899.354 23.9525C887.93 23.9525 878.674 30.8939 878.674 39.4565C878.674 48.0191 887.93 54.9605 899.354 54.9605C910.771 54.9605 920.027 48.0191 920.027 39.4565C920.027 30.8939 910.771 23.9525 899.354 23.9525Z" fill="#272727"/>
<path d="M816.642 23.9525C805.218 23.9525 795.963 30.8939 795.963 39.4565C795.963 48.0191 805.218 54.9605 816.642 54.9605C828.06 54.9605 837.315 48.0191 837.315 39.4565C837.315 30.8939 828.06 23.9525 816.642 23.9525Z" fill="#272727"/>
<path d="M733.931 23.9525C722.507 23.9525 713.251 30.8939 713.251 39.4565C713.251 48.0191 722.507 54.9605 733.931 54.9605C745.348 54.9605 754.603 48.0191 754.603 39.4565C754.603 30.8939 745.348 23.9525 733.931 23.9525Z" fill="#272727"/>
<path d="M651.216 23.9525C639.796 23.9525 630.538 30.8939 630.538 39.4565C630.538 48.0191 639.796 54.9605 651.216 54.9605C662.636 54.9605 671.892 48.0191 671.892 39.4565C671.892 30.8939 662.636 23.9525 651.216 23.9525Z" fill="#272727"/>
<path d="M940.706 -7.05542C929.289 -7.05542 920.027 -0.114057 920.027 8.44853C920.027 17.0111 929.289 23.9525 940.706 23.9525C952.13 23.9525 961.386 17.0111 961.386 8.44853C961.386 -0.114055 952.13 -7.05542 940.706 -7.05542Z" fill="#272727"/>
<path d="M857.995 -7.05542C846.577 -7.05542 837.315 -0.114062 837.315 8.44853C837.315 17.0111 846.577 23.9525 857.995 23.9525C869.419 23.9525 878.674 17.0111 878.674 8.44853C878.674 -0.114059 869.419 -7.05542 857.995 -7.05542Z" fill="#272727"/>
<path d="M775.283 -7.05542C763.866 -7.05542 754.603 -0.114068 754.603 8.44853C754.603 17.0111 763.866 23.9525 775.283 23.9525C786.707 23.9525 795.963 17.0111 795.963 8.44853C795.963 -0.114065 786.707 -7.05542 775.283 -7.05542Z" fill="#272727"/>
<path d="M692.571 -7.05542C681.154 -7.05542 671.892 -0.114074 671.892 8.44853C671.892 17.0111 681.154 23.9525 692.571 23.9525C703.995 23.9525 713.251 17.0111 713.251 8.44853C713.251 -0.11407 703.995 -7.05542 692.571 -7.05542Z" fill="#272727"/>
<path d="M609.86 -7.05542C598.44 -7.05542 589.182 -0.114079 589.182 8.44853C589.182 17.0111 598.44 23.9525 609.86 23.9525C621.281 23.9525 630.538 17.0111 630.538 8.44853C630.538 -0.114076 621.281 -7.05542 609.86 -7.05542Z" fill="#272727"/>
</g>
</g>
</g>
<defs>
<clipPath id="clip0_10_3">
<rect width="952" height="179" fill="white" transform="translate(-5)"/>
</clipPath>
</defs>
</svg>
