<svg width="941" height="188" viewBox="0 0 941 188" fill="none" xmlns="http://www.w3.org/2000/svg">
<g clip-path="url(#clip0_12_2)">
<path d="M-4 18.8V169.2H26.5156V112.8H56.9656V169.2H87.4812V75.2H117.931V0H148.447V112.8H178.897V75.2H209.413H239.863V188H270.378V131.6H300.828V169.2H331.344V112.8H361.794V169.2H392.309V94H422.759V112.8H453.275V131.6H483.725V37.6H514.241V169.2H544.691H575.206V56.4H605.656V131.6H636.172V112.8H666.622V131.6H697.138V56.4H727.588V150.4H758.103V56.4H788.553V150.4H819.069V169.2H849.519V131.6H880.034V75.2H910.484V131.6H941V188H910.484H880.034H849.519H819.069H788.553H758.103H727.588H697.138H666.622H636.172H605.656H575.206H544.691H514.241H483.725H453.275H422.759H392.309H361.794H331.344H300.828H270.378H239.863H209.413H178.897H148.447H117.931H87.4812H56.9656H26.5156H-4V18.8Z" fill="#272727"/>
</g>
<defs>
<clipPath id="clip0_12_2">
<rect width="945" height="188" fill="white" transform="translate(-4)"/>
</clipPath>
</defs>
</svg>
